<svg preserveAspectRatio="none" width="100%" height="100%" overflow="visible" style="display: block;" viewBox="0 0 19.5 19.5" fill="none" xmlns="http://www.w3.org/2000/svg">
<g id="elements">
<path id="Icon" fill-rule="evenodd" clip-rule="evenodd" d="M0.0822313 0.408561C0.210452 0.157793 0.468356 0 0.750003 0H5.75C5.99083 0 6.21701 0.115648 6.35801 0.310882L11.294 7.14534L18.2197 0.21967C18.5126 -0.0732233 18.9874 -0.0732233 19.2803 0.21967C19.5732 0.512563 19.5732 0.987437 19.2803 1.28033L12.1836 8.37707L19.358 18.3109C19.5229 18.5392 19.546 18.8407 19.4178 19.0914C19.2896 19.3422 19.0317 19.5 18.75 19.5H13.75C13.5092 19.5 13.283 19.3844 13.142 19.1891L8.206 12.3547L1.28033 19.2803C0.98744 19.5732 0.512566 19.5732 0.219673 19.2803C-0.0732202 18.9874 -0.0732202 18.5126 0.219673 18.2197L7.31641 11.1229L0.141994 1.18912C-0.0229079 0.960793 -0.0459892 0.659328 0.0822313 0.408561ZM2.21682 1.5L14.1335 18H17.2832L5.36652 1.5H2.21682Z" fill="var(--fill-0, white)"/>
</g>
</svg>
