<svg preserveAspectRatio="none" width="100%" height="100%" overflow="visible" style="display: block;" viewBox="0 0 20.5 20.5" fill="none" xmlns="http://www.w3.org/2000/svg">
<g id="elements">
<path id="Icon" d="M10.25 20.5C14.93 20.5 17.2787 20.4996 18.8887 18.8896C20.4996 17.2796 20.5 14.931 20.5 10.25C20.5 5.569 20.4997 3.21938 18.8887 1.60938C17.2777 0.000393454 14.93 0 10.25 0C5.57002 0 3.22133 0.000369677 1.61133 1.61035C0.00032804 3.22035 0 5.569 0 10.25C0 14.931 0.000358477 17.2806 1.61133 18.8906C3.22133 20.4996 5.57 20.5 10.25 20.5ZM10.25 19C5.984 19 3.8429 19.0001 2.6709 17.8291C1.4999 16.6591 1.5 14.517 1.5 10.25C1.5 5.983 1.4999 3.8409 2.6709 2.6709C3.77127 1.57058 5.72918 1.50499 9.50098 1.50098L9.5459 7.49902H8.33203C7.91803 7.49902 7.58203 7.83502 7.58203 8.24902C7.58219 8.66289 7.91813 8.99902 8.33203 8.99902H9.55664L9.58203 12.3447C9.59203 13.7917 10.7814 14.9688 12.2324 14.9688H15.1758C15.5898 14.9688 15.9258 14.6327 15.9258 14.2188C15.9258 13.8048 15.5898 13.4688 15.1758 13.4688H12.2324C11.6025 13.4688 11.0861 12.9599 11.082 12.334L11.0566 8.99902H13.1348C13.5487 8.99902 13.8846 8.66289 13.8848 8.24902C13.8848 7.83502 13.5488 7.49902 13.1348 7.49902H11.0459L11.001 1.50195C14.7714 1.50599 16.728 1.57077 17.8291 2.6709C19.0001 3.8409 19 5.983 19 10.25C19 14.517 19.0001 16.6591 17.8291 17.8291C16.6581 19.0001 14.516 19 10.25 19Z" fill="var(--fill-0, white)"/>
</g>
</svg>
