<svg preserveAspectRatio="none" width="100%" height="100%" overflow="visible" style="display: block;" viewBox="0 0 14.3325 12.3297" fill="none" xmlns="http://www.w3.org/2000/svg">
<g id="elements">
<path id="Icon" d="M5.21948 0.025C6.52948 -0.00833333 7.80304 -0.00833333 9.11304 0.025C11.2714 0.0796595 12.4609 0.109761 13.3562 1.00352C14.2529 1.90685 14.2774 3.06558 14.322 5.16758C14.336 5.83874 14.336 6.49056 14.322 7.16172C14.2774 9.26355 14.2526 10.4209 13.3582 11.3229C12.4616 12.2188 11.2724 12.2496 9.11402 12.3043C8.45935 12.321 7.81275 12.3297 7.16675 12.3297C6.52088 12.3297 5.87499 12.321 5.22046 12.3043C3.062 12.2496 1.8726 12.2186 0.977297 11.3248C0.080681 10.4215 0.0551619 9.26349 0.0105 7.16172C-0.0035 6.49039 -0.0035 5.83793 0.0105 5.1666C0.0551656 3.06465 0.0806888 1.90746 0.975344 1.00547C1.87198 0.109659 3.061 0.0796621 5.21948 0.025ZM9.08765 1.02305C7.79499 0.989714 6.5382 0.989714 5.24488 1.02305C3.21989 1.07437 2.29602 1.09819 1.68335 1.71055C1.07138 2.32786 1.05183 3.22393 1.0105 5.18711C0.9965 5.84378 0.9965 6.4829 1.0105 7.14023C1.05183 9.1034 1.07133 9.9998 1.6853 10.6178C2.29664 11.2283 3.22063 11.253 5.24585 11.3043C6.53842 11.3376 7.79539 11.3376 9.08863 11.3043C11.1136 11.253 12.0375 11.2294 12.6501 10.6168C13.2621 9.99949 13.2817 9.10341 13.323 7.14023C13.337 6.48357 13.337 5.84444 13.323 5.18711C13.2817 3.22403 13.2621 2.32754 12.6482 1.70957C12.0369 1.09891 11.1129 1.07438 9.08765 1.02305ZM3.40308 3.57383C3.54366 3.33664 3.85038 3.25677 4.08765 3.39707L6.04956 4.55723C7.03079 5.13516 7.30243 5.13509 8.28491 4.55723L10.2459 3.39805C10.4837 3.25745 10.7903 3.3361 10.9304 3.57383C11.0711 3.81178 10.9925 4.11836 10.7546 4.2584L8.7937 5.41855C8.13974 5.80387 7.65339 5.99568 7.16675 5.9957C6.6808 5.9957 6.19499 5.80315 5.54175 5.41855L3.57984 4.2584C3.34263 4.11781 3.26273 3.81111 3.40308 3.57383Z" fill="var(--fill-0, #F7F7F7)"/>
</g>
</svg>
