<svg preserveAspectRatio="none" width="100%" height="100%" overflow="visible" style="display: block;" viewBox="0 0 28.667 28.667" fill="none" xmlns="http://www.w3.org/2000/svg">
<g id="elements">
<path id="Icon" d="M14.333 0C22.249 0 28.6668 6.41708 28.667 14.333C28.667 22.2491 22.2491 28.667 14.333 28.667C6.41708 28.6668 0 22.249 0 14.333C0.000176161 6.41718 6.41718 0.00017615 14.333 0ZM14.333 2C7.52175 2.00018 2.00018 7.52175 2 14.333C2 21.1444 7.52165 26.6668 14.333 26.667C21.1445 26.667 26.667 21.1445 26.667 14.333C26.6668 7.52165 21.1444 2 14.333 2ZM14.333 8C14.8853 8 15.333 8.44772 15.333 9V13.9189L17.707 16.293C18.0976 16.6835 18.0976 17.3165 17.707 17.707C17.3165 18.0976 16.6835 18.0976 16.293 17.707L13.626 15.04C13.4386 14.8525 13.333 14.5981 13.333 14.333V9C13.333 8.44782 13.7809 8.00018 14.333 8Z" fill="var(--fill-0, #142052)"/>
</g>
</svg>
