<svg preserveAspectRatio="none" width="100%" height="100%" overflow="visible" style="display: block;" viewBox="0 0 26 28.667" fill="none" xmlns="http://www.w3.org/2000/svg">
<g id="elements">
<path id="Icon" d="M13 0C20.034 0 26 5.81307 26 12.9014C25.9999 16.5191 24.4668 19.5605 22.3154 22.0713C20.1723 24.5725 17.3805 26.5904 14.7578 28.1953L14.7432 28.2041L14.7275 28.2129C14.2006 28.5104 13.6053 28.667 13 28.667C12.3947 28.667 11.7994 28.5104 11.2725 28.2129L11.2549 28.2031L11.2373 28.1924C8.62431 26.5748 5.83342 24.5638 3.68945 22.0703C1.53616 19.5659 9.74446e-05 16.5312 0 12.9014C0 5.81306 5.96602 2.13443e-07 13 0ZM13 2C7.04583 2 2 6.94223 2 12.9014C2.0001 15.9218 3.26723 18.5106 5.20605 20.7656C7.14934 23.0258 9.73208 24.9071 12.2715 26.4805C12.4939 26.6025 12.7446 26.667 13 26.667C13.2563 26.667 13.5075 26.6013 13.7305 26.4785C16.2708 24.9227 18.8545 23.0373 20.7969 20.7705C22.7352 18.5085 23.9999 15.9109 24 12.9014C24 6.94223 18.9542 2 13 2ZM13 7.33301C16.1296 7.33301 18.667 9.87039 18.667 13C18.667 16.1296 16.1296 18.667 13 18.667C9.87039 18.667 7.33301 16.1296 7.33301 13C7.33301 9.87039 9.87039 7.33301 13 7.33301ZM13 9.33301C10.975 9.33301 9.33301 10.975 9.33301 13C9.33301 15.025 10.975 16.667 13 16.667C15.025 16.667 16.667 15.025 16.667 13C16.667 10.975 15.025 9.33301 13 9.33301Z" fill="var(--fill-0, #142052)"/>
</g>
</svg>
