<svg preserveAspectRatio="none" width="100%" height="100%" overflow="visible" style="display: block;" viewBox="0 0 25.9965 28.667" fill="none" xmlns="http://www.w3.org/2000/svg">
<g id="elements">
<path id="Icon" d="M12.9961 0C15.1451 4.14104e-06 16.8887 0.766245 18.3975 1.59082C18.8574 1.84221 19.2831 2.09026 19.6885 2.32617C20.6742 2.89981 21.541 3.40437 22.4951 3.72559L22.5303 3.7373C23.093 3.92672 23.5635 4.0856 23.9209 4.2334C24.2594 4.37335 24.6669 4.56745 24.9541 4.9043C25.2076 5.20175 25.3361 5.53227 25.4209 5.8457C25.4985 6.13277 25.5577 6.48166 25.6221 6.8584L25.6289 6.89844C27.1865 16.0142 23.7973 24.6942 15.4102 28.084L15.3643 28.1025C14.5465 28.4332 13.9681 28.667 13 28.667C12.0321 28.667 11.4543 28.4331 10.6367 28.1025L10.5908 28.084C2.20339 24.6944 -1.19 16.0145 0.367189 6.89844C0.369448 6.88521 0.371779 6.87156 0.374025 6.8584C0.438332 6.48173 0.497586 6.13273 0.575197 5.8457C0.659965 5.53229 0.788521 5.20173 1.04199 4.9043C1.32916 4.56742 1.73675 4.37339 2.0752 4.2334C2.43263 4.08556 2.90311 3.92681 3.46582 3.7373L3.50098 3.72559C4.45457 3.40439 5.32069 2.89972 6.30567 2.32617C6.71083 2.09025 7.13593 1.84225 7.5957 1.59082C9.10374 0.766148 10.847 0 12.9961 0ZM12.9961 2C11.346 2 9.95748 2.57913 8.55567 3.3457C8.20975 3.53487 7.8509 3.74439 7.48242 3.95898C6.43197 4.57077 5.29892 5.23033 4.13867 5.62109C3.53278 5.82515 3.12719 5.96223 2.83985 6.08105C2.66782 6.15221 2.58731 6.1989 2.55762 6.2168C2.54698 6.23976 2.52829 6.2852 2.50586 6.36816C2.45611 6.5522 2.41228 6.80558 2.33887 7.23535C0.891579 15.7082 4.06567 23.2898 11.3398 26.2295C12.18 26.569 12.4402 26.667 13 26.667C13.5599 26.667 13.8202 26.569 14.6602 26.2295C21.9336 23.2899 25.105 15.7085 23.6572 7.23535C23.5838 6.80557 23.54 6.55223 23.4902 6.36816C23.4678 6.28504 23.4501 6.23875 23.4395 6.21582C23.4099 6.19801 23.3293 6.15223 23.1572 6.08105C22.8698 5.96222 22.4637 5.8252 21.8574 5.62109C20.6966 5.23032 19.563 4.57088 18.5117 3.95898C18.1431 3.74445 17.7845 3.53583 17.4385 3.34668C16.0356 2.57995 14.6464 2 12.9961 2ZM12.3906 5.95801C12.8924 5.33804 13.6698 5.19749 14.3027 5.45703C14.9229 5.71147 15.3662 6.32738 15.3662 7.0791V11.9219H17.6445C18.4156 11.9219 18.9627 12.4258 19.1914 12.9756C19.4191 13.5231 19.3873 14.229 18.9355 14.7871L13.6035 21.375C13.1017 21.9948 12.3243 22.1346 11.6914 21.875C11.0713 21.6206 10.628 21.0055 10.6279 20.2539V15.4102H8.34961C7.57844 15.4101 7.03138 14.9063 6.80274 14.3564C6.57519 13.809 6.60689 13.103 7.0586 12.5449L12.3906 5.95801ZM8.93164 13.4102H10.9434C11.9507 13.4103 12.6279 14.2723 12.6279 15.1553V19.4014L17.0625 13.9219H15.0508C14.0435 13.9217 13.3663 13.0606 13.3662 12.1777V7.93066L8.93164 13.4102Z" fill="var(--fill-0, #142052)"/>
</g>
</svg>
