<svg preserveAspectRatio="none" width="100%" height="100%" overflow="visible" style="display: block;" viewBox="0 0 26.0002 26" fill="none" xmlns="http://www.w3.org/2000/svg">
<g id="elements">
<path id="Icon" d="M22.96 0.292955C23.2125 0.0405123 23.58 -0.0580027 23.9249 0.034166C24.2698 0.126372 24.5401 0.395446 24.6329 0.740221C27.0048 9.55057 26.0594 15.2362 23.5655 18.7461C21.0732 22.2536 17.2158 23.333 14.3331 23.333C12.6958 23.3329 11.1577 22.895 9.83309 22.1289C9.35503 21.8523 9.19131 21.2398 9.46786 20.7617C9.74447 20.2839 10.3561 20.121 10.8341 20.3974C11.8625 20.9924 13.0566 21.3329 14.3331 21.333C16.7836 21.333 19.9269 20.4126 21.9347 17.5869C23.8015 14.9595 24.8453 10.4632 23.1319 2.98338C21.5039 4.60054 18.9549 6.6832 14.4747 7.32323C10.1476 7.94147 7.33316 10.6844 7.33309 14.333C7.33309 15.1717 7.48163 15.9742 7.75106 16.7178C8.47673 16.4667 9.25609 16.238 10.0909 16.0293C14.0863 15.0304 16.9008 12.5237 18.8565 9.8203C19.1802 9.37288 19.8055 9.27212 20.253 9.59569C20.7004 9.91934 20.8011 10.5447 20.4776 10.9922C18.3357 13.9531 15.1585 16.8241 10.5763 17.9697C7.62613 18.7072 5.63115 19.6548 4.30575 20.8183C3.00816 21.9575 2.28695 23.3608 1.98641 25.164C1.89555 25.7087 1.38069 26.077 0.83602 25.9863C0.29125 25.8955 -0.0770408 25.3797 0.0137542 24.8349C0.379897 22.6383 1.29807 20.7977 2.98641 19.3154C3.79227 18.608 4.75826 17.997 5.89364 17.4658C5.5311 16.4894 5.33309 15.4334 5.33309 14.333C5.33316 9.408 9.18645 6.05791 14.1925 5.34276C18.7185 4.69606 20.8862 2.4423 22.4337 0.832994C22.6167 0.642624 22.7914 0.461555 22.96 0.292955Z" fill="var(--fill-0, #142052)"/>
</g>
</svg>
