<svg preserveAspectRatio="none" width="100%" height="100%" overflow="visible" style="display: block;" viewBox="0 0 28.6668 26" fill="none" xmlns="http://www.w3.org/2000/svg">
<g id="elements">
<path id="Icon" d="M0.404074 21.2295C4.59598 18.12 8.99822 17.1244 12.615 17.3682C14.4194 17.4898 16.0442 17.9216 17.3543 18.5674C18.6467 19.2045 19.7067 20.0885 20.2674 21.1641C20.5235 21.6422 20.6667 22.1939 20.6668 22.7744C20.6668 24.4526 19.4214 26 17.6668 26C16.2909 25.9999 15.2121 25.0284 14.8279 23.8193C14.6607 23.293 14.9519 22.7307 15.4783 22.5635C16.0046 22.3965 16.567 22.6876 16.7342 23.2139C16.8992 23.7331 17.3013 23.9999 17.6668 24C18.1213 24 18.6668 23.5543 18.6668 22.7744C18.6667 22.5223 18.6041 22.2947 18.5027 22.1064L18.4959 22.0928C18.1973 21.5174 17.5318 20.885 16.4695 20.3613C15.4219 19.845 14.0578 19.4706 12.4812 19.3643C9.33574 19.1522 5.40427 20.0115 1.59646 22.8359C1.15295 23.1649 0.526115 23.0723 0.197043 22.6289C-0.131961 22.1854 -0.0393821 21.5586 0.404074 21.2295ZM26.3338 16.667C26.8859 16.6671 27.3338 17.1148 27.3338 17.667C27.3336 18.219 26.8858 18.6668 26.3338 18.667H23.6668C23.1146 18.667 22.6669 18.2191 22.6668 17.667C22.6668 17.1147 23.1145 16.667 23.6668 16.667H26.3338ZM24.3338 4C26.8694 4.00006 28.6668 6.34993 28.6668 8.9043C28.6667 10.0501 28.3197 11.1192 27.7205 11.9678C26.8241 13.4058 25.1689 14.2286 23.3338 14.7012C21.458 15.1842 19.204 15.3515 16.8728 15.332C12.2033 15.293 7.01858 14.5019 3.47048 13.7891C2.92902 13.6803 2.57751 13.1528 2.6863 12.6113C2.79509 12.0699 3.32257 11.7193 3.86403 11.8281C7.35112 12.5287 12.3977 13.2944 16.8894 13.332C19.1386 13.3508 21.1978 13.1862 22.8347 12.7646C24.4992 12.336 25.5459 11.6887 26.033 10.8926L26.0525 10.8613L26.074 10.832C26.4358 10.3279 26.6667 9.65699 26.6668 8.9043C26.6668 7.14631 25.48 6.00006 24.3338 6C23.1875 6 22.0008 7.14626 22.0008 8.9043C22.0007 9.45639 21.5528 9.90407 21.0008 9.9043C20.4485 9.9043 20.0008 9.45653 20.0008 8.9043C20.0008 6.34989 21.7981 4 24.3338 4ZM11.6668 0C13.673 0 15.3336 1.59964 15.3338 3.61426C15.3338 4.27485 15.1524 4.89617 14.8377 5.42969C14.3267 6.29574 13.4445 7.02136 12.4158 7.55566C11.3737 8.09687 10.1132 8.47874 8.75857 8.61328C6.04108 8.88313 2.87483 8.16073 0.299582 5.63574C-0.0944242 5.24906 -0.100613 4.61592 0.28591 4.22168C0.672541 3.82735 1.30561 3.82143 1.69997 4.20801C3.79132 6.25853 6.34286 6.84338 8.5613 6.62305C9.67457 6.51245 10.6875 6.20008 11.4939 5.78125C12.3134 5.35564 12.8546 4.85512 13.115 4.41406C13.254 4.17846 13.3338 3.90608 13.3338 3.61426C13.3336 2.74118 12.6058 2 11.6668 2C10.7278 2.00002 9.99998 2.74119 9.99978 3.61426C9.99978 4.16654 9.55206 4.61426 8.99978 4.61426C8.44766 4.61406 7.99978 4.16642 7.99978 3.61426C7.99998 1.59965 9.66054 1.96856e-05 11.6668 0Z" fill="var(--fill-0, #F7F7F7)"/>
</g>
</svg>
