<svg preserveAspectRatio="none" width="100%" height="100%" overflow="visible" style="display: block;" viewBox="0 0 29.2466 32.25" fill="none" xmlns="http://www.w3.org/2000/svg">
<g id="elements">
<path id="Icon" d="M14.6211 0C17.0386 6.5014e-05 19.0001 0.862439 20.6973 1.79004C21.2146 2.07279 21.6935 2.35184 22.1494 2.61719C23.2585 3.26259 24.2342 3.83004 25.3076 4.19141L25.3467 4.20508C25.9797 4.41815 26.509 4.59644 26.9112 4.7627C27.2919 4.92014 27.7502 5.13861 28.0733 5.51758C28.3586 5.85232 28.5033 6.22442 28.5987 6.57715C28.686 6.90016 28.7528 7.29291 28.8252 7.7168L28.833 7.76074C30.5853 18.0158 26.7723 27.7812 17.3369 31.5947L17.2852 31.6152C16.3654 31.9871 15.7149 32.2499 14.626 32.25C13.5368 32.25 12.8859 31.9872 11.9658 31.6152L11.9141 31.5947C2.47839 27.7813 -1.33871 18.0162 0.413113 7.76074C0.415624 7.74604 0.418428 7.73143 0.420925 7.7168C0.493303 7.29286 0.560143 6.90018 0.647488 6.57715C0.742872 6.22439 0.887513 5.85235 1.17288 5.51758C1.49594 5.1386 1.95424 4.92019 2.33499 4.7627C2.73708 4.59639 3.26648 4.41824 3.89944 4.20508L3.9385 4.19141C5.01139 3.83007 5.98561 3.26247 7.09378 2.61719C7.54966 2.35173 8.02859 2.07295 8.54593 1.79004C10.2424 0.862352 12.2035 0 14.6211 0ZM14.6211 2.25C12.7647 2.25 11.2021 2.90219 9.62503 3.76465C9.23594 3.97743 8.83245 4.21272 8.418 4.4541C7.23622 5.14237 5.96157 5.88461 4.65628 6.32422C3.97434 6.55389 3.51765 6.70808 3.19436 6.8418C3.00063 6.92194 2.91021 6.9741 2.87698 6.99414C2.86501 7.02 2.84451 7.07112 2.81936 7.16406C2.76339 7.37108 2.71347 7.65621 2.63089 8.13965C1.00264 17.6717 4.57437 26.2016 12.7578 29.5088C13.7026 29.8906 13.9954 30 14.625 30C15.255 30 15.5482 29.8907 16.4932 29.5088C24.6758 26.2017 28.244 17.672 26.6153 8.13965C26.5326 7.65618 26.4828 7.37111 26.4268 7.16406C26.4016 7.07116 26.3811 7.02004 26.3692 6.99414C26.3359 6.9741 26.2455 6.92192 26.0518 6.8418C25.7285 6.70812 25.2719 6.55382 24.5899 6.32422C23.284 5.88462 22.0088 5.14246 20.8262 4.4541C20.4115 4.2127 20.0076 3.97748 19.6182 3.76465C18.0402 2.9022 16.4775 2.25006 14.6211 2.25ZM13.9395 6.70312C14.504 6.00564 15.3788 5.84762 16.0908 6.13965C16.7885 6.42588 17.2871 7.11821 17.2871 7.96387V13.4121H19.8506C20.7179 13.4123 21.3336 13.9792 21.5908 14.5977C21.847 15.2136 21.811 16.0078 21.3028 16.6357L15.3047 24.0469C14.7401 24.7444 13.8645 24.9025 13.1524 24.6104C12.4549 24.3241 11.9562 23.6315 11.9561 22.7861V17.3369H9.39358C8.526 17.3369 7.91057 16.77 7.65335 16.1514C7.39734 15.5355 7.43328 14.7421 7.94143 14.1143L13.9395 6.70312ZM10.0479 15.0869H12.3116C13.4448 15.0871 14.2061 16.0565 14.2061 17.0498V21.8271L19.1963 15.6621H16.9326C15.7993 15.6621 15.0372 14.6935 15.0371 13.7002V8.92285L10.0479 15.0869Z" fill="var(--fill-0, #F7F7F7)"/>
</g>
</svg>
