<svg preserveAspectRatio="none" width="100%" height="100%" overflow="visible" style="display: block;" viewBox="0 0 28.665 24.6594" fill="none" xmlns="http://www.w3.org/2000/svg">
<g id="elements">
<path id="Icon" d="M10.438 0.0499988C13.058 -0.0166671 15.6051 -0.0166655 18.2251 0.0499988C22.5424 0.159332 24.9208 0.220983 26.7114 2.00898C28.5047 3.81563 28.5547 6.13123 28.644 10.3352C28.672 11.6778 28.672 12.9818 28.644 14.3244C28.5547 18.5284 28.5047 20.8437 26.7153 22.6477C24.9221 24.4392 22.543 24.4993 18.2261 24.6086C16.917 24.6419 15.6252 24.6594 14.3335 24.6594C13.0416 24.6594 11.7492 24.6419 10.4399 24.6086C6.12265 24.4993 3.74428 24.4376 1.95361 22.6496C0.160309 20.843 0.110328 18.5273 0.0209972 14.3234C-0.00700094 12.9809 -0.00699719 11.6768 0.0209972 10.3342C0.11033 6.13022 0.159446 3.81493 1.94873 2.01094C3.742 0.219004 6.12096 0.159324 10.438 0.0499988ZM18.1743 2.04707C15.5891 1.98041 13.0754 1.9804 10.4888 2.04707C6.43835 2.14973 4.59005 2.19677 3.36475 3.42207C2.14102 4.65673 2.10268 6.44882 2.02002 10.3752C1.99202 11.6885 1.99202 12.9658 2.02002 14.2805C2.10269 18.2071 2.14163 20.0005 3.36963 21.2365C4.5923 22.4576 6.4403 22.5059 10.4907 22.6086C13.076 22.6753 15.5897 22.6753 18.1763 22.6086C22.2266 22.5059 24.074 22.4588 25.2993 21.2336C26.5233 19.9989 26.5624 18.2071 26.645 14.2805C26.673 12.9672 26.673 11.6898 26.645 10.3752C26.5624 6.44853 26.5234 4.65514 25.2954 3.41914C24.0727 2.19807 22.2247 2.14973 18.1743 2.04707ZM6.80615 7.14766C7.08743 6.67308 7.70067 6.51401 8.17529 6.79512L12.0981 9.11543C14.0607 10.2714 14.6046 10.2713 16.5698 9.11543L20.4917 6.79707C20.9677 6.51578 21.5808 6.67273 21.8608 7.14863C22.1421 7.62446 21.9849 8.23764 21.5093 8.51777L17.5864 10.8381C16.2784 11.6088 15.3059 11.9924 14.3325 11.9924C13.3607 11.9923 12.3889 11.6072 11.0825 10.8381L7.15772 8.5168C6.68335 8.2354 6.525 7.62219 6.80615 7.14766Z" fill="var(--fill-0, #F7F7F7)"/>
</g>
</svg>
