<svg preserveAspectRatio="none" width="100%" height="100%" overflow="visible" style="display: block;" viewBox="0 0 28.667 28.667" fill="none" xmlns="http://www.w3.org/2000/svg">
<g id="elements">
<path id="Icon" d="M14.333 0C22.249 0 28.6668 6.41708 28.667 14.333C28.667 22.2491 22.2491 28.667 14.333 28.667C6.41709 28.6668 0 22.249 0 14.333C4.40552e-05 12.3586 0.400005 10.475 1.12402 8.76074C1.31396 8.31103 1.44182 8.00696 1.52734 7.77344C1.61455 7.53531 1.62737 7.44896 1.62891 7.42676C1.63751 7.30157 1.6057 7.13071 1.38965 6.32324L0.0341797 1.25879C-0.058129 0.913793 0.0404431 0.545504 0.292969 0.292969C0.545503 0.0404358 0.913788 -0.0581309 1.25879 0.0341797L6.32324 1.38965C7.13067 1.60569 7.30158 1.63751 7.42676 1.62891C7.44897 1.62737 7.53533 1.61454 7.77344 1.52734C8.00696 1.44182 8.31104 1.31395 8.76074 1.12402C10.475 0.400009 12.3586 4.70888e-05 14.333 0ZM14.333 2C12.6308 2.00005 11.0114 2.34401 9.53906 2.96582L9.51562 2.97559C9.09505 3.15322 8.74573 3.30097 8.46094 3.40527C8.17581 3.50968 7.87576 3.6025 7.56543 3.62402C7.06114 3.65892 6.53753 3.51811 5.93652 3.35645C5.89361 3.3449 5.85037 3.33299 5.80664 3.32129L2.41309 2.41309L3.32129 5.80664C3.33299 5.85037 3.3449 5.89361 3.35645 5.93652C3.51811 6.53754 3.65892 7.06114 3.62402 7.56543C3.6025 7.87577 3.50968 8.17581 3.40527 8.46094C3.301 8.74567 3.15415 9.09516 2.97656 9.51562L2.9668 9.53906C2.3449 11.0115 2.00004 12.6307 2 14.333C2 21.1444 7.52166 26.6668 14.333 26.667C21.1445 26.667 26.667 21.1445 26.667 14.333C26.6668 7.52164 21.1444 2 14.333 2ZM18.0869 6.81836C18.5929 6.70354 19.0659 6.59651 19.6875 6.72656C20.1411 6.82154 20.5639 7.06206 20.8906 7.32324C21.2172 7.58438 21.5439 7.94295 21.7363 8.36426C22.0013 8.94445 22.0011 9.53432 22 10.1738C21.9999 10.2148 21.999 10.2565 21.999 10.2979C21.999 10.5917 21.9903 11.0868 21.7998 11.5439C21.5721 12.09 21.103 12.54 20.3682 12.6553L20.3604 12.6562C19.4492 12.799 18.7566 12.9083 18.2666 12.9795C18.0214 13.0151 17.8174 13.0425 17.6582 13.0605C17.5273 13.0754 17.3469 13.0938 17.1963 13.085C16.5439 13.0467 16.025 12.7823 15.623 12.5068C15.3672 12.3315 15.0888 12.0968 14.8701 11.9121C14.7842 11.8396 14.7071 11.774 14.6445 11.7236L13.7354 10.9922C13.2258 11.3733 12.7338 11.7985 12.2656 12.2666C11.7977 12.7345 11.3731 13.2261 10.9922 13.7354L11.7236 14.6455C11.774 14.708 11.8388 14.7844 11.9111 14.8701C12.0958 15.0888 12.3315 15.3671 12.5068 15.623C12.7823 16.0251 13.0468 16.5447 13.085 17.1973C13.0937 17.3477 13.0754 17.5275 13.0605 17.6582C13.0425 17.8174 13.0142 18.0214 12.9785 18.2666C12.9073 18.7566 12.7991 19.4491 12.6562 20.3604L12.6553 20.3682C12.54 21.1034 12.0893 21.5721 11.543 21.7998C11.0856 21.9903 10.5907 22 10.2969 22C10.2557 22 10.2146 21.9999 10.1738 22C9.53444 22.0011 8.94434 22.0021 8.36426 21.7373C7.94272 21.5448 7.58345 21.2174 7.32227 20.8906C7.06115 20.564 6.82158 20.1419 6.72656 19.6885C6.59638 19.0667 6.70351 18.593 6.81836 18.0869C6.82359 18.0639 6.82875 18.0408 6.83398 18.0176C7.41334 15.4519 8.76782 12.9353 10.8516 10.8516C12.9352 8.76796 15.451 7.41335 18.0166 6.83398C18.04 6.8287 18.0637 6.82364 18.0869 6.81836ZM9.86523 15.5264C9.369 16.4801 9.00864 17.4683 8.78516 18.458C8.65277 19.0443 8.6497 19.1164 8.68359 19.2783C8.69611 19.3381 8.75491 19.4792 8.88477 19.6416C9.01463 19.8041 9.13977 19.8926 9.19531 19.918C9.33266 19.9806 9.46511 20 10.2969 20C10.4278 20 10.5344 19.9959 10.624 19.9854C10.6506 19.9822 10.6733 19.9791 10.6924 19.9756C10.83 19.0972 10.9327 18.4416 11 17.9785C11.0348 17.7394 11.0587 17.5603 11.0732 17.4326C11.0833 17.344 11.086 17.3018 11.0869 17.291C11.0733 17.1408 11.0097 16.9776 10.8564 16.7539C10.737 16.5796 10.6199 16.4407 10.4736 16.2686C10.3843 16.1634 10.2838 16.0457 10.166 15.8994L9.86523 15.5264ZM19.2783 8.68359C19.1163 8.64968 19.0436 8.6527 18.457 8.78516C17.4673 9.00868 16.4792 9.36896 15.5254 9.86523L15.8994 10.166C16.0457 10.2838 16.1634 10.3843 16.2686 10.4736C16.4406 10.6199 16.5786 10.738 16.7529 10.8574C16.9769 11.0109 17.1407 11.0733 17.291 11.0869C17.3018 11.086 17.3439 11.0833 17.4326 11.0732C17.5603 11.0587 17.7393 11.0348 17.9785 11C18.4415 10.9327 19.0963 10.83 19.9746 10.6924C19.9781 10.6734 19.9822 10.6505 19.9854 10.624C19.9959 10.5346 19.999 10.4285 19.999 10.2979C19.999 9.46483 19.9798 9.33285 19.917 9.19531C19.8916 9.13977 19.804 9.01461 19.6416 8.88477C19.4793 8.75501 19.3382 8.69617 19.2783 8.68359Z" fill="var(--fill-0, #F7F7F7)"/>
</g>
</svg>
