<svg preserveAspectRatio="none" width="100%" height="100%" overflow="visible" style="display: block;" viewBox="0 0 112 112" fill="none" xmlns="http://www.w3.org/2000/svg">
<g id="image 6719 [Vectorized]" clip-path="url(#clip0_19293_1203)">
<path id="Vector" d="M57.9248 0.360222C60.4666 0.274106 63.011 0.29574 65.551 0.424982L65.4667 4.22293C64.1807 4.27798 63.1087 4.35161 61.8196 4.19769C61.8045 5.43312 61.7735 6.66827 61.7262 7.903C63.0665 8.04472 65.1658 7.94932 66.6227 8.00049C67.2353 8.06774 68.9389 8.05887 69.2558 8.16024L69.3766 8.40472C69.206 10.7799 69.4569 13.2951 69.3049 15.6022L73.1858 15.7248C73.2049 19.1626 73.0855 23.7815 73.2669 27.1134C74.3743 27.0792 75.866 27.1497 76.8826 27.0321C77.0492 25.6585 77.0702 24.654 77.0942 23.2818C78.3245 23.2795 79.7553 23.2427 80.9677 23.3178L80.9755 42.6428C83.5537 42.5933 86.131 42.6965 88.7091 42.6572L88.754 38.8856C87.6136 38.8731 85.9099 38.8012 84.8128 38.8682C84.8726 36.3072 84.7676 33.5561 84.875 31.0454C87.3871 31.0396 90.0953 30.9862 92.5911 31.0783C92.2495 34.3491 92.756 39.1239 92.5007 42.6262C95.0095 42.6766 97.5191 42.6833 100.028 42.646C100.07 41.3367 100.085 40.2877 100.031 38.9788C98.7008 38.8066 97.5494 38.8171 96.2164 38.808C96.3606 36.6301 96.2637 33.3676 96.2448 31.1272C97.6351 31.0383 98.7344 31.0475 100.117 31.0719C100.041 33.3845 100.042 36.4885 100.128 38.8143C101.233 38.8117 102.797 38.8557 103.866 38.7813C103.925 37.5153 103.999 36.2725 103.948 35.0045C106.306 34.826 109.309 34.9017 111.695 34.9661C111.467 36.9898 111.628 40.5079 111.567 42.7092C110.334 42.7024 109.086 42.6845 107.855 42.6931C107.856 41.4425 107.837 40.1352 107.865 38.8898C106.611 38.8634 105.319 38.853 104.069 38.7994C103.951 40.0941 103.914 41.395 103.96 42.6944L100.153 42.6814C99.9489 46.3261 100.193 50.2659 100.088 53.9328C101.335 53.986 102.737 54.0766 103.972 54.0498L103.924 58.0325C102.448 58.1216 101.635 58.208 100.146 58.0466L100.04 61.8909C97.4912 61.9569 95.186 61.9056 92.6459 61.8692C92.4281 63.2551 92.4643 64.216 92.5134 65.616C91.2575 65.6888 90.0603 65.7698 88.8039 65.6572C88.7435 66.8861 88.7234 68.1167 88.7435 69.3468C86.0645 69.4776 83.5436 69.2781 80.9437 69.3495C80.9496 68.2169 80.9835 66.9434 80.9376 65.8233C76.4996 65.5715 77.1824 66.2615 77.0331 62.048C75.7359 62.1069 74.5795 62.2083 73.2896 61.9685C73.1202 64.1938 73.1937 67.0532 73.2415 69.3213C74.2245 69.2745 76.0729 69.2982 77.0756 69.4043C77.0862 70.6419 77.0783 71.9272 77.112 73.1602C80.5071 73.114 85.3537 73.0987 88.746 73.2223L88.7332 77.0422L96.2257 77.0806C96.2011 75.8277 96.214 74.5744 96.2642 73.3222C95.0372 73.2776 93.6484 73.1954 92.4328 73.2039C92.599 72.0823 92.5088 70.5599 92.4785 69.3958C93.7099 69.3338 94.9429 69.3066 96.176 69.3143L96.254 65.5881L100.095 65.5657C100.105 66.7857 100.13 68.032 100.098 69.2495L104.001 69.3737C103.954 70.6009 103.941 71.9654 104.035 73.1905C105.233 73.1904 106.607 73.2237 107.79 73.1785C107.899 70.687 107.857 68.1136 107.849 65.6138C106.553 65.6471 105.236 65.568 103.94 65.5115C103.981 64.2647 103.995 63.0172 103.984 61.7697L111.593 61.7934C111.619 65.6038 111.619 69.4144 111.591 73.2248C110.383 73.223 109.138 73.2044 107.933 73.2205C107.737 75.7574 107.973 78.3428 107.852 80.8737L111.695 81.0175C111.499 83.0044 111.59 86.6521 111.598 88.7592L107.944 88.7278C107.639 92.0463 107.993 96.4946 107.852 99.9738C109.08 100.026 110.382 100.105 111.605 100.107C111.588 101.341 111.61 102.856 111.536 104.066C107.799 104.095 103.886 104.178 100.168 104.063C99.9844 106.397 100.113 109.329 100.082 111.727L93.2873 111.715C92.0537 111.712 90.2154 111.769 89.0547 111.585C88.5514 111 88.7413 108.655 88.7632 107.781C90.6617 107.943 94.2759 107.856 96.2534 107.818L96.2112 104.133C94.6889 104.104 90.1086 103.992 88.7539 104.171L88.7134 96.402C87.4383 96.4554 86.1842 96.5648 84.9254 96.3474C84.7691 98.9168 84.9657 101.564 84.8096 104.042C83.421 104.2 82.4232 104.353 81.035 104.093C80.9723 105.376 80.9637 106.486 80.9781 107.771C81.4495 107.774 82.2575 107.742 82.6819 107.859L83.689 108.2C83.9617 108.534 83.9764 108.903 84.0092 109.328C84.1806 111.581 83.5852 111.409 81.6644 111.365C80.7751 111.345 78.195 111.465 77.6131 110.814L77.4672 110.977C77.098 110.509 77.1952 101.257 77.4399 100.504C77.9903 99.9872 78.9729 100.449 79.6753 100.038C79.8613 100.03 80.4677 100.01 80.5865 99.89C81.1983 99.2749 80.978 97.3032 80.9587 96.4286C79.6315 96.482 78.4845 96.5491 77.153 96.4314C77.0806 97.3254 77.0794 98.4677 77.0534 99.3819C76.322 99.1075 73.6883 99.5296 73.4318 98.7015C73.2868 98.2333 73.6011 97.0884 73.2215 96.5343C73.1767 94.1012 73.1355 91.1705 73.2128 88.7307C74.4722 88.7182 75.7796 88.7246 77.034 88.6914L77.1006 81.0732C75.8832 81.0474 74.3488 80.9713 73.1552 81.009L73.1949 77.2039C72.0138 77.165 70.464 77.0693 69.3096 77.1044C69.3215 75.8318 69.309 74.4769 69.3494 73.2123C70.4753 73.1997 71.9 73.2222 72.992 73.0807C73.11 71.8409 73.2142 70.7874 73.22 69.536C72.2016 69.4744 70.2939 69.3113 69.3007 69.357L69.3226 65.6901C68.1442 65.6902 66.7471 65.7257 65.5861 65.6695C65.4437 70.605 65.7534 76.0814 65.5178 80.8918C66.5984 80.9241 68.3203 80.9208 69.3476 81.0277C69.3233 82.3045 69.32 83.5816 69.3375 84.8585C67.1442 84.8974 63.9225 85.0491 61.8033 84.9358C61.838 87.3786 61.6721 90.2486 61.7657 92.5906C60.512 92.5694 59.2581 92.5638 58.0042 92.5741C57.8371 95.028 58.0225 97.5168 57.9431 99.9539C59.1641 100.017 60.5722 100.123 61.779 100.091L61.7159 104.07C60.3978 104.13 59.2914 104.205 57.969 104.069C57.9438 105.278 57.9404 106.562 57.8891 107.764C60.2253 107.926 63.137 107.869 65.523 107.867C65.5111 109.134 65.5166 110.44 65.4854 111.703C62.9086 111.724 60.4805 111.621 57.9497 111.618C57.9282 110.504 57.9428 109.109 57.8779 108.02C56.6059 107.967 55.3017 107.89 54.0321 107.946C54.027 106.784 54.0617 105.294 53.9858 104.158C52.6114 104.198 51.6522 104.243 50.2705 104.117C50.1605 106.628 50.1895 109.207 50.1883 111.726L39.7295 111.697C38.6537 111.697 35.8138 111.632 34.9387 111.762L34.8962 108.058C33.8043 108.067 32.4216 108.12 31.3655 107.979C30.8413 107.431 31.0306 101.779 31.057 100.58C31.0619 100.382 31.0722 100.183 31.088 99.9856C31.7359 100.029 32.993 100.026 33.5135 100.086C33.9689 100.112 34.4235 100.121 34.8668 100.224L34.9688 100.357C34.8761 101.439 34.9334 102.739 34.955 103.841L38.7811 103.97L38.8284 107.791C41.269 107.759 43.9817 107.838 46.4588 107.842L46.4739 100.044L50.1478 100.079L50.1898 88.8375C47.793 88.7484 44.94 88.9365 42.7151 88.7473L42.6932 92.465C43.4019 92.4329 43.877 92.4537 44.5752 92.4952L44.6525 92.5403C44.985 92.7304 45.0657 92.7599 45.4325 92.8612C45.9609 93.504 45.6393 95.053 45.4704 95.8145C45.1346 95.9616 39.7787 96.1115 39.1705 96.0513L39.0707 96.3684C38.6479 96.9094 38.7973 98.9587 38.8141 99.6945C38.6519 99.5053 38.5326 99.455 38.3207 99.3319C37.6267 99.3869 36.1154 99.2467 35.3756 99.1982C34.7802 98.7127 35.4128 96.8219 34.9464 96.117C34.8434 93.8581 34.9124 91.0129 34.9463 88.7271C36.2022 88.7383 37.4583 88.7143 38.7129 88.655C38.7542 87.4421 38.7889 86.2289 38.817 85.0157C36.526 84.8714 33.329 84.8928 30.9964 84.8852L31.0568 81.0987L15.6713 80.9712C15.7193 79.6632 15.709 78.4358 15.6945 77.1306C16.8572 77.0648 18.242 77.0849 19.4217 77.0725C19.3467 76.0683 19.4544 74.3738 19.491 73.3202C16.9518 73.2557 14.3954 73.3549 11.9014 73.2672C12.0023 75.5997 11.8734 78.5838 11.8957 81.0004L7.99042 80.9664L8.02342 77.1825C5.44121 77.1241 2.85831 77.0926 0.275545 77.0879C0.450826 75.9207 0.352924 74.4706 0.296762 73.2896C2.17008 73.0846 5.96608 73.195 7.98251 73.2044C7.84315 71.7407 7.98834 67.5006 7.96199 65.7085C6.6374 65.6701 5.49571 65.6946 4.14061 65.6085C4.11329 66.8589 4.10941 68.1097 4.12924 69.3602L0.269028 69.3277C0.465248 68.4062 0.361521 63.0893 0.374279 61.7744L7.98917 61.784L8.01274 65.4948C9.34164 65.5608 10.5742 65.5694 11.9007 65.5718C11.909 66.7982 11.906 68.0245 11.8917 69.2507C13.031 69.3348 14.5367 69.3209 15.7043 69.3441C15.591 68.5344 15.6935 66.5042 15.7082 65.5775L19.4824 65.5632C19.4641 66.8021 19.4566 68.0411 19.4598 69.2801C21.7205 69.3305 24.3597 69.379 26.5995 69.2736C26.8533 69.3624 27.0787 69.3922 27.2267 69.5733C27.1264 70.7194 27.0848 71.8622 27.2479 73.007C30.9399 73.3432 31.038 73.4442 31.0642 69.6576L31.183 69.2566C33.5618 69.2165 36.384 69.4766 38.729 69.2018C38.833 68.2415 38.8047 66.8517 38.8116 65.8538C37.8727 65.7394 36.1464 65.8218 35.3647 65.5417C34.6667 64.8356 34.9011 63.0694 34.902 61.9602C33.5908 62.0143 32.3598 61.7884 31.0902 61.9594C31.0406 60.4983 31.046 59.2873 31.0825 57.8333C32.954 58.0398 36.7691 57.9206 38.784 57.9136C38.8137 60.4323 38.8229 62.9513 38.8115 65.4701C40.0808 65.5058 41.3508 65.503 42.6198 65.462C42.6971 62.9624 42.6842 60.3728 42.703 57.8659C43.8206 57.9552 45.2828 57.9199 46.4276 57.9231C46.3468 60.4167 46.5384 62.9362 46.4296 65.4532C47.6081 65.53 49.0022 65.532 50.1982 65.5643C49.997 62.7025 50.1479 57.0462 50.2178 54.0303L53.7248 54.0493L54.1221 54.2057C54.0139 55.1624 54.0578 56.7748 54.0569 57.7851C55.3434 57.8756 56.6322 57.926 57.9217 57.9361C57.9432 59.185 57.9461 60.434 57.9303 61.683C61.6051 61.8511 65.5903 61.7629 69.2961 61.7281L69.3228 58.1326C68.0212 58.1094 66.8357 57.9354 65.5336 58.0556L65.5537 54.2721C64.6996 54.1509 62.5703 54.0982 61.7489 54.1577C61.8381 51.6813 61.7775 49.0834 61.7503 46.597C60.4504 46.4346 59.1996 46.4647 57.8958 46.5217C57.9546 45.2845 57.9296 44.0003 57.9231 42.758C59.1264 42.6678 60.4826 42.6743 61.6991 42.6639C61.7821 41.3128 61.8049 40.241 61.7884 38.8865C62.8245 38.7902 64.4202 38.8135 65.4982 38.797L65.5689 35.0781C64.3185 34.9575 63.0316 34.9497 61.7735 34.9231C61.8275 33.8703 61.7632 32.3203 61.76 31.2266C60.8512 31.0734 58.9759 31.1351 57.968 31.1305C57.9411 33.7004 57.9306 36.2704 57.9364 38.8403L54.0425 38.815C54.0384 37.5577 54.0417 36.3004 54.0528 35.043C52.7982 35.0278 51.5442 34.983 50.2919 34.9087C50.1281 36.1571 50.1662 37.5616 50.186 38.8264L46.41 38.8045C46.5207 37.6093 46.4627 36.2186 46.3916 35.0226C47.6416 34.9387 48.8239 34.9193 50.0733 34.8992C50.1318 33.7019 50.1357 32.4091 50.1622 31.2032C49.4497 31.1782 47.0572 31.2749 46.5832 30.8601C46.3049 30.6166 46.4447 20.9386 46.3731 19.695C45.1471 19.5905 43.9146 19.4605 42.685 19.4944L42.7029 15.6864C43.9408 15.7258 45.1794 15.7342 46.4178 15.7116C46.3727 16.898 46.4057 18.2382 46.4088 19.4363C47.7278 19.4732 48.7961 19.489 50.1235 19.4269C50.2769 14.3883 50.1046 9.20208 50.2227 4.12197L54.0252 4.12752C54.1092 6.46747 54.0811 9.43158 54.0409 11.7726C56.4793 11.8707 59.3047 11.9533 61.7359 11.8385C61.7796 10.6404 61.7603 9.38873 61.7589 8.18589C60.7144 8.08743 58.9286 8.03945 57.909 8.09409C57.983 5.61117 57.925 2.86325 57.9248 0.360222ZM69.3271 38.831L65.6977 38.8351C65.4748 40.1337 65.4773 41.3801 65.5219 42.6954L61.8683 42.6901C61.76 44.0449 61.7547 44.9687 61.7839 46.3326C62.9476 46.3879 64.4159 46.4152 65.5521 46.5244C65.532 48.8223 65.6161 51.7237 65.4746 53.9379C66.7392 53.9626 68.0247 54.0009 69.2875 53.9776L69.3558 50.1888C71.7602 50.0353 74.6842 50.3182 77.0278 50.0519C77.0596 48.9026 77.1055 47.7301 77.0809 46.5826C75.8782 46.5578 74.383 46.4879 73.2045 46.5538C73.2064 45.3157 73.1759 43.9104 73.2294 42.6861C74.4543 42.6672 75.7962 42.6748 77.0106 42.6199C77.1605 38.8779 77.0801 34.889 77.0949 31.1226C75.8561 31.0928 74.4106 31.0228 73.1874 31.054C73.1909 29.8577 73.1715 28.5787 73.2085 27.3899C71.9815 27.3112 70.6995 27.249 69.4793 27.1437C69.1802 28.7956 69.3487 36.6188 69.3271 38.831ZM50.184 27.0769C51.4498 27.1054 52.7723 27.1559 54.0332 27.1579C53.933 24.8077 54.0334 21.957 54.0432 19.569C52.8144 19.5721 51.5857 19.5449 50.3581 19.4875C49.9473 21.2248 50.3242 25.0829 50.184 27.0769ZM88.8057 50.3317C88.7128 51.3535 88.7268 52.8388 88.7067 53.8966C89.7434 53.9749 90.6852 54.0691 91.7247 54.005C91.7187 54.5532 91.6983 55.2748 91.7761 55.8044C92.0214 57.4746 91.0945 57.0389 90.1635 57.1371L89.4063 57.0296C88.6339 56.3828 89.0348 55.7976 88.8639 54.5947L88.8444 54.4621C88.1073 54.153 85.708 54.1074 84.8758 54.2161C84.8634 52.9457 84.8424 51.6753 84.8126 50.4051C82.4353 50.4299 79.5153 50.462 77.1516 50.3089C77.0655 51.6192 77.0795 52.6381 77.1098 53.9411C78.3633 53.9716 79.7144 54.0365 80.9576 54.034L80.9989 57.8253C82.0578 57.8414 85.1333 57.8112 86.0535 57.9213C86.5695 57.9785 88.1623 58.1049 88.6076 57.9416L88.7056 58.9868L88.7592 61.6618C89.7989 61.6849 90.9043 61.7293 91.9382 61.7263C92.0401 61.7349 92.2838 61.7073 92.398 61.698C93.3301 60.6516 91.7596 58.1908 93.7494 58.1702C94.0703 58.1668 94.3901 58.1398 94.7096 58.113L94.7021 57.8576L96.1867 57.8598C96.2481 54.0866 96.2659 50.3126 96.2402 46.5389C95.0485 46.5531 93.7839 46.599 92.6056 46.4624L92.4769 50.2424C91.0614 50.41 90.2206 50.5065 88.8057 50.3317ZM107.79 88.7022C107.817 87.4652 107.859 86.1973 107.855 84.9624C106.629 84.9312 105.337 84.9197 104.117 84.8493C103.87 85.928 103.975 87.5986 104.042 88.7129C105.151 88.7176 106.717 88.7717 107.79 88.7022ZM100.082 84.7447L102.008 84.83C102.602 84.8284 103.266 84.8426 103.853 84.8203C104.027 81.2974 104.01 76.8849 103.919 73.3435C103.552 73.3212 102.751 73.2499 102.42 73.2643C101.575 73.2964 100.954 73.3081 100.106 73.2656C100.111 76.4994 100.28 81.6218 100.082 84.7447ZM38.4935 80.8581C38.9448 80.3083 38.822 78.0902 38.8118 77.2586C37.7556 77.2385 36.1716 77.2557 35.174 77.0804C34.7865 78.1721 34.9342 79.6767 34.9897 80.8405C35.9293 80.8794 37.5881 80.9791 38.4935 80.8581ZM54.037 69.2757L57.9697 69.3527C57.9532 70.5801 57.975 71.8954 57.9343 73.1076L60.3335 73.1843L61.7751 73.1892C61.6634 70.9441 61.7712 67.9019 61.7944 65.6084C59.9329 65.6289 58.012 65.5486 56.1665 65.6379C55.3794 65.6754 54.8707 65.6969 54.0759 65.641C54.0775 66.8499 54.0902 68.0687 54.037 69.2757ZM38.8853 73.0646C39.8902 73.0879 41.5887 73.1971 42.5121 73.129C42.5854 71.9479 42.6754 70.6401 42.6853 69.4596C41.567 69.4255 40.0663 69.4242 38.98 69.3244C38.719 70.5321 38.8179 71.8327 38.8853 73.0646ZM81.071 80.9901C80.9017 81.8621 80.9467 84.2295 80.9503 85.1952L80.9895 92.4395C84.5 92.3393 88.8752 92.489 92.4822 92.4762C92.5413 88.7999 92.4005 84.6324 92.5559 81.0562C90.2023 81.009 87.8482 81.0072 85.4945 81.0508C84.3318 81.0636 82.1505 81.1498 81.071 80.9901ZM50.2114 76.9917C51.2122 77.0338 53.033 77.151 53.9528 77.0121L54.0472 73.3231C52.7889 73.3475 51.5303 73.3482 50.272 73.3255C50.2881 74.5479 50.268 75.7705 50.2114 76.9917ZM54.075 88.8315C54.073 90.0108 54.0847 91.2166 54.0639 92.3933C55.2297 92.4339 56.7289 92.5276 57.8706 92.4934L57.9439 88.8247C56.7361 88.8418 55.2602 88.9006 54.075 88.8315ZM23.2962 77.0257C24.3063 77.035 26.0093 77.0993 26.955 76.9649C27.043 75.836 27.17 74.5663 27.1625 73.4471C25.9658 73.3525 24.4178 73.4011 23.3639 73.2517C23.3037 74.5088 23.2811 75.7674 23.2962 77.0257ZM102.277 88.7963C101.526 88.8139 100.867 88.8316 100.114 88.791C100.1 89.9682 100.042 91.4251 100.09 92.5809C98.9001 92.5935 97.4783 92.645 96.3064 92.5896C96.2889 96.2138 96.1812 100.306 96.2761 103.89L98.1911 103.931C98.795 103.931 99.4108 103.94 100.013 103.911C100.113 101.554 100.117 98.661 100.073 96.2771C101.362 96.2504 102.642 96.2148 103.932 96.2482C103.949 94.2806 104.069 90.7148 103.898 88.8655C103.544 88.8447 102.583 88.7662 102.277 88.7963ZM65.6353 27.0848C66.8831 27.125 67.9638 27.1841 69.2135 27.0411C69.3505 25.855 69.3311 24.6063 69.3372 23.4082C68.1536 23.4162 66.7729 23.4456 65.5954 23.3821C65.5528 24.5786 65.4953 25.8922 65.6353 27.0848ZM58.0603 15.7912C57.6646 18.4536 58.0791 24.1018 57.9417 27.0554C58.7976 27.0956 60.9244 27.2333 61.6577 27.0802C61.8771 23.9243 61.8009 19.093 61.7414 15.8526C60.7828 15.8642 58.9368 15.9404 58.0603 15.7912ZM84.8175 61.9646C83.7008 62.0223 82.1545 62.1653 81.1095 61.8943C80.9188 62.9652 80.9558 64.357 80.9504 65.47C82.189 65.5012 83.5128 65.5658 84.7398 65.4521C84.7579 64.406 84.8707 62.9369 84.8175 61.9646ZM61.8748 30.9743C62.9971 30.9913 64.2973 31.0418 65.4046 30.9984C65.4659 29.775 65.5175 28.5512 65.5592 27.327C64.3553 27.248 63.1499 27.19 61.9439 27.1532C61.7174 28.3222 61.8011 29.7842 61.8748 30.9743ZM65.7577 15.788C65.4619 16.7858 65.5313 18.3164 65.5363 19.3864C66.7385 19.4194 68.0982 19.4888 69.2849 19.4062L69.3497 15.9456L65.7577 15.788ZM65.2663 15.6426C65.7194 15.1371 65.575 13.1833 65.5316 12.4293C65.5245 12.3071 65.5159 12.1851 65.506 12.0632L62.041 11.9119C61.62 12.5277 61.7891 14.7381 61.7305 15.6274C62.7974 15.6524 64.2337 15.7247 65.2663 15.6426ZM34.9169 73.3735C33.8193 73.3332 32.2947 73.3217 31.2335 73.2046C30.9521 74.4745 31.0485 75.6161 31.1336 76.9065C32.2764 76.9554 33.5594 77.0937 34.6613 76.891C34.9276 75.9451 34.9277 74.3831 34.9169 73.3735ZM54.1722 77.0814C53.9644 78.3154 54.0422 79.7216 54.1404 80.9662C55.3467 80.9339 61.1739 81.0563 61.7769 80.8656C61.6631 79.7275 61.7589 78.3405 61.8061 77.1788C59.4245 77.1563 56.5178 77.2116 54.1722 77.0814ZM50.6265 84.835L54.0238 84.8455C53.9639 83.6045 54.039 82.2579 53.9769 81.1259C51.5502 80.9434 48.7784 81.0324 46.308 80.9666C46.4942 79.6618 46.3661 78.5362 46.4524 77.256C45.3666 77.2683 43.7648 77.3463 42.7431 77.1391C42.6921 78.4181 42.6692 79.6981 42.6743 80.9781C41.2897 81.0216 40.2857 81.058 38.8959 80.9404C38.7514 82.2222 38.7501 83.5161 38.8918 84.7982C42.6431 84.7242 46.8241 84.8394 50.6265 84.835Z" fill="var(--fill-0, white)"/>
<path id="Vector_2" d="M84.877 84.8553C85.9248 84.8673 86.9727 84.8565 88.02 84.8228C88.0481 85.3038 87.8783 85.3413 87.874 85.7628C87.8647 86.6721 87.8984 87.5377 87.8022 88.4443C87.1592 88.468 85.7417 88.4897 85.1728 88.6655L85.0477 88.6611C84.6908 88.2181 84.8614 85.6168 84.877 84.8553Z" fill="var(--fill-0, white)"/>
<path id="Vector_3" d="M88.02 84.8228C88.24 84.871 88.5428 84.8854 88.5995 85.0485C88.9174 85.9629 88.7116 87.7623 88.7318 88.7365C87.6293 88.7422 86.2435 88.7879 85.1728 88.6655C85.7417 88.4897 87.1592 88.468 87.8022 88.4443C87.8984 87.5377 87.8647 86.6721 87.874 85.7628C87.8783 85.3413 88.048 85.3038 88.02 84.8228Z" fill="var(--fill-0, white)"/>
<path id="Vector_4" d="M92.2079 57.3504L92.4711 56.3325C92.4853 56.8446 92.4268 57.2964 92.768 57.6575C93.2143 57.93 94.138 57.8554 94.7021 57.8575L94.7096 58.1129C94.3901 58.1397 94.0703 58.1667 93.7494 58.1701C91.7596 58.1907 93.3301 60.6515 92.3981 61.6979C92.2838 61.7072 92.0401 61.7348 91.9382 61.7262L92.3653 61.43C93.3428 58.4997 91.9655 57.3208 88.998 58.2867C88.7999 58.3512 88.7588 58.7741 88.7056 58.9867L88.6076 57.9415C89.6176 57.7463 91.0039 58.0982 92.0716 57.6854L92.2079 57.3504Z" fill="var(--fill-0, white)"/>
<path id="Vector_5" d="M88.8444 54.4619L88.8639 54.5945C89.0348 55.7975 88.6339 56.3827 89.4063 57.0294L90.1635 57.1369C90.7895 57.6498 91.4416 57.3496 92.2079 57.3503L92.0716 57.6853C91.0039 58.0982 89.6176 57.7462 88.6076 57.9415C88.1623 58.1047 86.5695 57.9784 86.0535 57.9211C89.618 57.5687 88.472 57.8983 88.8444 54.4619Z" fill="var(--fill-0, white)"/>
<path id="Vector_6" d="M91.7247 54.0049C91.9809 54.0448 92.24 54.0271 92.3537 54.2028C92.6392 54.6435 92.486 55.7832 92.4711 56.3325L92.2079 57.3503C91.4416 57.3496 90.7894 57.6499 90.1635 57.1369C91.0945 57.0387 92.0214 57.4745 91.7761 55.8043C91.6983 55.2747 91.7187 54.5531 91.7247 54.0049Z" fill="var(--fill-0, white)"/>
<path id="Vector_7" d="M0.552614 84.9075C3.0831 84.7092 7.30399 84.837 9.99894 84.8361L27.1615 84.8655C27.1432 87.7888 27.4644 110.855 26.952 111.713C18.1829 111.955 9.04294 111.327 0.311325 111.686C0.470104 109.841 0.372202 106.323 0.37456 104.386L0.365961 90.9441C0.357225 89.8816 0.17709 85.5366 0.552614 84.9075ZM4.1144 107.779C10.4238 108.002 16.916 107.755 23.2392 107.852C23.4471 101.607 23.1932 95.0802 23.3013 88.7967C18.8566 88.7481 14.4116 88.7397 9.96663 88.7713C8.40116 88.7746 5.737 88.8814 4.284 88.7804C3.96505 89.3061 4.18124 105.717 4.1144 107.779Z" fill="var(--fill-0, white)"/>
<path id="Vector_8" d="M8.27108 92.5437C11.6684 92.4408 16.1103 92.3995 19.4882 92.5691C19.4516 94.3579 19.6308 102.995 19.3066 104.038C15.7839 104.211 11.1977 103.844 7.9635 104.084C8.15542 100.754 7.87586 96.9016 8.0058 93.5273C8.02771 92.9596 7.9513 92.8474 8.27108 92.5437Z" fill="var(--fill-0, white)"/>
<path id="Vector_9" d="M84.9697 0.240723C86.144 0.408793 90.6527 0.339458 92.007 0.339874L103.941 0.329611C106.422 0.326699 109.171 0.254035 111.617 0.422105C111.428 7.14478 111.741 14.016 111.614 20.7526C111.574 22.8452 111.556 25.0922 111.633 27.1748C109.324 27.3379 105.055 27.206 102.617 27.2056L84.823 27.1926C85.0902 20.8633 84.6631 13.7747 84.8418 7.40215C84.8812 6.00046 84.7173 1.35356 84.9697 0.240723ZM88.7299 23.2573C95.0852 23.2856 101.505 23.212 107.847 23.2879C107.752 16.964 107.971 10.5353 107.826 4.21353L95.5362 4.20424C94.0743 4.21159 89.9541 4.36316 88.8432 4.1374C88.6632 5.32554 88.7378 6.69368 88.7228 7.90276C88.6596 13.0096 88.8206 18.1542 88.7299 23.2573Z" fill="var(--fill-0, white)"/>
<path id="Vector_10" d="M92.5489 7.9873L103.952 8.00741C103.991 9.31342 104.087 18.6698 103.863 19.5254C100.125 19.4617 96.2463 19.5236 92.4901 19.4971C92.5858 18.3855 92.5292 16.5937 92.5315 15.4323L92.5489 7.9873Z" fill="var(--fill-0, white)"/>
<path id="Vector_11" d="M2.05165 0.321218L27.1386 0.33148L27.1707 18.2706C27.1714 19.9511 27.2905 25.5194 27.103 26.9792C26.7462 27.2709 26.6421 27.1764 26.0763 27.2098L0.254181 27.1616C0.796665 24.0894 0.0578217 18.9993 0.379124 15.9486C0.657994 13.2992 -0.104286 2.00913 0.517796 0.537963C0.887357 0.268524 1.56491 0.327597 2.05165 0.321218ZM4.1485 4.19308L4.13325 16.5799C4.13561 18.5539 4.21853 21.2908 4.09872 23.2147C8.90287 23.3564 13.9766 23.2757 18.8013 23.2696C20.2669 23.2681 21.801 23.2882 23.2615 23.2618C23.289 17.1671 23.4318 10.2765 23.2683 4.22164C18.4456 4.28765 13.453 4.18476 8.59946 4.20264C7.31688 4.23052 5.37242 4.32787 4.1485 4.19308Z" fill="var(--fill-0, white)"/>
<path id="Vector_12" d="M7.99332 8.01451L19.4504 8.00342L19.4616 19.4648C18.8185 19.5707 16.2404 19.5387 15.4824 19.5355L7.9678 19.4784C8.17845 16.529 8.01967 11.1576 7.99332 8.01451Z" fill="var(--fill-0, white)"/>
<path id="Vector_13" d="M31.0626 19.4697C33.2966 19.5273 35.6997 19.4889 37.9471 19.4948C37.8046 20.6224 37.9482 21.767 37.906 22.927C37.1215 22.921 35.638 22.8166 34.9944 23.233C34.9323 24.5184 34.9194 25.8055 34.9554 27.0918C36.1745 27.1155 37.3938 27.1316 38.6132 27.1399L38.8405 27.2843C38.8034 28.5208 38.799 29.7582 38.8274 30.995L42.0368 31.0259C41.8878 31.2069 41.7167 31.4858 41.7225 31.7224C41.7628 33.3513 41.7974 34.9877 41.8061 36.6168L41.8158 48.1084C41.8147 49.6178 41.9014 51.67 41.6214 53.1451C41.5511 53.5152 41.3259 53.7265 40.9388 53.7612C39.6116 53.88 36.55 53.4535 35.3875 53.7949L35.1602 54.1048L35.0415 54.0667C34.8244 53.5996 34.8858 51.1144 34.8808 50.4481C33.919 50.45 33.028 50.4554 32.0676 50.3924C32.5213 50.1707 32.7597 50.1531 32.9891 49.7808C32.5905 49.5217 31.8854 49.5924 31.2991 49.5023C31.2479 48.8808 31.1969 48.31 31.1134 47.6892C31.0725 47.2795 31.085 47.1098 30.8247 46.777C30.2664 46.4417 29.2471 46.5536 28.5198 46.5471C28.2696 46.1526 28.1665 46.0201 27.7776 45.9239L27.5079 46.1006L27.5982 45.8852L28.1218 45.7482L28.1812 45.517C27.9536 45.5377 27.6171 45.5925 27.4095 45.5307C27.2089 44.8947 27.203 43.0869 27.7026 42.6339C28.3469 42.5407 29.8103 42.5849 30.7496 42.4876C31.1543 40.7437 31.0404 36.8975 31.0587 34.9258C32.3155 34.9254 33.5723 34.9063 34.8285 34.8681L34.938 31.152C33.6276 31.138 32.3175 31.1161 31.0074 31.0863C31.1926 27.6935 31.0339 23.0129 31.0626 19.4697ZM35.0002 42.7489C34.9565 43.6189 34.6713 45.341 35.1645 46.0828C35.3292 46.3303 35.8791 46.2914 36.1631 46.2847L38.7495 46.3822C38.7857 45.505 39.0729 43.4024 38.5768 42.8268C38.242 42.7236 38.2182 42.7318 37.863 42.7534C36.8552 42.7942 36.0056 42.8476 35.0002 42.7489Z" fill="var(--fill-0, white)"/>
<path id="Vector_14" d="M0.289688 42.7612C1.5577 42.6465 2.87661 42.6922 4.15295 42.7111C4.09679 43.7991 4.13783 45.1969 4.14005 46.308L19.8032 46.4207C21.5173 46.6128 25.0912 46.5056 26.9416 46.5002C26.9686 47.3483 27.027 48.8916 26.9258 49.7301L26.7409 50.2019C26.4651 50.2426 26.2622 50.2731 25.9917 50.3393C25.1208 50.5094 24.2643 50.4506 23.3863 50.3591C23.2809 51.6013 23.2751 52.6626 23.2705 53.9023C22.8601 53.9945 22.4962 54.0549 22.0823 54.1217C21.5797 54.4074 13.1632 54.0661 11.8594 54.1583C11.8943 52.9049 11.8641 51.5805 11.8555 50.3213C10.6103 50.3699 9.28533 50.4597 8.06044 50.2665L7.97239 54.1546C5.40959 54.2282 2.70022 54.0782 0.314788 54.1723C0.396743 52.3955 0.323662 50.2076 0.342799 48.3768C0.359023 46.8226 0.439038 44.2309 0.289688 42.7612Z" fill="var(--fill-0, white)"/>
<path id="Vector_15" d="M4.1144 31.1122C6.21375 30.9238 9.72048 31.0419 11.9234 31.0659C11.8032 33.3025 11.9015 36.5172 11.9391 38.8087L15.6526 38.7992C15.6949 37.524 15.7104 36.2479 15.6993 34.9722C18.0648 34.8698 20.4705 34.9024 22.8411 34.9102L23.3134 35.047C23.2453 36.3133 23.2177 37.4888 23.3569 38.7539C24.2644 38.756 25.6224 38.8465 26.4425 38.8008C25.9508 40.1234 26.9731 41.5476 25.6232 42.257C24.6685 42.7589 23.8304 42.3438 23.2432 41.5076C23.3027 41.0335 23.298 39.5619 23.3107 39.0139C20.983 38.8132 18.2165 38.8579 15.838 38.8173C15.6315 40.1556 15.6341 41.3616 15.6853 42.7066C14.4348 42.6765 13.1487 42.6819 11.8947 42.6718C11.9347 41.5427 11.8746 40.1349 11.8567 38.9863C10.2789 38.7594 5.85736 38.8347 4.08264 38.8225C4.23449 37.0334 4.10774 33.0531 4.1144 31.1122Z" fill="var(--fill-0, white)"/>
<path id="Vector_16" d="M65.5757 88.758C66.8177 88.7178 68.0965 88.7477 69.3416 88.7613C69.2069 92.1948 69.3343 96.464 69.343 99.9612C70.0386 99.958 70.7364 99.9944 71.4316 100.024C71.914 100.313 72.7208 100.238 73.2407 100.367C73.0657 102.846 73.315 105.411 73.1343 107.942C71.7959 108.08 70.6733 107.85 69.3563 108.03C69.3206 106.733 69.302 105.436 69.301 104.138C67.9975 104.186 66.8562 104.001 65.5273 104.116L65.5757 88.758Z" fill="var(--fill-0, white)"/>
<path id="Vector_17" d="M25.9917 50.3392C26.2622 50.273 26.4651 50.2425 26.7409 50.2017L26.9258 49.73L27.1599 49.8307C27.6043 50.0032 27.6937 50.0496 28.179 50.0613C29.4251 50.4418 30.311 50.1263 30.9292 50.8785C31.1124 51.7805 31.0362 53.2317 30.9316 54.1522C29.5585 54.2607 28.5779 54.1981 27.2135 54.1766C27.1583 55.2852 27.1926 57.0455 27.0786 58.0203C25.7626 58.1137 24.6412 58.0911 23.3289 58.069C23.2984 58.7323 23.2569 59.4187 23.2461 60.0806C23.1489 60.7927 23.1093 60.8956 22.6966 61.4784C21.8342 62.0472 14.8299 61.6276 13.0071 61.8238C12.6515 61.8349 12.4006 61.8879 12.108 61.7064C11.6647 61.0683 11.8949 58.8705 11.9004 57.921C13.5096 57.9342 22.1499 58.1547 23.1057 57.5483C23.334 56.9605 23.3661 55.1704 23.2436 54.5358C22.9704 54.2482 22.5299 54.2272 22.0823 54.1216C22.4962 54.0547 22.8601 53.9944 23.2705 53.9022C24.3892 53.9559 25.9699 54.1721 26.905 53.6512C27.4261 52.8584 27.4095 51.5147 26.9642 50.6748C26.8269 50.4157 26.2787 50.3927 25.9917 50.3392Z" fill="var(--fill-0, white)"/>
<path id="Vector_18" d="M73.2477 0.262695C75.6339 0.426189 78.4683 0.247581 80.9457 0.33023C80.9664 3.53563 81.1515 8.8799 80.9193 11.9758C79.4424 12.0917 78.531 12.1237 77.0447 12.086C76.1446 12.0633 74.0981 11.9139 73.3264 12.0621C73.3999 11.6024 73.4015 10.5584 73.3694 10.0746C73.1889 7.35951 74.7795 8.46264 75.6542 7.95898C75.7693 7.95898 75.8846 7.95787 75.9997 7.95538C77.6289 7.91711 77.1016 5.49922 77.0694 4.27739C76.013 4.28987 74.9666 4.31441 73.9113 4.25173C73.6685 3.81797 73.6722 4.29708 73.296 3.47031C73.1663 2.6118 73.1842 1.14548 73.2477 0.262695Z" fill="var(--fill-0, white)"/>
<path id="Vector_19" d="M34.9674 0.235352C36.0066 0.338801 37.6796 0.310234 38.7664 0.323963L38.8437 3.98213C39.5378 3.99475 40.2318 4.01749 40.9251 4.05063C41.5464 4.43683 42.325 3.92499 42.7238 4.4023C42.5075 6.74184 42.832 9.50085 42.6051 11.9657C41.2491 12.1427 40.1806 11.8859 38.831 12.0706L38.7846 8.21301C37.4938 8.24809 36.2173 8.07766 34.959 8.23741C34.8875 5.75713 34.8792 2.69387 34.9674 0.235352Z" fill="var(--fill-0, white)"/>
<path id="Vector_20" d="M104.115 46.4826C105.387 46.4353 106.586 46.4701 107.855 46.502C107.811 47.6433 107.843 48.9292 107.848 50.0824C108.763 50.1972 110.594 50.1936 111.577 50.2211C111.625 51.5304 111.751 57.1254 111.409 58.018C110.253 58.066 109.06 57.9724 107.834 58.0207C107.898 55.4986 107.847 52.8952 107.801 50.3733C106.74 50.2683 104.991 50.2272 103.951 50.2808C103.965 49.4976 103.89 46.9739 104.115 46.4826Z" fill="var(--fill-0, white)"/>
<path id="Vector_21" d="M42.0369 31.0259C42.2414 31.0768 42.6197 31.1259 42.6175 31.26C42.5426 35.7492 42.9698 50.3871 42.6266 54.1082C40.1406 54.2742 37.6461 54.2731 35.1602 54.1048L35.3875 53.7948C36.55 53.4534 39.6116 53.88 40.9388 53.7611C41.3259 53.7265 41.5511 53.5151 41.6214 53.145C41.9014 51.67 41.8147 49.6178 41.8158 48.1083L41.8061 36.6167C41.7974 34.9876 41.7628 33.3513 41.7225 31.7223C41.7167 31.4857 41.8878 31.2068 42.0369 31.0259Z" fill="var(--fill-0, white)"/>
<path id="Vector_22" d="M73.2215 96.5342C73.6011 97.0883 73.2868 98.2332 73.4318 98.7013C73.6883 99.5295 76.322 99.1074 77.0534 99.3818C77.3284 100.404 78.745 99.8538 79.6753 100.037C78.9729 100.449 77.9903 99.9871 77.4399 100.504C77.1952 101.257 77.098 110.509 77.4672 110.977L77.6131 110.814C78.195 111.465 80.7751 111.345 81.6644 111.365C83.5852 111.409 84.1806 111.581 84.0092 109.328C83.9764 108.903 83.9617 108.534 83.689 108.2L82.6819 107.859L84.8454 107.856C84.8481 109.133 84.8383 110.41 84.8164 111.688C82.4837 111.795 79.2095 111.567 77.0996 111.773C77.0288 107.987 77.0992 104.136 77.0547 100.332C76.2859 100.317 73.8536 100.212 73.2407 100.368C72.7208 100.238 71.914 100.313 71.4315 100.024C71.948 100.017 72.3931 100.059 72.8485 99.8207C73.4783 99.1904 73.1999 97.6601 73.2215 96.5342Z" fill="var(--fill-0, white)"/>
<path id="Vector_23" d="M54.0862 50.1914L57.9191 50.2007L57.8711 54.1515C57.0614 54.1384 54.7945 54.045 54.1221 54.2055L53.7248 54.0491C54.2105 53.5567 54.083 52.1231 54.0782 51.4174C54.0715 51.0087 54.0741 50.5999 54.0862 50.1914Z" fill="var(--fill-0, white)"/>
<path id="Vector_24" d="M107.904 107.845C109.112 107.883 110.382 107.864 111.595 107.864C111.591 109.128 111.612 110.46 111.496 111.713C110.333 111.745 109.053 111.641 107.84 111.649C107.846 110.381 107.867 109.113 107.904 107.845Z" fill="var(--fill-0, white)"/>
<path id="Vector_25" d="M73.296 3.47021C73.6722 4.29698 73.6685 3.81787 73.9113 4.25163C73.1155 4.44896 73.206 4.49348 73.075 5.3158C72.8846 5.81724 73.1485 6.48078 72.9012 7.03894C72.6302 7.20798 72.2694 7.39116 71.9473 7.40655C68.9775 7.54814 69.6212 6.09042 69.4419 4.13265C70.4613 3.7416 72.1997 4.72506 73.296 3.47021Z" fill="var(--fill-0, white)"/>
<path id="Vector_26" d="M31.0764 11.8086C31.6717 11.8593 32.2914 11.8858 32.8898 11.9199C33.3898 12.0552 33.589 11.9919 33.8917 12.4676C34.3364 13.1666 34.2453 15.2271 33.7776 15.8584C32.7791 15.8019 32.0788 15.7677 31.0834 15.8197C31.0392 14.4764 31.0613 13.1514 31.0764 11.8086Z" fill="var(--fill-0, white)"/>
<path id="Vector_27" d="M38.9023 23.3345C39.9099 23.1524 40.9807 23.3034 42 23.2686C41.9539 23.4502 41.9116 23.6325 41.8729 23.8156C41.691 24.6868 42.1915 25.8687 41.7119 26.5101C40.9588 27.016 39.1902 26.8787 38.8262 25.8388C38.7996 25.1328 38.8351 24.193 38.8418 23.4692L38.9023 23.3345Z" fill="var(--fill-0, white)"/>
<path id="Vector_28" d="M23.308 31.0454L26.6339 31.0507C26.0327 31.9336 26.3944 33.2418 26.25 34.5767C25.2429 34.5734 24.3217 34.7222 23.5531 34.1148C23.3977 33.7965 23.3806 33.6498 23.3076 33.3076C23.2605 32.9309 23.3024 31.5028 23.308 31.0454Z" fill="var(--fill-0, white)"/>
<path id="Vector_29" d="M25.3061 65.685C24.8865 65.3084 24.1454 65.5949 23.5541 65.268C23.1621 64.3392 23.1496 62.8288 23.9991 62.0893C24.377 61.7602 25.1258 61.9202 25.5977 61.9894C26.9548 62.4827 25.8893 64.4163 26.5086 65.7388C26.2048 65.7711 25.632 65.7094 25.3061 65.685Z" fill="var(--fill-0, white)"/>
<path id="Vector_30" d="M28.6893 65.542L30.1761 65.5628C30.0433 66.6619 30.2633 67.5907 30.1087 68.9666C27.0002 68.9503 27.6632 69.0565 27.2664 66.418L27.3644 65.9079C27.8485 65.5485 28.03 65.6287 28.6893 65.542Z" fill="var(--fill-0, white)"/>
<path id="Vector_31" d="M69.4419 4.13232C69.6212 6.09009 68.9775 7.54781 71.9473 7.40623C72.2694 7.39084 72.6302 7.20765 72.9012 7.03861C73.1484 6.48045 72.8845 5.81691 73.0749 5.31547C73.2174 6.12504 73.1709 7.0099 73.1605 7.83708L75.6542 7.95856C74.7795 8.46221 73.1889 7.35908 73.3693 10.0741C73.4015 10.558 73.3998 11.602 73.3264 12.0617C72.9385 10.8008 73.5373 9.56882 73.0279 8.60935C72.3924 8.01708 70.012 8.0505 69.3766 8.40425L69.2558 8.15977C68.9389 8.0584 67.2353 8.06728 66.6227 8.00002C68.227 7.83625 69.5087 8.34102 69.3463 6.13031C69.3086 5.61695 69.3399 4.74719 69.4209 4.25449L69.4419 4.13232Z" fill="var(--fill-0, white)"/>
<path id="Vector_32" d="M42.9047 1.09116C43.99 0.79232 44.2738 0.698023 45.4783 0.748916C45.6678 1.50315 45.9542 2.32229 45.6119 3.03367C44.5895 3.59557 43.9813 2.84175 42.8852 3.16402C42.8761 2.48217 42.8955 1.77509 42.9047 1.09116Z" fill="var(--fill-0, white)"/>
<path id="Vector_33" d="M44.5752 92.4951C45.1714 92.5158 45.883 92.5212 46.4677 92.5729C46.4007 93.8451 46.4026 95.003 46.4099 96.2718C45.3322 96.398 39.9576 96.6196 39.0706 96.3684L39.1705 96.0512C39.7787 96.1114 45.1346 95.9615 45.4704 95.8144C45.6393 95.0529 45.9608 93.504 45.4325 92.8611C45.0657 92.7598 44.985 92.7303 44.6525 92.5402L44.5752 92.4951Z" fill="var(--fill-0, white)"/>
<path id="Vector_34" d="M30.1761 65.563L30.7574 65.6366C31.4556 66.547 30.7578 68.4425 31.183 69.2565L31.0642 69.6576C30.2767 69.4457 27.9235 69.1698 27.2267 69.5732C27.0787 69.3921 26.8533 69.3623 26.5995 69.2736L26.9824 68.993C27.2626 68.4223 27.1945 67.1068 27.1977 66.4058L27.2664 66.4182C27.6632 69.0567 27.0002 68.9505 30.1087 68.9668C30.2633 67.5909 30.0433 66.6621 30.1761 65.563Z" fill="var(--fill-0, white)"/>
<path id="Vector_35" d="M26.6339 31.0508C26.8367 31.124 27.0295 31.1413 27.0661 31.3048C27.2801 32.2618 27.1646 33.9963 27.1639 34.9314C26.564 34.9347 23.6976 34.905 23.3134 35.0472L22.841 34.9103L23.0907 34.7476C23.3508 34.3702 23.2996 33.7865 23.3075 33.3077C23.3806 33.6499 23.3977 33.7966 23.5531 34.1149C24.3217 34.7223 25.2428 34.5735 26.25 34.5768C26.3944 33.2419 26.0327 31.9337 26.6339 31.0508Z" fill="var(--fill-0, white)"/>
<path id="Vector_36" d="M41.9999 23.2686C42.229 23.3351 42.5004 23.3552 42.5569 23.5316C42.8501 24.4477 42.6787 26.2148 42.6749 27.1654C42.0216 27.1625 39.3013 27.0913 38.8404 27.2844L38.6132 27.14C38.8425 26.7496 38.8061 26.308 38.8262 25.8387C39.1902 26.8786 40.9588 27.0159 41.7119 26.51C42.1914 25.8687 41.691 24.6868 41.8729 23.8155C41.9116 23.6324 41.9539 23.4501 41.9999 23.2686Z" fill="var(--fill-0, white)"/>
<path id="Vector_37" d="M37.9471 19.4951L38.5326 19.552C39.0852 20.2861 38.7205 22.0893 38.9023 23.3347L38.8418 23.4693C37.5658 23.352 36.218 23.5231 34.9944 23.2333C35.638 22.8169 37.1215 22.9213 37.9059 22.9272C37.9482 21.7673 37.8046 20.6227 37.9471 19.4951Z" fill="var(--fill-0, white)"/>
<path id="Vector_38" d="M26.4425 38.8008C26.7119 38.888 27.0034 38.9156 27.0665 39.1642C27.3114 40.1281 27.1142 41.2722 27.2026 42.285C27.1321 42.4276 26.9869 42.7434 26.9025 42.8551C25.6636 42.7191 24.646 42.9032 23.5462 42.5645C23.1568 42.169 23.2807 42.2204 23.2432 41.5077C23.8303 42.3438 24.6685 42.7589 25.6232 42.257C26.9731 41.5476 25.9508 40.1234 26.4425 38.8008Z" fill="var(--fill-0, white)"/>
<path id="Vector_39" d="M34.9464 96.1167C35.4128 96.8216 34.7801 98.7124 35.3756 99.1978C36.1154 99.2464 37.6267 99.3866 38.3207 99.3315C38.5326 99.4547 38.6519 99.505 38.8141 99.6942C38.255 100.799 36.0322 100.001 34.9687 100.357L34.8668 100.224C34.4235 100.12 33.9689 100.112 33.5135 100.086C33.9409 100.049 34.2572 100.055 34.6258 99.8263C35.2067 99.0567 34.9166 97.314 34.9464 96.1167Z" fill="var(--fill-0, white)"/>
<path id="Vector_40" d="M42.8039 0.380371L42.9047 1.09093C42.8955 1.77486 42.8761 2.48194 42.8853 3.16379L43.0148 3.39371C44.1717 3.08364 44.6557 3.98681 45.6719 3.48121C46.4011 2.7909 46.1453 1.93752 46.3611 0.86281C46.409 2.06745 46.4444 3.04051 46.3455 4.24363C45.6827 4.24945 43.1779 4.20536 42.7238 4.40241C42.325 3.9251 41.5464 4.43694 40.9251 4.05074C41.4349 4.05102 41.7964 4.08374 42.2757 3.90596C43.1324 3.22467 42.4881 1.88219 42.7788 0.495191L42.8039 0.380371Z" fill="var(--fill-0, white)"/>
<path id="Vector_41" d="M13.0071 61.8238C14.8298 61.6276 21.8342 62.0472 22.6966 61.4784C23.1092 60.8955 23.1489 60.7926 23.2461 60.0806C23.2743 60.7817 23.1693 60.9094 23.5097 61.4433C24.2548 61.9195 25.2598 61.7008 26.2366 61.8185L25.5977 61.9894C25.1258 61.9202 24.377 61.7602 23.9991 62.0892C23.1496 62.8288 23.1621 64.3392 23.5541 65.268C24.1454 65.5949 24.8865 65.3084 25.3061 65.685C24.6238 65.6732 23.9416 65.6656 23.2593 65.6624C23.2802 64.4722 23.2725 63.2817 23.2361 62.0919C20.2831 61.6947 15.9432 62.1507 13.0071 61.8238Z" fill="var(--fill-0, white)"/>
<path id="Vector_42" d="M26.2366 61.8187C26.8415 61.8109 26.7074 61.7191 27.0821 62.0423C27.5083 63.3237 26.6748 64.5971 27.376 65.3974C27.8126 65.456 28.2505 65.5041 28.6893 65.542C28.03 65.6287 27.8485 65.5485 27.3644 65.9079L27.2664 66.418L27.1977 66.4056C27.0577 65.9074 26.9329 65.9464 26.5087 65.7389C25.8893 64.4164 26.9548 62.4828 25.5977 61.9895L26.2366 61.8187Z" fill="var(--fill-0, white)"/>
<path id="Vector_43" d="M27.2026 42.2852C27.4068 42.5183 27.4167 42.5554 27.7026 42.6342C27.203 43.0872 27.2089 44.895 27.4095 45.5311C27.617 45.5928 27.9536 45.538 28.1812 45.5173L28.1218 45.7485L27.5982 45.8855L27.5079 46.1009L27.7776 45.9242C28.1665 46.0204 28.2696 46.1529 28.5198 46.5474C27.8237 46.5568 27.8463 46.4461 27.3609 46.7765C26.8534 47.7092 27.1851 48.7115 27.1598 49.831L26.9258 49.7303C27.027 48.8918 26.9686 47.3485 26.9416 46.5004C25.0911 46.5058 21.5173 46.613 19.8032 46.4209C21.6804 46.1888 23.8138 46.4947 25.7477 46.3552C27.456 46.2319 27.5166 43.586 26.9025 42.8552C26.9869 42.7435 27.1321 42.4277 27.2026 42.2852Z" fill="var(--fill-0, white)"/>
<path id="Vector_44" d="M42.8038 0.38038C43.4236 0.248087 45.417 0.314926 46.0849 0.400764L46.3583 0.587694L46.361 0.862819C46.1453 1.93753 46.4011 2.79091 45.6718 3.48122C44.6557 3.98682 44.1717 3.08365 43.0148 3.39372L42.8852 3.1638C43.9813 2.84153 44.5895 3.59535 45.6119 3.03345C45.9542 2.32206 45.6678 1.50293 45.4783 0.748692C44.2738 0.6978 43.99 0.792097 42.9047 1.09093L42.8038 0.38038Z" fill="var(--fill-0, white)"/>
<path id="Vector_45" d="M32.8898 11.92L34.9149 11.897C34.9258 12.9261 35.181 15.0125 34.6171 15.701C34.2809 15.8644 34.1431 15.8438 33.7775 15.8584C34.2453 15.2272 34.3364 13.1667 33.8917 12.4676C33.589 11.992 33.3898 12.0552 32.8898 11.92Z" fill="var(--fill-0, white)"/>
<path id="Vector_46" d="M31.1134 47.6895C31.1969 48.3103 31.2479 48.8811 31.2991 49.5026C31.8854 49.5927 32.5905 49.522 32.9891 49.781C32.7597 50.1534 32.5213 50.171 32.0676 50.3927C31.5053 50.3985 31.2559 50.3178 30.9292 50.8788C30.311 50.1266 29.4251 50.4421 28.179 50.0616C30.7853 50.1851 30.8341 50.2932 31.1134 47.6895Z" fill="var(--fill-0, white)"/>
</g>
<defs>
<clipPath id="clip0_19293_1203">
<rect width="112" height="112" fill="white"/>
</clipPath>
</defs>
</svg>
