<svg preserveAspectRatio="none" width="100%" height="100%" overflow="visible" style="display: block;" viewBox="0 0 111 59" fill="none" xmlns="http://www.w3.org/2000/svg">
<g id="A single realistic rolled carpet isolated on a transparent background, high-quality, e-commerce style. [Vectorized]" clip-path="url(#clip0_19293_904)">
<path id="Vector" d="M61.531 3.27254C62.2029 2.89186 68.3057 -0.149125 68.6182 -0.196259L68.6836 -0.123119C68.6509 -0.0728568 68.5922 0.0507399 68.5492 0.0837203C68.0076 0.498344 63.2617 2.39923 63.2442 2.77623C63.8398 2.98612 64.4472 3.06453 64.9727 3.25787L71.4136 5.63586C71.9466 5.83607 73.9787 6.7601 74.393 6.56536C74.6686 6.68918 75.0488 6.97256 75.3171 7.05534C76.6028 7.45201 78.1613 8.11482 79.3859 8.48738C79.6364 8.56353 82.2458 6.9284 82.8635 6.87526L82.8572 6.96203C81.8598 7.68639 80.6918 8.01643 79.6795 8.66098C81.7518 9.43099 84.1004 9.98769 86.1515 10.9255C86.3535 11.0178 92.0638 8.11747 92.9485 7.90104C93.6092 7.79586 94.6317 7.08889 95.3535 6.92091C97.8219 6.34658 100.32 6.78148 102.411 8.23279C103.751 9.19224 105.547 10.9744 106.275 12.4265C108.832 16.7715 109.443 23.5341 104.815 26.7308C104.025 27.2769 103.027 27.8015 102.185 28.2774L68.0369 47.4278C64.4863 49.4455 60.7437 51.4304 57.2493 53.5273C55.9556 54.335 53.8789 55.728 52.3521 55.8728L52.3322 55.803L51.9638 55.7129C50.8368 55.7901 49.615 55.6063 48.5525 55.2559C48.5525 55.2559 48.3229 55.3279 48.3005 55.335L47.6342 55.0521C47.3659 55.2979 46.7401 55.8031 46.5447 55.9993L46.6432 55.5823C46.8837 55.4284 47.2997 55.1435 47.3957 54.881C47.3491 54.6297 47.3571 54.6995 47.1439 54.4916C46.9254 54.4377 46.7296 54.4286 46.5069 54.4112C46.4456 54.0829 45.8058 53.7598 45.4479 53.5034C44.9764 53.9327 42.0738 56.1456 41.5947 56.2227C41.8211 55.7851 44.4643 54.0377 45.2092 53.3613C44.5852 53.0388 43.2184 51.9069 42.6394 51.4112C41.2029 51.9358 39.8133 53.4475 39.1122 53.5756L39.0344 53.4838C39.0429 53.4713 39.0514 53.4589 39.06 53.4464C39.9881 52.8262 41.4907 51.4348 42.5201 51.2423C41.5693 50.3806 41.2981 50.0314 40.5046 49.0305C39.3902 49.7518 36.9484 51.4422 35.8641 51.8654C36.7008 50.9578 40.0818 49.4792 40.172 48.4737L40.0721 48.3637C39.4715 48.2754 37.927 49.6881 37.3838 49.8279L37.3101 49.7168C37.405 49.3784 39.2331 48.637 39.6665 48.0048L39.611 47.8687C38.7369 47.4623 38.0083 48.2462 37.3791 48.6883C36.5098 49.2992 35.5126 49.7687 34.6333 50.3741C34.3604 50.5621 33.8379 51.0197 33.533 50.9707L33.5322 50.8642C33.9215 50.459 38.4103 47.6777 39.0119 47.4399C38.0925 46.9238 34.5452 44.6406 33.9639 44.4925C33.8377 44.5403 32.4449 45.4339 32.2121 45.5774C30.6123 46.5636 28.9201 47.4863 27.3264 48.4654L27.3765 48.577C28.1113 49.17 29.1247 49.6499 29.9874 50.0068C30.2593 50.1193 30.5052 50.5682 30.7038 50.5979C31.1248 50.6608 31.6555 50.3123 32.0086 50.116L31.9814 50.3438C31.7882 50.6016 31.3732 50.7822 31.0806 50.9331C30.9162 50.8993 26.9099 48.703 26.6689 48.5097L26.6896 48.4053C26.8174 48.4115 26.9359 48.432 27.0621 48.4508C28.2567 47.3363 31.7509 45.6719 33.2111 44.7271C33.4384 44.58 33.5879 44.5136 33.632 44.2906C33.3804 44.014 32.804 43.7168 32.4614 43.518C31.1405 44.3438 29.8414 45.1951 28.509 46.0071C27.8085 46.434 26.1204 47.1925 25.6086 47.6793L25.6471 47.7893C25.9049 47.861 26.1239 47.8847 26.2249 48.1532L26.1286 48.1823C25.5049 48.0411 24.2541 47.234 23.6581 46.8708L23.8224 46.7159L23.9367 46.6596C24.154 46.8307 25.1874 47.6616 25.4291 47.4918C26.0616 47.0473 26.6993 46.6953 27.3787 46.3331C29.0572 45.4381 30.6241 44.3349 32.2594 43.3714C30.5916 42.3341 28.4957 41.206 26.9402 40.0868L26.712 39.9445C24.8489 39.0809 13.0458 31.4859 12.5718 31.4582C12.4341 31.6345 12.2817 31.6674 12.0616 31.7249L12.0014 31.5983C12.1186 31.4947 12.2393 31.3948 12.3631 31.2989C12.2067 30.9519 9.74731 29.645 9.15687 29.1617C8.97641 29.0596 8.69285 28.8745 8.55006 28.7347C7.83553 28.0354 5.21385 26.961 4.86107 26.1439C5.51993 25.5812 9.63121 24.1438 10.5838 23.7657L19.1736 20.283L39.2277 12.2257L51.8758 7.17932C54.9595 5.95404 58.534 4.60268 61.531 3.27254Z" fill="var(--fill-0, #D9C1B2)"/>
<path id="Vector_2" d="M61.531 3.27254C62.2028 2.89186 68.3057 -0.149125 68.6182 -0.196259L68.6836 -0.123119C68.6509 -0.0728568 68.5922 0.0507399 68.5492 0.0837203C68.0076 0.498344 63.2617 2.39923 63.2442 2.77623C63.8398 2.98612 64.4472 3.06453 64.9727 3.25787L71.4136 5.63586C71.9466 5.83607 73.9787 6.7601 74.393 6.56536C74.6686 6.68918 75.0488 6.97256 75.3171 7.05534C76.6028 7.45201 78.1613 8.11482 79.3859 8.48738C79.6364 8.56353 82.2458 6.9284 82.8634 6.87526L82.8572 6.96203C81.8598 7.68639 80.6918 8.01643 79.6795 8.66098C81.7518 9.43099 84.1004 9.98769 86.1515 10.9255C86.3535 11.0178 92.0638 8.11747 92.9485 7.90104C91.7616 8.73081 89.02 9.81955 87.6296 10.523C85.4759 11.6126 83.2525 12.6874 81.0793 13.7482L50.1165 28.8108C48.4734 29.6226 46.8317 30.4444 45.1825 31.2419C43.6733 31.9717 42.0791 32.3982 40.7437 33.4626C36.366 36.9516 37.2204 43.8061 40.1288 47.9356C41.263 49.546 42.56 51.0025 44.1369 52.1861C44.5076 52.463 44.8248 52.7486 45.2435 52.967C47.4586 54.4659 51.2983 55.1146 53.5029 52.9741C56.9093 49.6667 55.3116 44.1381 53.3247 40.4521C51.822 37.6645 48.1793 35.0058 44.8032 34.9558C45.0118 34.8053 45.578 35.014 46.0225 34.8515C46.2566 34.4365 46.3141 34.516 46.7533 34.4832C48.569 34.9031 49.5333 35.692 50.9487 36.7851C54.2172 40.1139 56.0847 43.9289 56.0072 48.6548C55.9627 51.3666 55.1506 53.1249 52.6818 54.4018C52.2649 54.4076 51.325 54.7556 50.5954 54.7449C49.7769 54.7329 47.7713 54.3434 47.1439 54.4916C46.9254 54.4377 46.7296 54.4286 46.5069 54.4112C46.4456 54.0829 45.8058 53.7598 45.4479 53.5034C44.9764 53.9327 42.0738 56.1456 41.5947 56.2227C41.8211 55.7851 44.4643 54.0377 45.2092 53.3613C44.5852 53.0388 43.2184 51.9069 42.6394 51.4112C41.2029 51.9358 39.8133 53.4475 39.1122 53.5756L39.0344 53.4838C39.0429 53.4713 39.0514 53.4589 39.06 53.4464C39.9881 52.8262 41.4906 51.4348 42.5201 51.2423C41.5692 50.3806 41.2981 50.0314 40.5046 49.0305C39.3902 49.7518 36.9484 51.4422 35.8641 51.8654C36.7008 50.9578 40.0818 49.4792 40.172 48.4737L40.0721 48.3637C39.4714 48.2754 37.927 49.6881 37.3838 49.8279L37.3101 49.7168C37.405 49.3784 39.2331 48.637 39.6665 48.0048L39.611 47.8687C38.7369 47.4623 38.0083 48.2462 37.3791 48.6883C36.5098 49.2992 35.5126 49.7687 34.6333 50.3741C34.3604 50.5621 33.8379 51.0197 33.533 50.9707L33.5322 50.8642C33.9215 50.459 38.4103 47.6777 39.0119 47.4399C38.0925 46.9238 34.5452 44.6406 33.9639 44.4925C33.8377 44.5403 32.4449 45.4339 32.2121 45.5774C30.6123 46.5636 28.9201 47.4863 27.3264 48.4654L27.3765 48.577C28.1113 49.17 29.1247 49.6499 29.9874 50.0068C30.2593 50.1193 30.5052 50.5682 30.7038 50.5979C31.1248 50.6608 31.6555 50.3123 32.0086 50.116L31.9814 50.3438C31.7882 50.6016 31.3732 50.7822 31.0806 50.9331C30.9162 50.8993 26.9099 48.703 26.6689 48.5097L26.6896 48.4053C26.8174 48.4115 26.9359 48.432 27.0621 48.4508C28.2567 47.3363 31.7509 45.6719 33.2111 44.7271C33.4384 44.58 33.5879 44.5136 33.632 44.2906C33.3804 44.014 32.804 43.7168 32.4614 43.518C31.1405 44.3438 29.8414 45.1951 28.509 46.0071C27.8085 46.434 26.1204 47.1925 25.6086 47.6793L25.6471 47.7893C25.9049 47.861 26.1239 47.8847 26.2249 48.1532L26.1286 48.1823C25.5049 48.0411 24.2541 47.234 23.6581 46.8708L23.8224 46.7159L23.9367 46.6596C24.154 46.8307 25.1874 47.6616 25.4291 47.4918C26.0616 47.0473 26.6993 46.6953 27.3787 46.3331C29.0572 45.4381 30.6241 44.3349 32.2594 43.3714C30.5916 42.3341 28.4957 41.206 26.9402 40.0868L26.712 39.9445C24.8489 39.0809 13.0458 31.4859 12.5718 31.4582C12.4341 31.6345 12.2817 31.6674 12.0616 31.7249L12.0014 31.5983C12.1186 31.4947 12.2393 31.3948 12.3631 31.2989C12.2067 30.9519 9.74731 29.645 9.15687 29.1617C8.97641 29.0596 8.69285 28.8745 8.55006 28.7347C7.83552 28.0354 5.21385 26.961 4.86107 26.1439C5.51993 25.5812 9.63121 24.1438 10.5838 23.7657L19.1736 20.283L39.2277 12.2257L51.8758 7.17932C54.9595 5.95404 58.534 4.60268 61.531 3.27254Z" fill="var(--fill-0, #D9C1B2)"/>
<path id="Vector_3" d="M61.5304 3.27254C62.2023 2.89186 68.3051 -0.149125 68.6176 -0.196259L68.683 -0.123119C68.6503 -0.0728568 68.5916 0.0507399 68.5486 0.0837203C68.007 0.498344 63.2611 2.39923 63.2436 2.77623C63.8392 2.98612 64.4466 3.06453 64.9722 3.25787L71.413 5.63586C71.946 5.83607 73.9781 6.7601 74.3925 6.56536C74.668 6.68918 75.0482 6.97256 75.3165 7.05534C76.6022 7.45201 78.1607 8.11482 79.3853 8.48738C79.6359 8.56353 82.2452 6.9284 82.8629 6.87526L82.8566 6.96203C81.8592 7.68639 80.6912 8.01643 79.6789 8.66098C81.7512 9.43099 84.0998 9.98769 86.151 10.9255C86.3529 11.0178 92.0632 8.11747 92.9479 7.90104C91.7611 8.73081 89.0194 9.81955 87.629 10.523C85.4753 11.6126 83.252 12.6874 81.0787 13.7482L50.1159 28.8108C48.4728 29.6226 46.8311 30.4444 45.1819 31.2419C43.6727 31.9717 42.0786 32.3982 40.7431 33.4626C36.3654 36.9516 37.2198 43.8061 40.1282 47.9356C41.2624 49.546 42.5594 51.0025 44.1363 52.1861C44.507 52.463 44.8242 52.7486 45.2429 52.967C47.458 54.4659 51.2977 55.1146 53.5023 52.9741C56.9088 49.6667 55.311 44.1381 53.3241 40.4521C51.8215 37.6645 48.1787 35.0058 44.8027 34.9558C45.0112 34.8053 45.5774 35.014 46.0219 34.8515C46.256 34.4365 46.3135 34.516 46.7527 34.4832C48.5684 34.9031 49.5327 35.692 50.9482 36.7851C54.2166 40.1139 56.0842 43.9289 56.0066 48.6548C55.9621 51.3666 55.15 53.1249 52.6812 54.4018C52.2643 54.4076 51.3244 54.7556 50.5949 54.7449C49.7764 54.7329 47.7707 54.3434 47.1433 54.4916C46.9248 54.4377 46.729 54.4286 46.5064 54.4112C46.445 54.0829 45.8052 53.7598 45.4474 53.5034C44.9758 53.9327 42.0732 56.1456 41.5941 56.2227C41.8205 55.7851 44.4637 54.0377 45.2086 53.3613C44.5846 53.0388 43.2178 51.9069 42.6389 51.4112C41.2024 51.9358 39.8127 53.4475 39.1116 53.5756L39.0339 53.4838C39.0423 53.4713 39.0509 53.4589 39.0594 53.4464C39.9875 52.8262 41.4901 51.4348 42.5195 51.2423C41.5687 50.3806 41.2975 50.0314 40.504 49.0305C39.3896 49.7518 36.9478 51.4422 35.8635 51.8654C36.7003 50.9578 40.0812 49.4792 40.1714 48.4737L40.0715 48.3637C39.4709 48.2754 37.9264 49.6881 37.3832 49.8279L37.3095 49.7168C37.4044 49.3784 39.2326 48.637 39.6659 48.0048L39.6104 47.8687C38.7363 47.4623 38.0077 48.2462 37.3785 48.6883C36.5092 49.2992 35.512 49.7687 34.6328 50.3741C34.3598 50.5621 33.8373 51.0197 33.5324 50.9707L33.5316 50.8642C33.9209 50.459 38.4098 47.6777 39.0113 47.4399C38.0919 46.9238 34.5446 44.6406 33.9633 44.4925C33.8371 44.5403 32.4443 45.4339 32.2116 45.5774C30.6117 46.5636 28.9196 47.4863 27.3258 48.4654L27.376 48.577C28.1107 49.17 29.1241 49.6499 29.9869 50.0068C30.2587 50.1193 30.5046 50.5682 30.7032 50.5979C31.1242 50.6608 31.6549 50.3123 32.008 50.116L31.9808 50.3438C31.7876 50.6016 31.3726 50.7822 31.08 50.9331C30.9157 50.8993 26.9093 48.703 26.6683 48.5097L26.6891 48.4053C26.8168 48.4115 26.9354 48.432 27.0615 48.4508C28.2561 47.3363 31.7504 45.6719 33.2105 44.7271C33.4378 44.58 33.5873 44.5136 33.6314 44.2906C33.3798 44.014 32.8034 43.7168 32.4608 43.518C31.1399 44.3438 29.8408 45.1951 28.5084 46.0071C27.8079 46.434 26.1198 47.1925 25.608 47.6793L25.6465 47.7893C25.9043 47.861 26.1234 47.8847 26.2243 48.1532L26.128 48.1823C25.5043 48.0411 24.2535 47.234 23.6575 46.8708L23.8218 46.7159L23.9361 46.6596C24.1534 46.8307 25.1868 47.6616 25.4285 47.4918C26.061 47.0473 26.6987 46.6953 27.3781 46.3331C29.0566 45.4381 30.6235 44.3349 32.2588 43.3714C30.591 42.3341 28.4951 41.206 26.9396 40.0868L26.7114 39.9445C24.8483 39.0809 13.0452 31.4859 12.5712 31.4582C12.4336 31.6345 12.2811 31.6674 12.061 31.7249L12.0008 31.5983C12.1181 31.4947 12.2387 31.3948 12.3626 31.2989C12.2061 30.9519 9.74673 29.645 9.15628 29.1617C10.0619 29.3592 13.3073 31.4791 14.3425 32.1145L22.0271 36.8517C22.6033 37.2053 23.1952 37.5657 23.7815 37.9014C29.0149 40.8972 34.0853 44.3001 39.3642 47.2046C37.5415 43.9812 36.7276 39.7916 38.3113 36.2868C39.9422 32.6773 43.2184 32.0039 46.5244 30.3989L59.542 24.0238L77.2079 15.4442L82.0158 13.0874C83.3561 12.4239 84.6643 11.7369 86.0672 11.2169C85.9458 11.1538 85.8237 11.0929 85.7 11.034C84.1319 10.2852 81.2016 9.46938 79.4284 8.80946L70.5879 5.60793C68.5028 4.84245 66.4114 4.08695 64.3212 3.33707C62.891 2.82391 62.9021 2.92471 61.5304 3.27254Z" fill="var(--fill-0, #1E1E20)"/>
<path id="Vector_4" d="M55.6108 41.0051L55.733 41.0282C56.0906 41.5153 56.7233 40.9107 57.0598 40.6109C58.9518 38.9252 61.3262 38.0294 63.3919 36.6101C63.8504 36.2951 64.5466 36.0568 65.0204 35.7334C71.9816 30.4925 80.4187 27.9885 87.5946 23.1243C88.3281 22.6861 89.093 22.2796 89.8477 21.8794C94.523 19.3991 98.8508 16.3177 103.399 13.6134C103.918 13.3041 105.179 12.4857 105.717 12.3232L106.033 12.521L106.276 12.4263C108.832 16.7713 109.443 23.5339 104.816 26.7306C104.025 27.2767 103.027 27.8013 102.185 28.2772L68.037 47.4276C64.4864 49.4452 60.7439 51.4302 57.2494 53.527C56.9318 53.5615 56.6628 53.5401 56.3466 53.5238C56.4011 53.0855 56.7823 52.177 56.9496 51.7046C57.1842 51.0382 57.3608 50.353 57.4773 49.6564C57.6186 48.8075 57.5034 47.7078 57.3902 46.8605C57.1895 45.3579 56.6981 43.9071 56.2236 42.4743C56.0674 42.0027 55.7016 41.4685 55.6108 41.0051Z" fill="var(--fill-0, #D9C1B2)"/>
<path id="Vector_5" d="M50.0688 53.6887C45.9062 54.1262 42.29 50.437 40.2386 47.2347C38.1658 43.7852 37.1053 39.277 39.6591 35.7933C41.8361 32.8235 45.4158 32.5678 48.5291 34.1417C50.7716 35.2754 52.4731 37.0089 53.8507 39.1257C54.3203 39.8472 54.6814 40.5916 55.1237 41.3129C55.2145 41.7763 55.5803 42.3105 55.7365 42.7821C56.211 44.2149 56.7023 45.6657 56.9031 47.1683C57.0163 48.0156 57.1314 49.1153 56.9902 49.9642C56.8736 50.6608 56.697 51.346 56.4625 52.0124C56.2952 52.4848 55.914 53.3933 55.8594 53.8316C56.1756 53.8479 56.4447 53.8693 56.7623 53.8348C55.4687 54.6425 53.392 56.0356 51.8652 56.1804L51.8452 56.1105L51.4769 56.0205C50.3498 56.0977 49.1281 55.9139 48.0656 55.5635C48.0656 55.5635 47.8359 55.6355 47.8136 55.6425L47.1473 55.3597C46.879 55.6055 46.2531 56.1107 46.0578 56.3069L46.1562 55.8899C46.3968 55.7359 46.8127 55.4511 46.9087 55.1886C46.8621 54.9373 46.8701 55.0071 46.6569 54.7992C47.2843 54.651 49.29 55.0404 50.1085 55.0525C50.838 55.0632 51.778 54.7152 52.1949 54.7094C54.6637 53.4325 55.4757 51.6742 55.5202 48.9624C55.5978 44.2365 53.7302 40.4215 50.4618 37.0927C49.0464 35.9996 48.082 35.2107 46.2664 34.7907C45.8272 34.8236 45.7696 34.7441 45.5355 35.1591C45.091 35.3215 44.5248 35.1128 44.3163 35.2634C43.3995 35.3964 42.8409 35.5459 42.04 36.0782C41.6356 36.4139 41.1878 36.7951 40.8868 37.2248C41.4612 37.0413 41.526 36.3653 42.2238 36.3848C41.9512 36.6251 40.9101 37.4359 40.9769 37.7574C41.2734 37.4706 41.7369 36.9971 42.0491 36.7549C43.2437 35.8281 46.2905 35.7912 47.2707 37.0274C49.9065 38.4667 52.2399 41.1629 53.1357 44.0098C53.7859 45.6416 54.1503 47.9047 53.8673 49.6582C53.661 50.881 53.4734 51.4827 52.5583 52.4226C52.3715 52.6145 52.0377 52.8612 51.878 53.0387C51.1662 53.4417 50.8835 53.5394 50.0688 53.6887Z" fill="var(--fill-0, #D9C1B2)"/>
<path id="Vector_6" d="M41.8376 40.0037C41.8738 40.2059 41.911 40.3065 42.0624 40.4358C42.048 39.9123 42.2207 40.0447 42.3094 39.6898C42.6091 38.4923 44.8552 37.6752 45.94 38.286C45.2444 38.3688 44.7565 38.3019 44.0975 38.6303C43.0442 39.1554 42.4592 40.4504 42.6571 41.6058C42.8886 41.8839 42.8994 41.9392 42.9905 42.292L43.0713 42.3476L43.1534 42.3157C43.16 42.0727 43.179 41.8302 43.2101 41.5891C43.3288 40.7173 43.8451 39.907 44.5418 39.3716C46.2644 38.0479 48.8001 39.9515 49.7763 41.4132C50.9756 43.2089 51.9953 45.5797 51.6291 47.7835C51.4863 49.2275 49.8919 50.9461 48.3061 50.5306C44.8839 49.6339 42.7991 46.5184 41.9106 43.2735C41.5582 41.9862 41.5969 41.2452 41.8376 40.0037Z" fill="var(--fill-0, #D9C1B2)"/>
<path id="Vector_7" d="M47.8298 41.476C48.1326 41.7707 48.5916 42.2608 48.7724 42.643C49.5707 43.899 50.6561 46.4405 50.3187 47.9365C50.2738 48.1279 50.2232 48.318 50.1669 48.5063L50.0494 48.2705C49.6719 48.4852 49.4647 49.9463 48.3926 49.0387C46.9489 49.0181 45.8374 48.1612 44.9596 47.0673C44.956 46.8482 44.9629 46.8118 45.0223 46.6004L45.1075 46.5647C45.2525 46.6838 45.3938 46.8074 45.5313 46.935L45.637 46.8804C46.4435 47.5165 47.4404 48.8255 48.5646 48.0748L48.605 47.9338C48.433 47.8271 48.3602 47.8516 48.1517 47.8641C48.4473 47.764 48.3969 47.8246 48.5883 47.6121C48.8177 46.6927 46.4561 44.0732 45.9876 43.1712L45.9611 43.119C45.8585 42.8262 45.7217 42.4709 45.5946 42.1873C45.5403 42.0661 45.4329 42.1126 45.3228 41.9011C45.8771 41.8297 46.5826 41.8137 47.1473 41.7931C47.4771 41.7811 47.7962 41.9438 48.0006 41.8847L47.8061 41.6621L47.8298 41.476Z" fill="var(--fill-0, #D9C1B2)"/>
<path id="Vector_8" d="M48.8805 48.7311C48.9385 48.7147 49.0244 48.6728 49.0743 48.6402C51.286 47.1991 50.3285 44.5095 49.1586 42.6706L49.1345 42.6334L49.2603 42.3354C50.0586 43.5914 51.144 46.1329 50.8066 47.6289C50.7617 47.8203 50.7111 48.0104 50.6548 48.1987L50.5374 47.9628C50.1599 48.1776 49.9526 49.6387 48.8805 48.7311Z" fill="var(--fill-0, #55555C)"/>
<path id="Vector_9" d="M45.3254 44.0595C45.3569 43.9144 45.3779 43.8093 45.3287 43.6744C45.0066 42.79 45.6523 42.8831 45.9219 42.2152C45.9497 42.1463 45.895 42.2031 45.9988 42.1353C46.1616 42.4189 46.2449 42.5567 46.4473 42.8116L46.4739 42.8638C46.9424 43.7659 49.304 46.3854 49.0745 47.3048C48.8831 47.5172 48.9335 47.4566 48.638 47.5567C47.456 47.5991 45.794 45.0629 45.3254 44.0595Z" fill="var(--fill-0, #D9C1B2)"/>
<path id="Vector_10" d="M46.2486 40.6624L46.805 40.6705C47.075 40.8583 47.6469 41.247 47.8301 41.476L47.8064 41.6621L48.0009 41.8847C47.7965 41.9438 47.4774 41.7811 47.1476 41.7931C46.5829 41.8137 45.8774 41.8297 45.3231 41.9011C45.4332 42.1127 45.5406 42.0661 45.5949 42.1873C45.722 42.4709 45.8588 42.8262 45.9614 43.119C45.7589 42.8641 45.6756 42.7262 45.5129 42.4426C45.4091 42.5105 45.4637 42.4536 45.4359 42.5226C45.1664 43.1905 44.5207 43.0973 44.8427 43.9817C44.8919 44.1166 44.8709 44.2218 44.8395 44.3668C44.4388 43.6609 44.122 43.0725 43.8845 42.2952L43.9915 41.9969C44.4137 41.7734 44.4706 41.3627 45.1324 41.0616C45.6737 40.8154 46.0257 41.0717 46.3506 40.8121L46.2486 40.6624Z" fill="var(--fill-0, #D9C1B2)"/>
<path id="Vector_11" d="M43.8846 42.2952C44.1222 43.0725 44.4389 43.6609 44.8396 44.3668C45.3082 45.3702 46.9702 47.9064 48.1522 47.8641C48.3607 47.8517 48.4335 47.8272 48.6054 47.9338L48.5651 48.0748C47.4409 48.8255 46.4439 47.5165 45.6374 46.8804C44.9414 46.0914 43.9059 44.5435 43.7737 43.4735C43.914 43.229 43.8803 42.6081 43.8846 42.2952Z" fill="var(--fill-0, #D9C1B2)"/>
<path id="Vector_12" d="M44.1233 42.5428C43.9403 42.095 43.9918 40.8075 44.3354 40.4024C45.1868 39.3984 46.3322 39.6723 47.2922 40.3629L46.7358 40.3549L46.8378 40.5045C46.513 40.7642 46.1609 40.5078 45.6196 40.7541C44.9578 41.0551 44.9009 41.4659 44.4787 41.6893L44.3717 41.9877C44.3674 42.3005 44.4011 42.9215 44.2608 43.166L44.1233 42.5428Z" fill="var(--fill-0, #1A1A1B)"/>
<path id="Vector_13" d="M43.6364 42.8505C43.6632 40.927 44.3682 40.4925 46.2489 40.6625L46.3509 40.8122C46.026 41.0719 45.674 40.8155 45.1327 41.0617C44.4709 41.3628 44.414 41.7735 43.9918 41.997L43.8848 42.2953C43.8805 42.6082 43.9142 43.2291 43.7739 43.4736L43.6364 42.8505Z" fill="var(--fill-0, #1A1A1B)"/>
<path id="Vector_14" d="M40.4977 35.4566C41.7489 34.0043 42.8169 33.2822 44.8044 33.1081C47.1316 32.9044 49.6817 34.1222 51.4024 35.6434C54.6552 38.5189 56.8895 43.2208 57.2249 47.5355C57.281 48.2572 57.3134 49.5758 57.1163 50.2583C56.6108 53.0201 54.8776 55.2981 51.9638 55.7128C50.8368 55.7899 49.615 55.6062 48.5525 55.2558C48.5525 55.2558 48.3229 55.3278 48.3005 55.3348L47.6342 55.052C47.3659 55.2978 46.7401 55.803 46.5448 55.9992L46.6432 55.5822C46.8837 55.4282 47.2997 55.1434 47.3957 54.8809C47.3491 54.6296 47.3571 54.6993 47.1439 54.4915C47.7713 54.3432 49.7769 54.7327 50.5954 54.7447C51.325 54.7555 52.2649 54.4074 52.6818 54.4017C55.1506 53.1247 55.9627 51.3665 56.0072 48.6546C56.0847 43.9288 54.2172 40.1137 50.9488 36.7849C49.8817 33.9463 43.5722 32.8065 41.4638 34.9661C41.2394 35.196 40.8271 35.474 40.4977 35.4566Z" fill="var(--fill-0, #D9C1B2)"/>
<path id="Vector_15" d="M52.1943 54.7093C52.7918 54.8241 53.1693 54.1357 53.5583 54.1528C53.3197 54.543 52.8861 54.7715 52.4593 54.8921L52.4151 54.9042L52.4507 54.9849L52.6538 55.0512C54.3062 54.8264 55.8807 51.7798 56.6289 50.566C56.1234 53.3278 54.3902 55.6057 51.4764 56.0204C50.3493 56.0976 49.1276 55.9139 48.0651 55.5635C48.0651 55.5635 47.8354 55.6355 47.813 55.6425L47.1467 55.3597C46.8785 55.6054 46.2526 56.1106 46.0573 56.3069L46.1557 55.8898C46.3963 55.7359 46.8122 55.451 46.9082 55.1886C46.8616 54.9372 46.8696 55.007 46.6564 54.7991C47.2838 54.6509 49.2895 55.0404 50.108 55.0524C50.8375 55.0632 51.7775 54.7151 52.1943 54.7093Z" fill="var(--fill-0, #D9C1B2)"/>
<path id="Vector_16" d="M40.4963 35.4567C40.8258 35.4741 41.238 35.1961 41.4625 34.9662C43.5708 32.8067 49.8804 33.9464 50.9474 36.7851C49.532 35.692 48.5676 34.9031 46.752 34.4832C46.3128 34.516 46.2553 34.4365 46.0212 34.8515C45.5767 35.014 45.0105 34.8052 44.8019 34.9558C43.8852 35.0888 43.3265 35.2383 42.5256 35.7706C42.334 35.6633 42.3601 35.7163 42.2919 35.5528L42.527 35.165C41.664 35.477 40.7482 36.8064 40.4159 37.6124C38.3384 42.6523 42.3099 49.3819 47.0923 51.3428C47.4016 51.4697 47.9063 51.4907 48.0545 51.6016C49.2347 51.9574 49.3856 51.8395 50.5553 51.3674C52.5432 50.03 52.6514 48.2323 52.3618 46.0408C53.0824 46.7811 52.3763 48.9609 52.24 49.7807L52.3613 49.7304C52.5951 49.2804 52.4913 48.842 52.6617 48.446C52.8826 47.9325 52.7699 47.5043 52.7405 46.95C52.7084 46.3466 52.6215 45.7263 52.5333 45.1361C52.4308 44.4498 51.7443 42.6982 51.8012 42.1479C52.6175 42.844 53.6598 47.1823 53.3314 48.3381C53.0737 49.2446 52.9579 50.1768 52.3172 50.9573C51.6378 51.7848 50.7436 52.4095 49.6439 52.549C47.7747 52.6726 46.3109 52.3716 44.854 51.1723C41.7986 48.6572 39.582 45.3918 39.0299 41.4293C38.7577 39.476 39.2984 36.9893 40.4963 35.4567Z" fill="var(--fill-0, #1E1E20)"/>
<path id="Vector_17" d="M42.5274 35.1649C43.7918 34.2717 45.3052 34.2652 46.7524 34.483C46.3132 34.5159 46.2557 34.4364 46.0216 34.8514C45.5771 35.0138 45.0109 34.8051 44.8023 34.9557C43.8856 35.0886 43.3269 35.2381 42.526 35.7705C42.3344 35.6631 42.3605 35.7162 42.2923 35.5526L42.5274 35.1649Z" fill="var(--fill-0, #1E1C1E)"/>
<path id="Vector_18" d="M41.3732 36.9172C41.9476 36.7338 42.0124 36.0578 42.7102 36.0773C42.4376 36.3175 41.3965 37.1283 41.4634 37.4498C41.7598 37.1631 42.2234 36.6895 42.5355 36.4474C43.7301 35.5206 46.7769 35.4836 47.7571 36.7199L47.318 36.6363C45.9174 36.0973 44.7955 36.014 43.3866 36.6416C43.2778 36.6906 43.1709 36.7441 43.0665 36.8018C43.0416 36.8226 43.0171 36.8436 42.9928 36.865C41.8869 37.8352 41.2354 38.9091 41.1682 40.397C41.0111 43.878 43.1718 47.9361 45.7997 50.1454C46.399 50.6493 47.3142 50.7915 47.8424 51.3943L47.7452 51.4139C46.5662 50.9435 45.9425 50.6983 44.9297 49.9142C42.299 47.8775 40.751 44.8649 40.2501 41.6226C40.0067 40.0481 40.3733 38.1895 41.3732 36.9172Z" fill="var(--fill-0, #1A1A1B)"/>
<path id="Vector_19" d="M43.3823 37.7037C45.0322 37.0485 45.4782 37.0086 47.2494 37.7275C49.1108 38.4829 50.8256 40.2547 51.7811 42.0161C51.8009 42.0527 51.801 42.1077 51.8029 42.1479C51.7461 42.6982 52.4326 44.4497 52.5351 45.136C52.6232 45.7262 52.7102 46.3465 52.7422 46.95C52.7716 47.5042 52.8844 47.9324 52.6635 48.4459C52.493 48.8419 52.5968 49.2803 52.3631 49.7303L52.2418 49.7806C52.378 48.9608 53.0842 46.781 52.3635 46.0408C52.3238 45.9722 52.2314 45.5456 52.2067 45.4414C52.0522 44.5796 51.4364 43.116 50.9944 42.3596C49.7066 40.1555 48.3818 38.97 45.9417 38.2859C44.857 37.6751 42.6108 38.4922 42.3112 39.6897C42.2225 40.0446 42.0498 39.9122 42.0642 40.4356C41.9128 40.3064 41.8756 40.2058 41.8394 40.0035C42.1265 38.9591 42.5296 38.3458 43.3823 37.7037Z" fill="var(--fill-0, #D9C1B2)"/>
<path id="Vector_20" d="M47.929 51.1882L47.941 51.1166C48.1735 50.9361 48.4516 50.9887 48.7513 50.978C52.7324 50.8361 51.5644 47.2715 52.2052 45.4414C52.2299 45.5456 52.3223 45.9722 52.362 46.0407C52.6517 48.2322 52.5435 50.0299 50.5555 51.3673C49.3858 51.8394 49.2349 51.9573 48.0547 51.6014L47.929 51.1882Z" fill="var(--fill-0, #47464C)"/>
<path id="Vector_21" d="M47.929 51.1882C48.9296 51.5736 49.4118 51.0672 50.334 51.1413C50.4186 51.2275 50.4924 51.3029 50.5555 51.3672C49.3858 51.8394 49.2349 51.9572 48.0547 51.6014L47.929 51.1882Z" fill="var(--fill-0, #55555C)"/>
<path id="Vector_22" d="M50.5546 53.3809C50.2387 53.1809 49.6565 53.2134 49.1743 53.1186C50.2103 53.1135 50.2678 53.1791 51.0929 52.5724C51.2271 52.4739 51.6326 52.3178 51.8508 52.1466C53.2333 51.0623 54.0101 49.4081 54.0673 47.6662C54.0828 47.1925 53.8749 46.4282 53.9411 46.0082C54.3898 46.555 54.031 48.5627 54.3532 49.3504C54.1469 50.5732 53.9592 51.1748 53.0442 52.1148C52.8573 52.3067 52.5236 52.5534 52.3639 52.7309C51.652 53.1339 51.3694 53.2315 50.5546 53.3809Z" fill="var(--fill-0, #47464C)"/>
<path id="Vector_23" d="M47.3191 36.6361L47.7582 36.7198C50.394 38.1591 52.7274 40.8552 53.6233 43.7021L53.4073 43.6921C53.0914 43.4194 53.1903 43.3373 53.0368 42.98C52.4503 41.6158 51.47 40.4219 50.512 39.3044C49.5388 38.1692 48.5096 37.5424 47.1533 36.9674C47.3222 36.9309 47.318 36.9375 47.4569 36.8394L47.3191 36.6361Z" fill="var(--fill-0, #514F50)"/>
<path id="Vector_24" d="M43.0655 36.8018C43.1699 36.7441 43.2768 36.6906 43.3857 36.6416C44.7946 36.014 45.9164 36.0973 47.3171 36.6362L47.4549 36.8395C47.316 36.9376 47.3201 36.931 47.1513 36.9675C46.1545 36.2862 44.4669 36.7221 43.5893 37.4614L43.5999 37.0061C43.4335 36.807 43.3942 36.861 43.0655 36.8018Z" fill="var(--fill-0, #1E1E20)"/>
<path id="Vector_25" d="M11.9842 40.7362C10.1419 39.413 7.72355 38.528 6.00034 37.4229L5.97893 37.3069C5.9939 37.2879 9.79506 35.4873 10.0492 35.4305C10.1585 35.4061 10.1563 35.4158 10.249 35.475C10.1038 35.7212 10.1051 35.6381 9.77784 35.7969C9.191 36.0857 6.83246 37.0523 6.47379 37.4413C6.6019 37.6627 7.81391 38.0553 8.11665 38.1475C8.39567 37.9179 9.16931 37.2335 9.50603 37.4522C9.35172 37.7538 8.47114 37.9441 8.30822 38.3407C8.80198 38.8404 11.0899 39.7154 11.789 40.2943C11.789 40.2943 11.9376 40.2948 11.9552 40.2948C12.1668 40.1254 12.2388 40.0465 12.5204 40.0327C12.462 40.2804 12.172 40.5374 11.9842 40.7362Z" fill="var(--fill-0, #1E1E20)"/>
<path id="Vector_26" d="M23.6583 46.8708C23.4318 46.7958 20.1739 44.9966 20.0368 44.8647L20.1159 44.7915C20.746 44.7991 22.0081 45.8349 22.6643 46.0033C23.1081 45.6062 29.5086 42.0671 29.6604 42.1034L29.6645 42.2254C29.3874 42.5695 23.4713 45.761 22.85 46.0918C22.9923 46.3926 23.5065 46.6395 23.8225 46.7159L23.6583 46.8708Z" fill="var(--fill-0, #333336)"/>
<path id="Vector_27" d="M48.301 55.3348C48.3234 55.3278 48.553 55.2558 48.553 55.2558C49.6155 55.6062 50.8373 55.7899 51.9643 55.7128L52.3327 55.8028L52.3526 55.8726C52.0652 56.0531 51.5398 56.5116 51.2618 56.7452C49.9407 57.8551 48.4248 58.8243 47.1117 59.9213C46.9095 59.7522 46.809 59.6756 46.6426 59.4685C46.9105 59.2677 47.2494 59.505 47.5665 59.2869C48.9412 58.3414 50.5984 56.7879 51.9961 55.9721C50.2914 55.9873 49.853 56.0259 48.301 55.3348Z" fill="var(--fill-0, #1E1E20)"/>
<path id="Vector_28" d="M18.6159 35.6861C18.7075 35.7818 18.6733 35.7228 18.6843 35.8845C18.0976 36.5813 14.4583 37.8813 13.4926 38.4017C13.0496 38.6405 11.6008 39.3529 11.1358 39.472L11.0855 39.4067C11.1646 39.0835 17.7546 36.3023 18.6159 35.6861Z" fill="var(--fill-0, #1E1E20)" fill-opacity="0.988235"/>
<path id="Vector_29" d="M21.0723 36.9998C21.1961 37.0565 21.2036 37.0789 21.2942 37.177L21.2264 37.2797C20.424 37.3411 15.9893 40.1975 14.8255 40.5154C14.639 40.5664 14.1331 40.9008 13.9677 41.0318C13.8338 40.9815 13.7215 40.9106 13.598 40.8392L13.6693 40.8149C14.4714 40.5328 14.8455 40.1307 15.1183 40.0374C16.1688 39.6778 16.7989 39.2196 17.7164 38.796C18.6313 38.3736 20.2636 37.326 21.0723 36.9998Z" fill="var(--fill-0, #1E1E20)" fill-opacity="0.988235"/>
<path id="Vector_30" d="M12.5212 40.0326C12.6454 39.7864 13.7366 39.3812 14.0928 39.2159C15.3962 38.6178 16.6897 37.9982 17.9726 37.3574C18.4453 37.1179 19.8878 36.2843 20.2721 36.3009C20.2627 36.3176 20.1645 36.4937 20.1645 36.4937C18.8477 37.1315 17.5857 37.8678 16.2528 38.4724C15.1333 38.9802 14.0316 39.5358 12.9118 40.0422C12.8247 40.0816 12.6169 40.0443 12.5212 40.0326Z" fill="var(--fill-0, #1E1E20)"/>
<path id="Vector_31" d="M28.0471 41.145L28.1659 41.1824C28.1453 41.8185 22.6246 44.3758 21.8203 45.159C21.7005 45.077 21.6893 45.0828 21.6339 44.9444C21.9544 44.6308 22.615 44.3467 23.0165 44.0847C24.6849 42.996 26.4238 42.2914 28.0471 41.145Z" fill="var(--fill-0, #47464C)" fill-opacity="0.988235"/>
<path id="Vector_32" d="M43.9873 57.7112C44.8151 56.9635 45.7742 56.3387 46.6421 55.5823L46.5437 55.9993C46.0148 56.388 44.7091 57.3471 44.2863 57.7964C44.3289 57.9435 45.0822 58.53 45.263 58.6825L45.2317 58.736C45.0015 58.6758 40.8544 56.3788 40.7385 56.2626L40.7997 56.1762C41.669 56.1458 43.0145 57.6366 43.9873 57.7112Z" fill="var(--fill-0, #1E1E20)"/>
<path id="Vector_33" d="M74.0731 1.39737C74.2576 1.393 74.3028 1.36507 74.4614 1.49358C74.8664 1.82174 75.6751 1.94907 76.1883 2.06244C76.6092 2.15545 76.7435 2.23932 77.142 2.42205L77.1593 2.48728C75.9267 3.1955 74.1755 3.89139 73.0357 4.66038L72.9799 4.69854C72.779 4.76813 72.7172 4.80715 72.5041 4.77414C72.5714 4.35594 76.2185 2.95635 76.5377 2.424C76.3736 2.08562 75.2477 2.1737 74.8963 2.16184C74.8499 2.16028 74.3129 1.67904 74.2605 1.63105C74.159 1.6426 74.1535 1.62364 74.0456 1.5826L74.0731 1.39737Z" fill="var(--fill-0, #1E1E20)"/>
<path id="Vector_34" d="M23.754 38.8082C23.8612 38.8722 23.8118 38.8348 23.8809 38.9602C23.7412 39.2788 18.3211 42.1055 17.6215 42.4683C17.556 42.377 17.5651 42.3761 17.5532 42.2625C19.0788 41.1766 21.9784 39.9759 23.754 38.8082Z" fill="var(--fill-0, #47464C)"/>
<path id="Vector_35" d="M16.9511 35.3316L16.9746 35.4103C16.9209 35.4929 10.0851 38.8114 9.77779 38.8467C9.74366 38.6666 9.73857 38.7397 9.84011 38.5541L14.1123 36.5987C14.7992 36.2772 16.2913 35.4342 16.9511 35.3316Z" fill="var(--fill-0, #1E1E20)"/>
<path id="Vector_36" d="M34.7114 45.0287C34.739 45.1179 34.7695 45.1678 34.7445 45.2626C34.6 45.8127 29.518 48.6817 28.6971 49.1143L28.687 48.9322C28.9791 48.6193 29.5138 48.3732 29.8636 48.1347C30.9925 47.3652 33.8768 45.9475 34.7114 45.0287Z" fill="var(--fill-0, #333336)" fill-opacity="0.988235"/>
<path id="Vector_37" d="M84.4679 5.12937C84.8092 5.08622 86.5409 5.74107 86.7883 5.94416C86.6787 6.48369 83.6638 7.63142 83.1064 8.18811C82.8998 8.23555 82.8183 8.24858 82.607 8.26114L82.5803 8.19701C83.2466 7.69969 86.0062 6.53332 86.1604 5.99223C85.9647 5.73803 84.8413 5.67865 84.4679 5.12937Z" fill="var(--fill-0, #1E1E20)" fill-opacity="0.984314"/>
<path id="Vector_38" d="M32.0071 50.1159C32.7422 49.6707 37.0808 46.9041 37.6084 47.0013C37.5227 47.1514 32.2636 50.2822 31.9799 50.3438L32.0071 50.1159Z" fill="var(--fill-0, #222224)"/>
<path id="Vector_39" d="M25.3083 39.5866C25.3931 39.6191 25.3818 39.632 25.4522 39.7121L25.3676 39.8651C24.9332 40.1509 24.0367 40.615 23.5541 40.8568C22.735 41.2671 20.9947 42.538 20.2191 42.6552L20.1613 42.6914L20.085 42.6451C20.2232 42.4084 24.6469 39.9563 25.3083 39.5866Z" fill="var(--fill-0, #1E1E20)"/>
<path id="Vector_40" d="M91.1523 7.30778L91.2204 7.44089C91.0223 7.70476 89.7588 7.99907 89.3705 8.21597C88.1132 8.91834 86.513 9.54299 85.3488 10.3487L85.2517 10.2214C85.5203 9.66775 90.2903 7.56128 91.1523 7.30778Z" fill="var(--fill-0, #1E1E20)"/>
<path id="Vector_41" d="M36.2386 45.9722L36.357 46.1092C36.1849 46.5416 32.1939 48.6456 31.4547 49.1434L31.3293 49.0696L31.3307 48.9548C32.2282 48.2328 32.8354 48.0313 33.7782 47.5161C34.6249 47.0448 35.4461 46.5295 36.2386 45.9722Z" fill="var(--fill-0, #333336)"/>
<path id="Vector_42" d="M40.9567 50.2785L41.0596 50.3624C40.962 50.7266 37.3846 52.9151 36.8474 53.2669C36.7567 53.3006 36.8062 53.2935 36.6941 53.2523C36.8223 52.9241 40.4515 50.5551 40.9567 50.2785Z" fill="var(--fill-0, #222224)"/>
<path id="Vector_43" d="M7.17893 33.6541C7.26813 33.6585 7.29656 33.6797 7.3852 33.7132C7.1618 34.1726 4.03736 35.2073 3.45253 35.5399C3.36704 35.7095 3.29569 35.851 3.23849 35.9645C3.14457 35.9936 3.07467 35.9602 2.97754 35.9328L2.92194 35.8176C3.15497 35.2545 6.42756 33.9829 7.17893 33.6541Z" fill="var(--fill-0, #1E1E20)"/>
<path id="Vector_44" d="M26.7114 39.9443L26.9396 40.0866C26.8484 40.1257 26.8875 40.1152 26.8354 40.1573C25.6957 41.0779 23.5862 42.3748 22.2894 42.9171C23.1177 41.9528 25.7036 41.0025 26.7114 39.9443Z" fill="var(--fill-0, #333336)" fill-opacity="0.980392"/>
<path id="Vector_45" d="M20.0801 38.9732L20.2265 39.0204C20.1869 39.1461 20.0686 39.242 19.95 39.3005C18.5607 39.9846 17.1631 40.7361 15.81 41.4899L15.6937 41.4415L15.6956 41.2947C16.0127 41.0184 19.5591 39.2298 20.0801 38.9732Z" fill="var(--fill-0, #1E1E20)" fill-opacity="0.988235"/>
<path id="Vector_46" d="M42.9411 52.5967C43.0985 52.6008 43.1693 52.6733 43.2888 52.7773C43.4361 52.9057 43.4179 52.6025 43.7331 52.6554L43.7274 52.7823C43.5838 52.9345 43.5209 53.0292 43.3118 53.0725L43.1053 52.9108C42.7026 52.9847 42.817 53.2417 42.7281 53.2839C42.1702 53.549 41.5909 53.9356 41.0906 54.2714C41.0369 54.3206 40.9821 54.3685 40.9261 54.4151C40.7268 54.58 40.4989 54.7292 40.2325 54.7052C40.3479 54.345 42.4179 53.0919 42.9411 52.5967Z" fill="var(--fill-0, #55555C)"/>
<path id="Vector_47" d="M74.1129 2.46095C74.2026 2.43926 74.2302 2.44768 74.326 2.44924C74.1748 2.87384 70.6028 4.28505 69.9396 4.66776C69.813 4.66144 69.8328 4.65605 69.7125 4.60487C69.8131 4.42362 73.6313 2.65085 74.1129 2.46095Z" fill="var(--fill-0, #1E1E20)"/>
<path id="Vector_48" d="M71.8628 0.682104C72.0537 0.764184 72.1466 0.795783 72.3133 0.929281L72.239 1.03001C71.6434 1.01784 69.2296 2.30429 68.692 2.70166C68.5488 2.72148 68.4111 2.72904 68.2671 2.73895L68.1826 2.6511C68.9624 2.19903 71.3651 1.19565 71.8628 0.682104Z" fill="var(--fill-0, #1E1E20)" fill-opacity="0.988235"/>
<path id="Vector_49" d="M43.0559 56.9722C43.0732 56.9309 43.1469 56.7726 43.1666 56.7604C43.7293 56.4115 46.0298 54.4777 46.5072 54.411L46.4636 54.6188C45.7832 55.152 43.7758 56.7843 43.0559 56.9722Z" fill="var(--fill-0, #1E1E20)" fill-opacity="0.980392"/>
<path id="Vector_50" d="M70.1073 0.199259L70.1892 0.262841C69.8361 0.825568 67.0602 2.01464 66.2616 2.36887C66.1648 2.25417 66.1891 2.31886 66.1868 2.16866C67.0458 1.68624 68.2133 1.21147 69.096 0.71142C69.4592 0.505673 69.7429 0.501615 70.1073 0.199259Z" fill="var(--fill-0, #1E1E20)" fill-opacity="0.984314"/>
<path id="Vector_51" d="M72.616 1.83475L72.7248 1.90942C72.5628 2.23399 69.5185 3.59253 68.933 3.93225L68.8472 3.82216C69.0376 3.46731 71.9966 2.14427 72.616 1.83475Z" fill="var(--fill-0, #1E1E20)" fill-opacity="0.976471"/>
<path id="Vector_52" d="M87.0847 7.53345C87.1059 7.61116 87.0863 7.63113 87.0667 7.72476C86.8287 7.99074 84.2225 9.06029 83.5868 9.46023L83.5704 9.28296C83.8585 8.90861 86.5109 7.77103 87.0847 7.53345Z" fill="var(--fill-0, #1E1E20)"/>
<path id="Vector_53" d="M82.0013 5.96608L82.0295 6.07812C81.8753 6.38826 78.9262 7.67994 78.4126 7.94413L78.3962 7.78847C78.4964 7.65825 81.6717 6.0214 82.0013 5.96608Z" fill="var(--fill-0, #1E1E20)" fill-opacity="0.988235"/>
<path id="Vector_54" d="M15.4673 36.6282C15.8419 36.2557 16.7749 35.615 17.2564 36.0289L17.2776 36.1716C17.0716 36.3201 16.0914 36.8423 15.7956 36.866C15.7785 36.8674 15.6034 36.7977 15.5685 36.7833L15.4673 36.6282Z" fill="var(--fill-0, #1E1E20)" fill-opacity="0.0156863"/>
<path id="Vector_55" d="M6.76826 35.0703C6.87008 35.0512 6.91134 35.0782 7.01099 35.1122C6.92897 35.5084 5.03747 35.8398 4.40123 36.745C4.33146 36.7048 4.2656 36.6392 4.20345 36.5845C4.30521 35.9548 6.11382 35.4502 6.70598 35.1069L6.76826 35.0703Z" fill="var(--fill-0, #1E1E20)"/>
<path id="Vector_56" d="M12.4954 40.7726C13.0103 40.7968 14.5238 41.7161 15.0671 42.0152C15.1556 42.064 15.1357 42.1456 15.1428 42.2564C14.4683 42.0901 13.1232 41.2714 12.4779 40.8876L12.4954 40.7726Z" fill="var(--fill-0, #1E1E20)"/>
<path id="Vector_57" d="M35.0647 47.3861C35.279 47.339 35.5195 47.3607 35.6796 47.5147C35.3952 47.8893 35.078 47.7134 34.6903 48.3344C34.515 48.4048 34.2972 48.3946 34.1137 48.366L34.0901 48.2332C34.4036 47.8158 34.6372 47.6954 35.0647 47.3861Z" fill="var(--fill-0, #000001)" fill-opacity="0.0235294"/>
<path id="Vector_58" d="M13.3921 33.9962L13.4739 34.0538C13.3592 34.2284 11.2373 35.1576 10.9831 35.2224L10.8879 35.1657L10.9333 35.0413C11.7193 34.5765 12.498 34.1981 13.3921 33.9962Z" fill="var(--fill-0, #1E1E20)"/>
<path id="Vector_59" d="M77.7082 2.67917L77.85 2.63119C78.4491 2.87462 79.106 3.12172 79.661 3.4438C79.8325 3.40502 79.8748 3.38458 80.0454 3.4083L80.1088 3.53423C79.9147 3.65789 79.8528 3.7033 79.625 3.77626C79.2336 3.45854 78.1624 3.01475 77.6904 2.81165L77.7082 2.67917Z" fill="var(--fill-0, #1E1E20)"/>
<path id="Vector_60" d="M80.7583 5.28368L80.8664 5.33556L80.7716 5.50534C80.1962 5.81392 78.8927 6.52222 78.2954 6.6547L78.2613 6.59291L78.3909 6.36266C78.8356 6.23189 80.2831 5.52765 80.7583 5.28368Z" fill="var(--fill-0, #1E1E20)"/>
<path id="Vector_61" d="M15.1396 42.2315C15.6603 42.2167 17.4104 43.0805 17.6337 43.5552C17.2695 43.5089 15.4049 42.5586 15.1396 42.2315Z" fill="var(--fill-0, #1E1E20)" fill-opacity="0.984314"/>
<path id="Vector_62" d="M17.1498 40.0139C16.568 40.4202 16.6864 40.079 16.0538 40.3199L16.4145 40.3544L16.4612 40.4302C16.2563 40.5892 16.2403 40.5278 15.8988 40.4944L15.7498 40.7607C15.5379 40.8352 15.6289 40.829 15.4032 40.7768L15.383 40.6585C15.8854 40.4297 15.5965 40.5958 15.7856 40.2578C15.9056 40.0431 16.6348 39.8665 16.8919 39.8393L17.0152 39.8264L17.1498 40.0139Z" fill="var(--fill-0, #010001)" fill-opacity="0.0392157"/>
<path id="Vector_63" d="M77.1782 3.73641L77.2486 3.7908C76.8663 4.231 75.6044 4.6695 74.9743 5.13147C74.9284 5.1044 74.8645 5.03223 74.8238 4.99103L74.8775 4.8342C75.6486 4.47389 76.4038 4.0915 77.1782 3.73641Z" fill="var(--fill-0, #1E1E20)" fill-opacity="0.988235"/>
<path id="Vector_64" d="M16.5179 34.1262L16.6788 34.1624L16.6927 34.2786C16.4577 34.5026 15.1696 35.0646 14.8332 35.202L14.6266 35.1376C14.7521 34.9096 16.1871 34.2823 16.5179 34.1262Z" fill="var(--fill-0, #1E1E20)"/>
<path id="Vector_65" d="M22.3689 37.636L22.4486 37.7606C22.3163 38.0923 20.9354 38.7688 20.5457 38.9805L20.468 38.9155L20.4787 38.8028C20.7424 38.568 21.9471 37.9043 22.3689 37.636Z" fill="var(--fill-0, #1E1E20)" fill-opacity="0.988235"/>
<path id="Vector_66" d="M9.0195 33.5647L9.04659 33.572L9.08229 33.6514C8.77743 33.9127 8.03386 34.3065 7.65461 34.456C7.58169 33.8066 8.53842 33.6049 9.0195 33.5647Z" fill="var(--fill-0, #000001)" fill-opacity="0.0117647"/>
<path id="Vector_67" d="M49.1695 55.9673L49.2938 56.0071L49.2901 56.1426C48.7484 56.5551 48.1955 56.9506 47.6533 57.366L47.5768 57.3439L47.5628 57.2257C47.9001 56.7993 48.6988 56.2546 49.1695 55.9673Z" fill="var(--fill-0, #1E1E20)" fill-opacity="0.976471"/>
<path id="Vector_68" d="M74.3627 5.02139C74.5632 4.99353 74.5124 4.96888 74.6426 5.05689C74.4738 5.36633 73.5411 5.73561 73.0785 6.03108C73.0414 6.03015 72.9086 5.99886 72.864 5.9895L72.8629 5.86107C73.3234 5.50107 73.8866 5.49389 74.3627 5.02139Z" fill="var(--fill-0, #1E1E20)" fill-opacity="0.968627"/>
<path id="Vector_69" d="M4.00641 35.466C4.29796 35.46 4.4141 35.4012 4.57984 35.557L4.53597 35.7069C4.33859 35.8673 4.29976 35.8848 4.06951 35.9859C3.91961 36.1493 3.89459 36.1875 3.687 36.2592L3.59642 36.1718C3.64926 35.8367 3.78044 35.7264 4.00641 35.466Z" fill="var(--fill-0, #1E1E20)" fill-opacity="0.0235294"/>
<path id="Vector_70" d="M16.2601 38.9396L16.2107 39.0631C15.992 39.312 15.2514 39.6808 14.9356 39.6072L14.8794 39.5029C15.042 39.3308 15.1994 39.3339 15.4593 39.259L15.3813 39.0624L15.5135 38.9942C15.809 39.0135 15.9147 39.0279 16.2021 38.9548L16.2601 38.9396Z" fill="var(--fill-0, #1E1E20)" fill-opacity="0.207843"/>
<path id="Vector_71" d="M14.8628 33.1815C15.0392 33.22 15.0459 33.2304 15.1942 33.3395C15.1344 33.426 14.4389 33.7149 14.1687 33.8819C13.9622 33.9435 13.8706 33.994 13.6654 33.935C13.7851 33.7455 14.605 33.3246 14.8628 33.1815Z" fill="var(--fill-0, #47464C)"/>
<path id="Vector_72" d="M79.8833 6.34089L80.0531 6.38326C79.8645 6.68864 79.5137 7.01969 79.1403 6.87863C79.1568 6.8166 79.1732 6.7612 79.192 6.69996C79.0323 6.75122 78.9869 6.76081 78.8201 6.7779C78.9454 6.47181 79.4574 6.5965 79.8833 6.34089Z" fill="var(--fill-0, #1E1E20)" fill-opacity="0.0705882"/>
<path id="Vector_73" d="M72.4728 0.752324C72.6983 0.793131 73.2814 1.10007 73.482 1.25027C73.7082 1.41966 73.6723 1.49113 73.6986 1.73269C73.6188 1.69438 73.5409 1.65224 73.4652 1.60629C73.2249 1.45929 72.5317 0.996927 72.4728 0.752324Z" fill="var(--fill-0, #1E1E20)" fill-opacity="0.988235"/>
<path id="Vector_74" d="M14.9221 36.9332L14.8891 37.1276C14.4902 37.2968 13.7221 37.8657 13.2946 37.68C13.7614 37.3698 14.3246 37.2842 14.9221 36.9332Z" fill="var(--fill-0, #1E1E20)" fill-opacity="0.537255"/>
<path id="Vector_75" d="M72.3103 2.6912L72.4191 2.71008C72.3359 2.89625 71.4063 3.34394 71.1714 3.46558L71.014 3.48064L70.96 3.37562C71.1624 3.18181 72.0078 2.8286 72.3103 2.6912Z" fill="var(--fill-0, #1E1E20)" fill-opacity="0.282353"/>
<path id="Vector_76" d="M14.2708 38.4055L14.4717 38.4712L14.4583 38.5979C14.1948 38.8148 13.7853 38.9332 13.4563 39.0521C13.3572 39.0356 13.3644 39.0349 13.2872 38.9696C13.4191 38.7922 13.9807 38.5773 14.2708 38.4055Z" fill="var(--fill-0, #1E1E20)" fill-opacity="0.588235"/>
<path id="Vector_77" d="M78.6991 5.19516L78.8518 5.15584L78.9277 5.2298L78.8839 5.33303C78.5277 5.6051 78.3688 5.65394 77.9596 5.80889L77.8751 5.87654L77.8421 5.77636C78.1223 5.47862 78.3429 5.38398 78.6991 5.19516Z" fill="var(--fill-0, #06041A)"/>
<path id="Vector_78" d="M14.5174 39.6667C14.6486 39.6576 14.5835 39.6477 14.7127 39.7209C14.5539 39.9638 14.0543 40.164 13.7352 40.3515C13.5568 40.2885 13.6147 40.3447 13.5305 40.21C13.7035 39.9857 14.0958 39.9589 14.4637 39.7044L14.5174 39.6667Z" fill="var(--fill-0, #1E1E20)" fill-opacity="0.411765"/>
<path id="Vector_79" d="M17.0161 39.8265C17.3694 39.7136 17.8364 39.4288 18.068 39.4826C18.069 39.4862 18.0701 39.4899 18.0712 39.4935C17.8756 39.8131 17.5209 39.9885 17.1508 40.0141L17.0161 39.8265Z" fill="var(--fill-0, #1E1E20)" fill-opacity="0.215686"/>
<path id="Vector_80" d="M71.8715 1.58087C71.9595 1.61021 71.9204 1.58485 71.9734 1.68012C71.7731 1.89499 71.1801 2.04769 70.8423 2.22511L70.7932 2.25125L70.729 2.23635L70.6759 2.14857C70.7963 1.99494 71.562 1.74449 71.8715 1.58087Z" fill="var(--fill-0, #1E1E20)" fill-opacity="0.270588"/>
<path id="Vector_81" d="M77.0483 4.42962C77.1212 4.43493 77.2006 4.5369 77.2547 4.59292L77.213 4.67321C76.946 4.67906 76.9002 4.69545 76.669 4.82957L76.6117 4.86327C76.5452 4.95604 76.526 4.93459 76.3878 4.97649L76.3175 4.87826C76.467 4.64575 76.7863 4.54424 77.0483 4.42962Z" fill="var(--fill-0, #1E1E20)" fill-opacity="0.141176"/>
<path id="Vector_82" d="M65.7665 1.82166C66.01 1.6454 66.4217 1.40041 66.7277 1.44637C66.6061 1.71211 66.0701 1.87042 65.7906 1.89188L65.7665 1.82166Z" fill="var(--fill-0, #1E1E20)" fill-opacity="0.329412"/>
<path id="Vector_83" d="M16.261 38.9397C16.484 38.8059 16.7828 38.5879 17.0303 38.6027C16.9812 38.8746 16.4579 38.9872 16.2116 39.0632L16.261 38.9397Z" fill="var(--fill-0, #1E1E20)" fill-opacity="0.407843"/>
<path id="Vector_84" d="M29.8645 49.1122C29.9167 49.0818 29.8851 49.0901 29.9625 49.1078C29.8434 49.4108 29.6663 49.4657 29.3747 49.4821C29.1964 49.3874 29.2431 49.4427 29.1544 49.2793C29.3645 49.1447 29.5067 49.3232 29.8645 49.1122Z" fill="var(--fill-0, #1E1E20)" fill-opacity="0.113725"/>
<path id="Vector_85" d="M69.8485 1.20134L69.9347 1.17965L69.8963 1.28748C69.6315 1.48223 69.485 1.48379 69.1558 1.53466L69.0932 1.43752C69.2519 1.26587 69.5991 1.24449 69.8485 1.20134Z" fill="var(--fill-0, #1E1E20)" fill-opacity="0.176471"/>
<path id="Vector_86" d="M19.8812 38.3634L19.9226 38.4329C19.8508 38.6666 19.5972 38.8065 19.3852 38.9621C19.31 38.8614 19.3211 38.8569 19.2853 38.7357C19.4433 38.5128 19.5961 38.4987 19.8812 38.3634Z" fill="var(--fill-0, #1E1E20)" fill-opacity="0.490196"/>
<path id="Vector_87" d="M68.4743 0.43543L68.5474 0.444559C68.5403 0.635092 68.2236 0.86448 68.0489 1.03028C67.9994 1.01319 67.9028 0.9521 67.8526 0.922919C67.8802 0.758212 68.2416 0.607549 68.4743 0.43543Z" fill="var(--fill-0, #1E1E20)" fill-opacity="0.145098"/>
<path id="Vector_88" d="M9.56457 37.7059L9.67214 37.7545C9.686 38.0915 9.62532 38.1945 9.49286 38.5088C9.36314 38.4842 9.42045 38.5151 9.3319 38.3888C9.404 38.1417 9.47431 37.9468 9.56457 37.7059Z" fill="var(--fill-0, #1E1E20)" fill-opacity="0.168627"/>
<path id="Vector_89" d="M10.9934 37.3011C11.1246 37.3149 11.2337 37.3461 11.361 37.3777L11.3225 37.4651L10.9085 37.5996L10.8538 37.6982L10.7266 37.7127C10.7281 37.4942 10.7961 37.5022 10.9934 37.3011Z" fill="var(--fill-0, #1E1E20)" fill-opacity="0.235294"/>
<path id="Vector_90" d="M15.468 36.628L15.5692 36.7831C15.3473 36.9077 15.1282 37.0419 14.8891 37.1274L14.9221 36.933C15.1049 36.8056 15.2706 36.728 15.468 36.628Z" fill="var(--fill-0, #1E1E20)" fill-opacity="0.682353"/>
<path id="Vector_91" d="M65.7895 1.89176L65.5775 2.18817L65.3918 2.18997L65.3305 2.05788C65.4534 1.86282 65.4921 1.90557 65.7655 1.82154L65.7895 1.89176Z" fill="var(--fill-0, #1E1E20)" fill-opacity="0.109804"/>
<path id="Vector_92" d="M12.447 37.9691L12.4404 38.1465C12.2852 38.337 12.0486 38.3862 11.8058 38.4726L11.8318 38.3412L12.447 37.9691Z" fill="var(--fill-0, #1E1E20)" fill-opacity="0.380392"/>
<path id="Vector_93" d="M10.3001 37.4407L10.4301 37.5179L10.461 37.6673L10.1777 37.9884L10.1717 38.012L10.11 38.0108C10.1104 37.8165 10.2185 37.625 10.3001 37.4407Z" fill="var(--fill-0, #1E1E20)" fill-opacity="0.25098"/>
<path id="Vector_94" d="M64.9018 2.28848L64.9265 2.30034L64.941 2.40045C64.8203 2.56063 64.6948 2.53644 64.4483 2.58989C64.3834 2.45311 64.393 2.52404 64.429 2.36924C64.5957 2.34747 64.7367 2.32078 64.9018 2.28848Z" fill="var(--fill-0, #1E1E20)" fill-opacity="0.12549"/>
<path id="Vector_95" d="M81.64 6.91826L81.698 6.98412C81.5437 7.18362 81.366 7.19517 81.121 7.24869L81.0364 7.21428L81.0145 7.14001C81.2008 6.99738 81.4114 6.96929 81.64 6.91826Z" fill="var(--fill-0, #1E1E20)" fill-opacity="0.25098"/>
<path id="Vector_96" d="M78.1167 6.99208C78.2592 7.03336 78.2523 7.02532 78.347 7.13822L78.2381 7.50384L78.1033 7.51843L78.0204 7.41957L78.1167 6.99208Z" fill="var(--fill-0, #1E1E20)" fill-opacity="0.0313725"/>
<path id="Vector_97" d="M29.9288 44.2524L29.9529 44.259L29.9824 44.3492L29.7454 44.7486L29.612 44.6294L29.6203 44.4932L29.9288 44.2524Z" fill="var(--fill-0, #1E1E20)" fill-opacity="0.0901961"/>
<path id="Line 23" d="M105.996 25.8124L105.951 25.7229L105.947 25.7255L105.996 25.8124ZM107.845 23.3542L107.75 23.3225L107.845 23.3542ZM96.1277 6.76041L96.0905 6.66766L96.1277 6.76041ZM105.996 25.8124L105.947 25.7255L55.5304 54.2645L55.5799 54.3514L55.6294 54.4382L106.046 25.8993L105.996 25.8124ZM105.996 25.8124L106.041 25.9018C106.476 25.6849 107.439 24.8855 107.94 23.386L107.845 23.3542L107.75 23.3225C107.265 24.7729 106.338 25.5303 105.951 25.7231L105.996 25.8124ZM107.845 23.3542L107.94 23.386C108.565 21.5195 108.562 19.0408 107.942 16.5696L107.845 16.5937L107.748 16.6178C108.361 19.0632 108.359 21.5015 107.75 23.3225L107.845 23.3542ZM107.845 16.5937L107.942 16.5696C107.63 15.3264 106.699 13.3191 105.618 11.5483C105.076 10.6619 104.495 9.83109 103.931 9.18213C103.371 8.5372 102.816 8.05757 102.326 7.89474L102.295 7.9895L102.263 8.08425C102.698 8.22872 103.222 8.67096 103.78 9.31281C104.334 9.95064 104.909 10.7715 105.447 11.6521C106.524 13.4151 107.443 15.4026 107.748 16.6178L107.845 16.5937ZM102.295 7.9895L102.326 7.89474C101.874 7.74449 101.457 7.51852 101.033 7.27848C100.612 7.03975 100.182 6.78631 99.712 6.59135C98.764 6.19773 97.6577 6.0429 96.0905 6.66766L96.1277 6.76041L96.165 6.85317C97.6812 6.24876 98.7332 6.40118 99.6353 6.77575C100.091 6.96488 100.508 7.21077 100.935 7.45217C101.359 7.69226 101.79 7.92721 102.263 8.08425L102.295 7.9895ZM96.1277 6.76041L96.0905 6.66766C93.4186 7.73279 88.2754 9.94702 86.2162 10.9731L86.2611 11.0625L86.3059 11.1519C88.3578 10.1294 93.4951 7.91751 96.165 6.85317L96.1277 6.76041Z" fill="var(--stroke-0, black)"/>
<line id="Line 24" y1="-0.1" x2="62.4941" y2="-0.1" transform="matrix(-0.926708 0.375782 -0.377971 -0.925818 62.7748 2.45833)" stroke="var(--stroke-0, black)" stroke-width="0.2"/>
</g>
<defs>
<clipPath id="clip0_19293_904">
<rect width="111" height="59" fill="white"/>
</clipPath>
</defs>
</svg>
