<svg preserveAspectRatio="none" width="100%" height="100%" overflow="visible" style="display: block;" viewBox="0 0 89 52" fill="none" xmlns="http://www.w3.org/2000/svg">
<g id="A single realistic rolled carpet isolated on a transparent background, high-quality, e-commerce style. [Vectorized]" clip-path="url(#clip0_19293_1109)">
<path id="Vector" d="M4.78803 52.0002C4.55975 51.4096 5.00042 46.4575 5.0801 45.5573C5.39507 41.5917 5.77912 37.6321 6.23214 33.68C6.3579 32.6242 6.55153 31.5669 6.68814 30.5125C6.93481 28.5135 7.21995 26.5194 7.54343 24.5315C7.77691 23.1806 8.09418 21.8506 8.32125 20.4933C8.60043 18.8247 9.06472 17.1368 9.50279 15.5039C9.76102 14.7047 9.9543 13.3974 10.3738 12.6919C10.9626 11.7017 13.4071 11.337 14.3946 11.068L22.3871 8.9548C24.0287 8.49701 25.6653 8.02099 27.2964 7.52678C29.017 6.98825 29.2567 6.96961 30.7134 5.88513C31.4231 5.36198 32.1271 4.83097 32.8251 4.29216C33.377 3.86208 34.0434 3.38395 34.5075 2.8632C34.7964 2.53907 34.871 1.45391 35.2767 1.32651C35.683 1.62599 35.2825 3.95987 35.6247 4.48817C36.4986 5.83729 38.1343 6.45921 39.3944 7.49428C40.0545 7.92075 41.9148 8.79977 42.6715 8.9839C43.2814 9.22044 43.7988 9.39193 44.4254 9.58602C44.9957 9.44236 45.7091 9.08191 46.0494 9.0097C46.5581 8.74858 47.0409 8.52372 47.5597 8.28571C48.0256 8.10132 48.7552 7.67364 49.2306 7.43345C50.1733 6.95712 51.0897 6.48689 52.0715 6.088C54.8205 4.6543 53.3756 2.05606 54.2048 1.51239C54.7467 1.49335 54.524 3.08176 55.1134 3.52886C56.6346 4.6823 58.2128 5.87964 59.8825 6.80112C60.0532 6.89461 61.2522 7.24038 61.5239 7.32259C62.59 7.64851 63.6582 7.9662 64.7294 8.27566L74.9282 11.1136C75.8454 11.3664 77.515 11.7171 78.3145 12.2074C78.8221 12.5185 79.1443 13.9833 79.3362 14.622C80.5493 18.654 81.2513 22.887 81.871 27.0491C81.9942 27.8791 82.1927 28.6706 82.3079 29.4924C83.1195 35.583 83.7109 41.7012 84.08 47.8349C84.1508 48.9023 84.3735 50.6126 84.3275 51.6112C84.3215 51.7427 84.3028 51.8727 84.271 52.0002H83.7952H71.4126H70.3985H48.8166H44.2468H44.1648H39.8736H18.2771H17.3811H5.14185H4.78803ZM51.8917 6.65492C50.9142 7.05828 50.0886 7.4885 49.1533 7.98153C48.7525 8.19283 48.112 8.55033 47.7154 8.7076C47.5789 8.76798 46.6981 9.1497 46.6157 9.21288C46.2047 9.40899 45.6284 9.59927 45.1859 9.76893C45.6241 10.4481 46.5735 11.2938 47.1516 11.8955C48.2908 13.0811 49.4988 14.5094 51.0135 15.2055C51.8963 13.3098 53.424 12.2504 53.8437 10.0837C54.2326 8.07248 54.7053 6.30737 54.4094 4.21118C53.3508 5.70648 53.7291 5.72598 51.8917 6.65492ZM43.5964 9.75801C43.3552 9.67438 42.6201 9.4354 42.4315 9.33318C41.317 8.87259 40.3105 8.67353 39.3349 7.9339C38.7907 7.60641 38.2735 7.17751 37.7369 6.84753C36.7958 6.26888 36.1793 5.86136 35.4408 5.02099C35.2866 4.76867 35.1983 4.54621 35.0271 4.28978L34.9694 4.305L34.9649 4.47098C34.8141 5.94373 35.2844 10.3128 35.899 11.7263C36.1625 12.3323 37.626 14.2972 38.0577 15.0492C39.7514 14.4541 42.2408 11.1793 43.5964 9.75801ZM42.9779 14.9035C42.8202 14.6354 41.8098 12.6964 41.709 12.6311C40.3332 13.8135 39.787 15.0398 37.809 15.5229C37.4747 14.9955 36.3349 13.235 35.9381 12.8597C36.2172 14.4298 36.4108 15.9215 36.6641 17.4689L38.0222 25.6645C38.1599 26.5198 38.3774 27.3578 38.5536 28.205C38.6283 28.5641 38.7805 29.1613 38.8001 29.5142C39.1085 30.5679 39.4604 32.864 39.7812 33.5748L39.8449 33.5895C39.9271 33.4363 40.3759 28.3094 40.4579 27.6306C40.8171 24.5556 41.3468 21.5032 42.0448 18.4876C42.2773 17.443 42.8508 15.775 42.9779 14.9035ZM48.9027 29.617C48.9133 30.0901 49.0512 33.8665 49.175 34.1447L49.2433 34.1334C49.4329 33.7277 49.4971 32.9713 49.617 32.5057C50.3583 29.6279 50.8479 26.7609 51.3635 23.8405L52.3008 18.6413L53.0266 14.5513C53.1185 14.0084 53.2483 13.4404 53.3059 12.8968C53.2867 12.8475 53.2821 12.816 53.2478 12.7826C52.8751 13.2254 52.6433 13.5233 52.3109 14.0041C51.9569 14.5167 51.6019 15.298 51.1574 15.6798C50.0322 15.2434 49.5627 14.9066 48.6123 14.1179C48.3341 13.8871 47.9296 13.3003 47.6806 13.2973C47.3317 13.5083 46.6467 15.0144 46.4796 15.4346C46.9177 16.4328 47.0551 17.9048 47.3314 18.9714C47.7974 20.7708 48.0779 22.5154 48.3172 24.3558C48.54 26.0701 48.8598 27.8854 48.9027 29.617Z" fill="var(--fill-0, #202020)"/>
<path id="Vector_2" d="M60.2576 7.4176C60.8369 7.69127 62.1197 8.02992 62.7777 8.22843C64.9959 8.89158 67.2241 9.51792 69.4625 10.1072L74.1553 11.4082C75.0826 11.6676 75.9825 11.9487 76.927 12.15C76.5962 14.2462 76.2361 16.3377 75.8472 18.4238C75.6972 19.2349 75.4977 20.0312 75.3523 20.8447L74.025 28.1723C73.7912 29.5025 73.5937 30.8433 73.3442 32.171L71.9089 40.1271C71.5569 42.0867 71.1241 43.9916 70.9372 45.9896C70.7816 47.6544 70.8044 49.3476 70.8427 51.0196C70.8493 51.3136 70.8634 51.6005 70.8392 51.8925C70.6897 51.9372 70.5508 51.9666 70.3983 52.0001H48.8164L48.7676 51.9925C48.3336 51.9296 45.949 51.8772 45.4715 51.9219L45.3848 51.8783C45.458 51.6167 47.4272 49.1226 47.7719 48.6341C49.6048 46.0364 51.4643 43.3456 53.0456 40.5824C55.1355 37.0086 57.0592 33.3394 58.8111 29.5868C59.3899 28.3529 60.0561 26.9537 60.5692 25.6935C61.3934 23.6752 62.1742 21.6396 62.9121 19.5878C63.1358 18.9566 63.554 17.3972 63.7691 16.9101C62.4985 16.3705 60.9359 15.7389 59.6293 15.2948C61.0646 14.6592 61.9136 14.2737 63.2954 13.5198C63.0404 12.4633 60.9323 8.35782 60.2576 7.4176Z" fill="var(--fill-0, #D9C1B2)"/>
<path id="Vector_3" d="M12.1554 12.1591C13.3922 11.8692 14.6183 11.5146 15.8426 11.1751C19.4753 10.1677 23.1482 9.29782 26.7539 8.19973C27.4288 7.99422 28.1128 7.78866 28.7924 7.60036C27.9771 8.50889 27.0301 10.7988 26.4545 11.9741C26.2218 12.4495 26.0363 13.0066 25.7602 13.4942C27.3157 14.4126 27.8383 14.6278 29.5274 15.2784C28.5762 15.6753 27.6165 16.0266 26.6706 16.4314C26.344 16.5711 25.7627 16.789 25.4781 16.9648C25.9168 18.713 26.898 21.3956 27.5281 23.064C30.1026 29.8827 33.317 36.4393 37.1278 42.6452C38.8848 45.5312 40.7601 48.2549 42.9175 50.8514C43.0595 51.0225 43.5309 51.5933 43.5659 51.7766C43.1655 52.1179 40.5799 51.8498 39.873 52.0001H18.2765C18.2164 51.6258 18.2747 50.7728 18.2724 50.3567C18.2644 48.9093 18.3995 47.1398 18.171 45.7224C17.7075 42.8485 17.139 39.9867 16.6247 37.1305L13.3174 18.7162C12.9257 16.4978 12.5001 14.4203 12.1554 12.1591Z" fill="var(--fill-0, #D9C1B2)"/>
<path id="Vector_4" d="M5.14122 52.0001C5.21704 50.1535 5.41381 48.3754 5.55561 46.5231C6.33544 36.3362 7.41123 26.0117 9.88654 16.0854C10.0734 15.3359 10.6454 12.5109 11.4909 12.3844C11.7427 12.5276 11.8952 13.89 11.9541 14.2424C12.1197 15.2545 12.2907 16.2657 12.467 17.2759L14.2132 26.9479L16.5428 39.7085C16.9353 41.9363 17.479 44.5266 17.717 46.7467C17.8234 47.7382 17.8286 50.8138 17.7585 51.8701C17.64 51.9564 17.5247 51.9681 17.3804 52.0001H5.14122Z" fill="var(--fill-0, #D9C1B2)"/>
<path id="Vector_5" d="M77.5919 12.284C77.8146 12.4784 78.1388 12.7451 78.261 13.012C78.6479 13.8979 78.8494 14.8966 79.0903 15.8361C79.362 16.8973 79.7474 18.0376 79.9317 19.1129C80.2034 20.6994 80.5847 22.2924 80.8746 23.8658C81.3731 26.5719 81.6524 29.3366 82.0776 32.0551C82.1337 32.4323 82.2009 32.8058 82.2473 33.1849C82.5504 35.8367 82.8074 38.4936 83.019 41.1544C83.1211 42.3397 84.0867 51.6008 83.7963 51.9999H71.4137C71.2167 51.2631 71.348 46.573 71.4814 45.7388C71.993 42.5338 72.6117 39.2296 73.2071 36.0335L75.7863 21.8222C76.2343 19.4299 76.5747 16.9561 77.0873 14.567C77.2333 13.8874 77.3661 12.9078 77.5919 12.284Z" fill="var(--fill-0, #D9C1B2)"/>
<path id="Vector_6" d="M54.9286 4.02973C55.6857 4.64621 56.2902 5.06309 57.0826 5.60775C57.7296 6.0528 59.124 6.92004 59.5831 7.46635C60.227 8.23345 60.9179 9.59362 61.3487 10.5108C61.7265 11.3155 62.3795 12.4255 62.6279 13.2449C61.4623 14.0302 60.2952 14.4785 59.0149 15.0152C58.9149 15.0571 58.8063 15.1449 58.7644 15.2472C58.8583 15.628 60.1118 15.9757 60.4977 16.1233C61.3754 16.4588 62.2441 16.8559 63.1183 17.1865C62.2365 19.5705 61.5194 21.9102 60.5452 24.2837C58.4588 29.345 56.0432 34.2625 53.3135 39.0041C51.5105 42.1763 49.5917 45.2824 47.4092 48.2019C46.5038 49.4131 45.6587 50.7479 44.6447 51.8771C44.5072 51.9061 44.3598 51.9218 44.2483 52H44.1663C44.0942 51.8726 44.0699 51.8243 44.1264 51.6705C44.7155 50.0676 45.4668 48.5289 46.0325 46.9131C47.4423 42.8869 48.6446 38.7462 49.6598 34.6011C49.9117 33.5725 50.2079 32.5577 50.4357 31.5283C51.1393 28.236 51.764 24.9274 52.3105 21.6052L53.6463 13.9317C54.2342 10.4606 55.2033 7.63722 54.9286 4.02973Z" fill="var(--fill-0, #D9C1B2)"/>
<path id="Vector_7" d="M52.0717 6.08785C51.8975 6.46535 51.6424 6.11136 51.8919 6.65477C50.9144 7.05812 50.0887 7.48834 49.1535 7.98138C48.7526 8.19268 48.1121 8.55018 47.7155 8.70745C47.5791 8.76783 46.6983 9.14955 46.6158 9.21272C46.4539 9.18951 46.3707 9.12771 46.2301 9.04453L46.1996 9.06088L46.0495 9.00954C46.5583 8.74843 47.0411 8.52357 47.5598 8.28556C48.0257 8.10117 48.7554 7.67349 49.2308 7.43329C50.1735 6.95697 51.0899 6.48673 52.0717 6.08785Z" fill="var(--fill-0, black)"/>
<path id="Vector_8" d="M39.3955 7.49407C40.0557 7.92053 41.9159 8.79956 42.6726 8.98369C42.6248 9.05397 42.4788 9.27858 42.4326 9.33296C41.3182 8.87238 40.3116 8.67331 39.336 7.93369C39.4565 7.6192 39.4728 7.81227 39.3955 7.49407Z" fill="var(--fill-0, black)"/>
<path id="Vector_9" d="M34.2971 3.75516C34.394 3.89067 34.3338 4.8435 34.3435 5.09635C34.4554 8.01175 35.1117 11.051 35.5747 13.9429C36.4212 19.2305 37.221 24.6332 38.3425 29.8628C39.5286 35.251 41.0188 40.5669 42.8059 45.7847C43.0558 46.5 43.9491 49.1224 44.4344 49.5938C44.2122 50.0045 43.9548 50.6047 43.7253 51.0525C41.9682 48.8775 40.4029 46.804 38.8931 44.4346C37.9112 42.8044 36.8756 41.2605 35.9139 39.5761C31.8514 32.4867 28.5668 24.9745 26.118 17.1717C27.192 16.8962 28.3875 16.1337 29.4781 15.8208C29.7464 15.7439 30.2876 15.5792 30.3819 15.3045C30.3112 15.1678 30.2504 15.1138 30.105 15.0468C28.8779 14.4812 27.5754 14.064 26.4547 13.2838C26.7842 12.4186 27.3221 11.4557 27.7149 10.5797C28.1066 9.70632 28.7797 8.42161 29.3271 7.64597C29.6128 7.2412 30.7317 6.4777 31.1506 6.15087C32.112 5.40073 33.406 4.55877 34.2971 3.75516Z" fill="var(--fill-0, #D9C1B2)"/>
<path id="Vector_10" d="M48.4783 33.4064C48.5162 33.4327 48.5376 33.4723 48.5658 33.512C48.6818 34.5217 48.7909 35.7691 48.5082 36.7411C48.1267 37.0794 46.3307 38.1225 45.7782 38.4693L43.2427 40.071C42.9611 40.2494 42.1214 40.8046 41.8567 40.9002C41.7329 40.796 41.721 40.6503 41.6796 40.4841C41.4663 39.6906 41.2529 38.8732 40.9686 38.1034C41.5649 37.6896 42.211 37.3225 42.8214 36.9259C44.6857 35.7148 46.5928 34.5839 48.4783 33.4064Z" fill="var(--fill-0, #D9C1B2)"/>
<path id="Vector_11" d="M47.9597 26.6554L47.9998 26.6634C48.1286 26.8185 48.3167 29.1549 48.3592 29.5794C45.7743 31.1418 43.2159 32.748 40.6852 34.3975C40.5874 34.4672 40.568 34.4738 40.4557 34.519C40.3698 34.4173 40.5549 31.7022 40.5664 31.3349C40.8304 31.2196 41.2713 30.8956 41.5378 30.7203L43.1346 29.6859C44.7164 28.6629 46.3589 27.6603 47.9597 26.6554Z" fill="var(--fill-0, #D9C1B2)"/>
<path id="Vector_12" d="M48.2856 30.0153C48.4051 30.1388 48.4805 32.5602 48.5147 32.9364C48.1609 33.2087 47.8107 33.3814 47.4535 33.6209C46.6403 34.1658 45.8041 34.6428 44.9773 35.1575L42.0365 37.0108C41.8309 37.1407 41.0767 37.7089 40.8939 37.6624L40.8537 37.5635C40.6302 36.9067 40.2321 35.7336 40.381 35.0611C40.4198 34.8858 47.495 30.5228 48.2856 30.0153Z" fill="var(--fill-0, #D9C1B2)"/>
<path id="Vector_13" d="M47.5203 23.0517C47.7065 23.2606 47.9381 25.6804 48.0635 26.2114C47.5688 26.431 46.3832 27.2496 45.875 27.5719L41.0676 30.6114C40.9424 30.693 40.7899 30.8098 40.6656 30.8993C40.8552 29.7583 40.7893 28.5186 41.0379 27.2514C41.4064 27.0733 43.2557 25.8184 43.7054 25.5197C44.7398 24.8328 46.6138 23.7955 47.5203 23.0517Z" fill="var(--fill-0, #D9C1B2)"/>
<path id="Vector_14" d="M46.8995 19.7944C47.0832 20.0292 47.4392 22.2389 47.4949 22.66C47.1665 22.9552 46.139 23.5748 45.7414 23.8339C44.3579 24.7356 42.9179 25.5504 41.562 26.4994L41.1589 26.766C41.2806 25.9862 41.4771 23.7258 41.6971 23.1096L46.8995 19.7944Z" fill="var(--fill-0, #D9C1B2)"/>
<path id="Vector_15" d="M48.3206 37.2619C48.4165 37.6209 47.4294 40.6728 47.2101 41.1958C45.838 42.028 44.1279 43.0906 42.8193 44.0077L42.6379 43.4566C42.3458 42.6852 42.1164 42.0734 41.9341 41.2604C42.8411 40.8399 43.3538 40.4388 44.1956 39.9056C45.11 39.3265 46.0448 38.7874 46.939 38.1689C47.3895 37.8573 47.8987 37.6193 48.3206 37.2619Z" fill="var(--fill-0, #D9C1B2)"/>
<path id="Vector_16" d="M46.1949 16.9564L46.2434 16.9541C46.3772 17.0638 46.8323 18.986 46.9365 19.3359C46.7337 19.4836 46.5293 19.6183 46.3152 19.7488C44.9756 20.566 43.6886 21.4606 42.3486 22.2769L41.732 22.6858C41.978 21.7442 42.0546 20.2305 42.4011 19.372C43.668 18.5896 44.9321 17.7541 46.1949 16.9564Z" fill="var(--fill-0, #D9C1B2)"/>
<path id="Vector_17" d="M43.7187 10.4485C43.8779 10.4963 46.3297 13.3955 46.7404 13.8236C46.5134 14.2125 46.3163 14.6223 46.07 14.9962C45.7939 15.0033 45.4735 14.9927 45.1937 14.99C43.8685 14.9922 43.6758 15.1436 43.0057 13.8746C42.7284 13.3496 42.3373 12.7383 42.0445 12.1969C42.4232 11.7467 43.299 10.8575 43.7187 10.4485Z" fill="var(--fill-0, #D9C1B2)"/>
<path id="Vector_18" d="M47.0368 41.7014L47.0739 41.7459C47.0608 41.833 47.0445 41.9197 47.025 42.0056C46.9046 42.5324 46.2536 44.737 45.9805 45.1187C45.8408 45.314 44.0781 46.4581 43.7562 46.6608C43.6949 46.4889 43.5961 46.2953 43.5162 46.1281C43.3129 45.5415 43.0889 44.9342 42.9394 44.3333C43.7794 43.7221 44.7484 43.1989 45.6087 42.6057C46.0568 42.2967 46.5679 41.9683 47.0368 41.7014Z" fill="var(--fill-0, #D9C1B2)"/>
<path id="Vector_19" d="M43.3751 15.3758C44.1583 15.3867 45.0633 15.466 45.8639 15.5036C45.9941 15.874 46.0968 16.1509 46.2587 16.5073C45.7948 16.749 44.7648 17.4649 44.2837 17.7792L42.5659 18.8888C42.8097 17.7668 43.1673 16.4492 43.3751 15.3758Z" fill="var(--fill-0, #D9C1B2)"/>
<path id="Vector_20" d="M44.3092 10.021C44.9543 10.2456 46.7122 12.1742 47.319 12.7718C47.1938 12.9513 47.0675 13.1501 46.9458 13.3338L46.902 13.3845L46.8175 13.3646C46.223 12.576 44.6068 11.1354 44.1901 10.1805C44.1783 10.1534 44.2755 10.0596 44.3092 10.021Z" fill="var(--fill-0, #D9C1B2)"/>
<path id="Vector_21" d="M45.7529 45.7557L45.7905 45.8102C45.7227 46.3263 44.8481 48.4279 44.6242 49.0016L44.4258 48.4065C44.2477 47.9284 44.0543 47.4561 43.8462 46.9905C44.2332 46.8086 45.378 46.0274 45.7529 45.7557Z" fill="var(--fill-0, #D9C1B2)"/>
</g>
<defs>
<clipPath id="clip0_19293_1109">
<rect width="89" height="52" fill="white"/>
</clipPath>
</defs>
</svg>
