<svg preserveAspectRatio="none" width="100%" height="100%" overflow="visible" style="display: block;" viewBox="0 0 73 58" fill="none" xmlns="http://www.w3.org/2000/svg">
<g id="A single realistic rolled carpet isolated on a transparent background, high-quality, e-commerce style. [Vectorized]">
<path id="Vector" d="M5.62262 20.5716C4.80981 19.0398 3.81237 18.5739 3.78556 16.5331C3.72062 14.6922 4.79506 13.1779 6.09531 11.9445C8.00163 10.1362 9.9695 8.44771 12.1507 6.94673C13.7956 5.83534 15.8747 3.86323 17.8128 3.30979C20.222 2.62184 23.4912 3.10877 26.0048 3.14354C29.4783 3.19158 32.8985 3.8456 36.3666 3.93241C38.4632 3.89301 41.0323 4.1316 43.1056 3.80234C46.9216 3.19636 50.5452 3.45615 54.3799 3.38381C56.0524 3.40685 57.9062 2.79855 59.5421 2.84919C62.337 2.93579 65.0533 4.66629 65.0206 7.62225C65.0652 8.17668 65.0597 8.61424 64.9783 9.16902C65.062 9.95143 67.3347 11.0443 67.9005 11.6168C68.571 12.0526 71.6148 13.9377 71.0429 14.9387C70.9528 14.9882 70.7815 15.0717 70.7203 15.145C70.9775 15.5503 70.9886 15.8453 70.5379 16.142C69.8944 16.4432 69.6689 16.8522 68.8598 17.2123C69.1996 17.4672 70.0352 18.001 70.1546 18.3454C70.218 18.8334 69.84 19.9093 69.4187 20.1866C69.2631 20.3949 69.0288 20.6433 69.0426 20.8868L69.2834 21.5734C69.553 22.0993 69.6209 22.7099 69.8667 23.2516C70.7637 25.2285 71.8279 26.6086 71.654 28.8982C71.6219 29.32 71.597 29.7486 71.4601 30.1528C70.8829 31.8563 68.3011 32.7723 68.1609 33.4121C67.8256 34.9428 71.2199 38.0344 69.1177 41.3196C68.523 42.2491 67.8424 42.8434 66.889 43.4054C67.0562 43.7168 67.284 44.0572 67.3482 44.4057L67.4279 44.519C67.6608 44.962 67.7884 45.2795 67.9505 45.7477C72.8317 59.8441 59.8743 57.5754 50.3523 57.0151C48.5332 56.9215 46.7121 56.8675 44.8904 56.8533C40.573 56.7834 36.2108 57.1241 31.8973 56.755C31.5928 56.7339 31.2864 56.7148 30.9813 56.7034C23.0008 56.403 15.0175 56.6468 7.05374 55.97C5.67426 55.8286 3.36782 55.5196 2.51301 54.264C1.27477 52.4451 2.33074 50.1971 2.5198 48.2819C2.77704 45.676 2.33153 43.0587 4.06956 40.8391C4.17526 40.7041 4.29145 40.3313 4.30952 40.1484C3.57 39.3109 2.54589 38.7445 2.19285 37.6057C1.91797 36.2812 1.83493 34.0625 2.22236 32.7485C2.65835 31.2697 3.50127 29.8653 3.66781 28.3103C3.82986 26.7973 3.2574 25.2657 3.73192 23.7685C4.13913 22.4447 4.9698 21.6903 5.62262 20.5716ZM67.6673 21.8139C67.7871 22.005 67.788 22.2261 67.8077 22.4442C67.9142 21.8411 67.7764 21.615 67.878 21.0702C67.9192 20.8489 68.13 20.7946 68.3381 20.6875C68.6773 20.4798 69.04 20.3118 69.4187 20.1866C69.84 19.9093 70.218 18.8334 70.1546 18.3454C70.0352 18.001 69.1996 17.4672 68.8598 17.2123C69.6689 16.8522 69.8944 16.4432 70.5379 16.142C70.9886 15.8453 70.9775 15.5503 70.7203 15.145C70.7815 15.0717 70.9528 14.9882 71.0429 14.9387C71.6148 13.9377 68.571 12.0526 67.9005 11.6168C67.3347 11.0443 65.062 9.95143 64.9783 9.16902C65.0597 8.61424 65.0652 8.17668 65.0206 7.62225C64.6423 5.88683 64.1878 4.96535 62.6411 3.96662C60.6354 2.67149 58.6815 3.00132 56.4595 3.40615C53.6162 3.9242 50.9023 3.49563 48.0686 3.48825C46.3762 3.48383 44.4563 3.97589 42.7505 4.07344C40.7145 4.21714 38.2176 4.21539 36.1525 4.17711C34.0793 4.13862 31.486 3.78246 29.381 3.57464C27.0442 3.34364 24.6971 3.22824 22.3486 3.22888C21.0028 3.22038 19.4393 3.17128 18.1367 3.48277C16.3057 3.92061 14.8503 5.32945 13.387 6.38661C11.1615 7.99435 8.89061 9.43324 6.96583 11.4098C5.27881 12.9294 3.46952 14.8422 4.07508 17.2897C4.37508 18.5022 5.6217 20.4049 6.79614 20.9053C11.2612 22.8079 16.3975 21.6799 21.136 22.1832C26.4001 22.6988 31.6797 23.1156 36.9276 23.7686C37.8179 23.8795 38.6936 24.1827 39.5697 24.2895C41.0651 24.4716 42.5693 24.6605 44.0692 24.7994C45.1337 24.898 46.222 24.9416 47.2797 25.0793C49.2273 25.3328 51.1683 25.662 53.1152 25.9224C56.4005 26.2044 59.7549 26.522 63.0506 26.3024C63.6926 26.2597 64.3309 26.1409 64.95 25.9786C65.3877 25.8639 65.6665 25.7186 66.1358 25.7174C67.0707 24.9121 67.5366 22.9822 67.6673 21.8139Z" fill="var(--fill-0, #010101)"/>
<path id="Vector_2" d="M66.1356 25.7173C65.6663 25.7185 65.3875 25.8638 64.9498 25.9785C64.3307 26.1408 63.6924 26.2597 63.0504 26.3024C59.7547 26.5219 56.4003 26.2044 53.115 25.9224C51.1681 25.662 49.2271 25.3327 47.2795 25.0792C46.2218 24.9416 45.1335 24.898 44.069 24.7993C42.5691 24.6604 41.0648 24.4716 39.5695 24.2894C38.6933 24.1827 37.8177 23.8794 36.9274 23.7686C31.6795 23.1155 26.3998 22.6988 21.1358 22.1831C16.3973 21.6798 11.261 22.8079 6.79592 20.9053C5.62148 20.4049 4.37485 18.5021 4.07485 17.2896C3.4693 14.8421 5.27858 12.9293 6.9656 11.4097C8.89038 9.43319 11.1613 7.9943 13.3868 6.38656C14.8501 5.32939 16.3054 3.92056 18.1365 3.48272C19.4391 3.17123 21.0026 3.22032 22.3484 3.22882C24.6969 3.22819 27.044 3.34359 29.3808 3.57459C31.4858 3.78241 34.0791 4.13857 36.1522 4.17706C38.2174 4.21534 40.7142 4.21709 42.7503 4.07339C44.4561 3.97584 46.376 3.48377 48.0684 3.4882C50.9021 3.49557 53.6159 3.92414 56.4593 3.40609C58.6812 3.00126 60.6352 2.67144 62.6409 3.96656C64.1876 4.9653 64.6421 5.88677 65.0203 7.62219C65.065 8.17662 65.0595 8.61418 64.9781 9.16897C65.0618 9.95138 67.3345 11.0442 67.9003 11.6167C68.5707 12.0526 71.6146 13.9376 71.0427 14.9387C70.9526 14.9882 70.7813 15.0717 70.7201 15.1449C70.9773 15.5503 70.9884 15.8452 70.5377 16.142C69.8941 16.4431 69.6687 16.8521 68.8596 17.2123C69.1994 17.4672 70.035 18.0009 70.1543 18.3454C70.2178 18.8334 69.8397 19.9093 69.4184 20.1866C69.0397 20.3117 68.6771 20.4798 68.3379 20.6874C68.1297 20.7945 67.919 20.8489 67.8777 21.0702C67.7761 21.615 67.914 21.841 67.8075 22.4442C67.7878 22.226 67.7869 22.0049 67.6671 21.8138C67.5364 22.9822 67.0705 24.9121 66.1356 25.7173ZM53.7978 15.7754L54.0207 15.5776C53.9555 15.3952 53.924 15.2467 53.785 15.1155L53.6925 15.1405C53.6231 15.4153 53.6958 15.4582 53.7978 15.7754ZM40.8975 18.55C40.8136 17.9077 40.3122 15.8092 39.6173 15.6744L39.5457 15.7669C39.8087 16.2218 40.0868 16.495 40.2154 17.0156C40.3676 17.6307 40.6365 18.299 40.7354 18.9216C40.7537 18.8228 40.8498 18.6469 40.8975 18.55Z" fill="var(--fill-0, #D9C1B2)"/>
<path id="Vector_3" d="M53.7972 15.7755C53.6952 15.4584 53.6226 15.4154 53.6919 15.1407L53.7844 15.1157C53.9234 15.2469 53.955 15.3954 54.0201 15.5778L53.7972 15.7755Z" fill="var(--fill-0, #C6C6C6)" fill-opacity="0.972549"/>
<path id="Vector_4" d="M56.5206 11.2477C56.6031 11.2095 56.8795 11.1344 57.0344 11.0676C57.2707 11.2335 58.2765 11.6333 58.727 11.9345C60.0999 12.8521 62.3102 14.3728 63.4482 15.5136L63.2532 15.6306C63.1115 15.8597 63.0912 15.9 62.8677 16.0534C62.2734 16.132 62.1676 15.611 61.7079 15.5073C61.6159 15.9836 62.0924 15.9946 61.5525 16.5044C61.3555 16.5533 61.2569 16.4888 61.064 16.4133L60.8851 16.4508L60.6925 16.7621C60.1825 16.875 59.3013 15.1208 59.0234 14.7318C58.725 14.3139 56.1766 12.9475 55.8613 12.9904C55.8928 13.4408 59.776 16.21 59.476 17.3138C59.2495 17.4967 59.156 17.5344 58.8896 17.6575C58.4377 17.1804 58.173 16.6908 57.7692 16.2587L57.5232 16.445C57.6396 16.7221 57.8528 17.1276 57.8158 17.4069C57.6938 17.6767 57.2509 17.8548 56.9549 18.0243C56.6855 17.5131 54.6625 13.8645 54.2206 13.8777C54.2222 14.3411 55.9669 17.5336 56.0307 18.0912L55.9405 18.1827C55.7121 18.2497 55.6699 18.2672 55.4308 18.2116C55.0392 17.8622 54.3082 16.1538 54.0209 15.5775C53.9558 15.3952 53.9242 15.2467 53.7852 15.1155L53.6927 15.1405C53.6234 15.4152 53.696 15.4581 53.798 15.7753C53.976 17.0688 54.2053 17.7205 54.481 18.9352L54.2538 19.0625L54.1107 18.8535C53.7975 19.0433 53.719 19.1457 53.3602 19.0088C52.8153 19.1358 52.8127 19.2308 52.3772 19.554C52.3828 18.9709 51.805 17.4736 51.5767 16.8894L51.7927 16.6604C51.6859 15.3101 50.7368 13.7638 49.7 12.9206C49.7869 12.8811 49.9433 12.8445 50.0419 12.8177C51.0259 12.6545 52.0069 12.292 52.9984 12.138C53.0565 12.104 53.2534 12.0274 53.3242 11.9978L53.3392 11.9688C53.5618 11.8972 53.7368 12.0281 54.0664 12.0571C54.2878 11.9575 54.3963 11.9149 54.6385 11.8836C54.959 11.6488 54.9884 11.6658 55.3856 11.6178C55.5964 11.6509 56.5093 12.2038 56.7674 12.3453C57.8471 12.9374 58.9477 13.3844 59.7403 14.3614C60.2103 14.941 60.6416 15.7441 61.2234 16.254C61.3356 16.3524 61.443 16.3081 61.5699 16.2834C62.1555 15.5094 58.7451 12.8251 58.177 12.3147C57.7882 11.9652 56.9474 11.7144 56.5213 11.3852L56.5206 11.2477Z" fill="var(--fill-0, #2D3032)"/>
<path id="Vector_5" d="M53.3235 11.9979C53.978 12.3383 54.3252 12.1248 54.8096 13.0057C55.2487 13.8039 57.961 16.6712 57.6002 17.5265C57.3257 17.6165 57.279 17.6377 56.9921 17.6056C56.688 17.3164 56.2594 16.4263 56.015 16.0289C55.4953 15.1835 53.7824 12.5149 52.9977 12.1381C53.0558 12.104 53.2527 12.0275 53.3235 11.9979Z" fill="var(--fill-0, #DAC1B3)"/>
<path id="Vector_6" d="M56.5206 11.2477C56.6031 11.2095 56.8795 11.1344 57.0344 11.0676C57.2707 11.2335 58.2765 11.6333 58.7271 11.9345C60.0999 12.8521 62.3103 14.3728 63.4482 15.5136L63.2533 15.6306L63.1091 15.595C62.9344 15.6755 62.7129 15.9582 62.574 16.1147C62.5023 15.9442 62.3909 15.5872 62.2641 15.4709C61.238 14.5296 60.061 13.8906 59.1221 12.8253C58.7916 12.4504 56.9542 11.2372 56.5206 11.2477Z" fill="var(--fill-0, #DAC1B3)"/>
<path id="Vector_7" d="M52.9318 14.8226C52.3815 13.9504 52.1274 13.3623 51.2792 12.7864L51.2752 12.6841C51.5047 12.49 51.9481 12.5595 52.1215 12.7556C53.3085 14.0982 53.603 15.5899 53.9036 17.2842C53.98 17.715 54.4204 18.5863 54.1101 18.8537C53.7969 19.0436 53.7185 19.146 53.3596 19.0091C53.3247 18.2172 52.9539 16.9349 52.8819 16.0984C52.8328 15.5274 52.9466 15.4088 52.9318 14.8226Z" fill="var(--fill-0, #DAC1B3)"/>
<path id="Vector_8" d="M49.7 12.9207C49.7869 12.8811 49.9433 12.8445 50.0419 12.8178L50.6729 12.9259C51.4383 13.5545 51.95 14.3936 52.2315 15.3328C52.4691 15.5332 52.4857 15.6771 52.5732 15.9782L52.1778 15.9061C52.1378 15.9774 52.0862 16.0625 52.0523 16.1349L52.1849 16.5192C52.1859 16.7852 52.2443 17.1544 51.9948 17.3082L51.7927 16.6604C51.6859 15.3101 50.7368 13.7638 49.7 12.9207Z" fill="var(--fill-0, #DAC1B3)"/>
<path id="Vector_9" d="M52.231 15.3329C52.4686 15.5333 52.4851 15.6772 52.5727 15.9784L52.1773 15.9062C52.1372 15.9775 52.0857 16.0626 52.0518 16.135C51.9976 15.6262 51.9697 15.703 52.231 15.3329Z" fill="var(--fill-0, #D9C1B2)"/>
<path id="Vector_10" d="M54.6396 11.8836C54.9602 11.6489 54.9896 11.6658 55.3868 11.6178C55.594 12.0514 57.1488 12.9562 57.6703 13.291L57.5841 13.5814C56.4677 13.0274 55.5833 12.6821 54.6396 11.8836Z" fill="var(--fill-0, #DAC1B3)"/>
<path id="Vector_11" d="M57.6692 13.291C59.0628 13.9879 59.36 14.1009 60.1545 15.5212C60.3078 15.7953 60.6088 15.9782 60.7068 16.3205L60.6273 16.4203C60.0842 16.3544 59.2455 14.5928 58.7162 14.1941C58.3215 13.8967 57.9924 13.8096 57.583 13.5814L57.6692 13.291Z" fill="var(--fill-0, #DAC1B3)"/>
<path id="Vector_12" d="M52.0523 16.1349C52.0863 16.0625 52.1378 15.9774 52.1779 15.9061L52.5732 15.9782C52.7259 16.394 52.8204 16.8385 52.7816 17.2834L52.8214 17.5091C52.5174 17.5905 52.5428 17.7409 52.1923 17.7925L52.1376 17.8486C52.0836 17.6917 52.0362 17.4735 51.9949 17.3082C52.2443 17.1544 52.1859 16.7852 52.1849 16.5192L52.0523 16.1349Z" fill="var(--fill-0, #8B8D8D)"/>
<path id="Vector_13" d="M52.1849 16.5192C52.2571 16.7917 52.3068 16.9587 52.3295 17.2389L52.4415 17.376C52.5551 17.3462 52.6685 17.3153 52.7816 17.2835L52.8214 17.5091C52.5174 17.5905 52.5428 17.741 52.1923 17.7925L52.1376 17.8486C52.0836 17.6917 52.0362 17.4736 51.9949 17.3083C52.2443 17.1544 52.1859 16.7852 52.1849 16.5192Z" fill="var(--fill-0, #ACABAE)"/>
<path id="Vector_14" d="M52.1376 17.8485L52.1924 17.7924C52.5428 17.7409 52.5174 17.5904 52.8214 17.509C52.9578 18.0164 53.1647 18.4855 52.936 18.9526C52.4912 19.223 52.2093 18.1139 52.1376 17.8485Z" fill="var(--fill-0, #DAC1B3)"/>
<path id="Vector_15" d="M56.1644 14.5493C56.9542 15.0508 57.2763 15.5007 57.7692 16.2588L57.5232 16.445C57.1836 15.8424 56.5753 15.2041 56.1644 14.5493Z" fill="var(--fill-0, #DAC1B3)"/>
<path id="Vector_16" d="M52.2356 12.2822C52.4964 12.3069 52.8119 12.3061 53.0539 12.4042C53.4149 12.5505 55.5411 17.227 55.8434 17.9565L55.756 18.1389C55.0221 17.8641 54.0293 14.954 53.4862 14.1342C53.2349 13.7548 52.1783 12.5977 52.0915 12.4252L52.2356 12.2822Z" fill="var(--fill-0, #DAC1B3)"/>
<path id="Vector_17" d="M55.1696 12.6337C55.8181 13.3138 59.2733 16.3244 59.2191 17.0165C59.2051 17.1942 59.1648 17.2501 59.0432 17.3663C58.8784 17.3463 58.8233 17.3589 58.7153 17.1953C58.3722 16.6761 57.6384 15.593 57.1915 15.178C56.0632 14.1302 55.8085 14.1704 54.9136 12.8436L55.1696 12.6337Z" fill="var(--fill-0, #D9C1B2)"/>
<path id="Vector_18" d="M51.2982 13.1772C51.3096 13.1791 51.3211 13.1805 51.3324 13.1828C51.3512 13.1866 51.3697 13.1918 51.3886 13.1953C51.4409 13.205 51.489 13.209 51.5392 13.2302C51.9453 13.4012 52.2015 14.0368 52.3466 14.416L52.0619 14.3335C51.7481 14.002 51.4943 13.5853 51.2982 13.1772Z" fill="var(--fill-0, #D9C1B2)"/>
<path id="Vector_19" d="M54.9127 12.8435C54.7274 12.495 54.2734 12.381 54.308 12.0693C54.5936 12.0882 54.976 12.4473 55.1687 12.6337L54.9127 12.8435Z" fill="var(--fill-0, #DAC1B3)"/>
<path id="Vector_20" d="M49.6996 12.9209C50.7365 13.764 51.6855 15.3103 51.7924 16.6606L51.5764 16.8897C51.8046 17.4738 52.3824 18.9711 52.3769 19.5542L52.1953 19.6318C52.0083 19.6492 51.9514 19.6384 51.7647 19.6109C51.1554 19.8917 51.3039 20.4322 50.2962 20.3648C50.2175 20.3595 49.9561 20.779 49.6682 20.9319C48.7267 20.6943 49.1459 20.5272 48.4948 19.9533C48.421 20.1741 48.8767 20.8858 48.8132 21.3266C48.6532 21.5308 48.7379 21.4685 48.4912 21.561C46.9029 21.4088 46.4107 17.3037 46.1762 16.1169C46.0602 15.5306 45.0789 14.5858 45.1011 14.1283L45.2679 14.0747L45.4891 13.8654C45.7568 13.8585 45.8656 13.844 46.1202 13.9307L46.1394 13.7706C46.2134 13.7195 46.313 13.68 46.3969 13.6413C46.5729 13.6039 46.9428 13.5721 47.1364 13.5497C47.3029 13.4956 47.4505 13.4497 47.621 13.4044C47.7742 13.3919 48.0177 13.348 48.1771 13.3239C48.8394 13.2312 48.7044 13.0187 49.4706 13.0601L49.6996 12.9209Z" fill="var(--fill-0, #494B4C)"/>
<path id="Vector_21" d="M49.6997 12.9209C50.7365 13.764 51.6856 15.3103 51.7924 16.6606L51.5764 16.8897C51.8047 17.4738 52.3825 18.9711 52.3769 19.5542L52.1954 19.6318C52.0084 19.6492 51.9514 19.6384 51.7648 19.6109C51.4344 19.2046 50.7251 17.744 50.6107 17.2408L50.6746 17.1458C50.8737 17.1172 51.0005 17.2299 51.1675 17.3404C51.1639 17.1132 50.7749 16.2443 50.6658 15.9759C50.5341 16.0645 50.425 16.1386 50.3003 16.2382C50.1188 16.1457 50.1997 16.1599 49.9942 16.1881C49.7869 15.6066 49.5706 15.0282 49.3453 14.4532C49.118 14.1949 48.5427 13.6849 48.2339 13.5125C48.0607 13.4158 47.9768 13.4858 47.8001 13.5507L47.6744 13.5465L47.6211 13.4044C47.7743 13.3919 48.0177 13.348 48.1771 13.3239C48.8395 13.2312 48.7045 13.0187 49.4707 13.0601L49.6997 12.9209Z" fill="var(--fill-0, #DAC1B3)"/>
<path id="Vector_22" d="M49.699 12.9209C50.7358 13.764 51.6849 15.3103 51.7918 16.6606L51.5757 16.8897C51.1473 15.4165 50.5186 14.1832 49.47 13.0601L49.699 12.9209Z" fill="var(--fill-0, #393A3A)"/>
<path id="Vector_23" d="M49.3457 14.453C49.6072 14.6483 49.6978 14.6226 50.0272 14.6305C50.3075 14.971 50.5113 15.5567 50.6662 15.9757C50.5345 16.0642 50.4254 16.1384 50.3007 16.238C50.1192 16.1455 50.2001 16.1596 49.9946 16.1878C49.7873 15.6063 49.571 15.028 49.3457 14.453Z" fill="var(--fill-0, #6A6B6C)"/>
<path id="Vector_24" d="M48.1771 13.3239C49.0641 13.4633 49.5126 13.9499 50.0268 14.6306C49.6974 14.6228 49.6068 14.6485 49.3453 14.4532C49.118 14.1948 48.5427 13.6849 48.2339 13.5124C48.0607 13.4157 47.9768 13.4857 47.8001 13.5506L47.6744 13.5464L47.6211 13.4043C47.7743 13.3918 48.0177 13.3479 48.1771 13.3239Z" fill="var(--fill-0, #2D3032)"/>
<path id="Vector_25" d="M46.141 13.7706C46.2149 13.7195 46.3145 13.68 46.3984 13.6413C46.6071 13.9077 46.6411 13.8425 46.9512 13.708C47.2073 13.7418 47.7498 14.33 47.9298 14.5507C48.6642 15.4512 48.6418 16.8567 48.9438 17.9564C49.1292 18.6317 49.802 20.0294 49.7997 20.6023C49.3775 20.8371 48.985 20.2586 48.8657 19.9254C48.2549 18.2202 48.2491 16.2135 47.2663 14.6463C47.1186 14.4156 46.4229 14.1784 46.1217 13.9307L46.141 13.7706Z" fill="var(--fill-0, #DAC1B3)"/>
<path id="Vector_26" d="M47.8005 13.5504C47.9771 13.4856 48.0611 13.4155 48.2343 13.5123C48.5431 13.6847 49.1184 14.1947 49.3457 14.453C49.571 15.028 49.7873 15.6063 49.9945 16.1878C50.2795 17.284 50.7585 18.355 51.0795 19.4414C51.1534 19.6913 51.1235 19.7616 51.009 19.9459C50.118 20.3023 50.0985 19.2009 50.0121 18.5947C49.7701 16.8978 49.4881 16.0598 48.3967 14.7176L48.6069 14.5611L48.6204 14.4092C48.5089 14.0989 48.0458 13.8154 47.8005 13.5504Z" fill="var(--fill-0, #DAC1B3)"/>
<path id="Vector_27" d="M45.4898 13.8653C47.8054 14.8903 47.3889 17.404 48.0239 19.4177C48.2061 19.9953 48.6115 20.7395 48.5407 21.3124L48.4387 21.4303C47.6803 21.1032 47.1864 17.5625 46.9008 16.7494C46.7849 16.4193 46.3572 15.9549 46.3246 15.707L46.3895 15.6482L46.6962 15.7292C46.7445 15.2587 45.5749 14.5494 45.2686 14.0746L45.4898 13.8653Z" fill="var(--fill-0, #D9C1B2)"/>
<path id="Vector_28" d="M47.1359 13.5497C47.3024 13.4955 47.45 13.4496 47.6206 13.4043L47.6739 13.5464L47.7996 13.5506C48.0449 13.8156 48.508 14.0991 48.6195 14.4094L48.606 14.5613L48.3958 14.7178C48.2281 14.6151 47.5031 13.8165 47.1359 13.5497Z" fill="var(--fill-0, #D9C1B2)"/>
<path id="Vector_29" d="M48.6582 15.5736C48.691 15.5854 48.6995 15.5872 48.7335 15.6054C49.423 15.9748 49.9568 19.4315 50.2012 20.2742L49.9858 20.2205C49.4027 19.3359 48.8054 16.6527 48.6582 15.5736Z" fill="var(--fill-0, #D9C1B2)"/>
<path id="Vector_30" d="M63.2153 8.82088C63.7955 8.70612 64.8507 9.30522 64.9619 9.19636C64.9694 9.18898 64.9722 9.1781 64.9773 9.16897C65.061 9.95138 67.3337 11.0442 67.8995 11.6167C68.5699 12.0526 71.6138 13.9376 71.0419 14.9386C70.9518 14.9882 70.7805 15.0717 70.7193 15.1449C70.9765 15.5502 70.9876 15.8452 70.5369 16.142C69.8934 16.4431 69.6679 16.8521 68.8588 17.2123C69.1986 17.4672 70.0342 18.0009 70.1536 18.3454C69.8052 18.1749 69.4709 18.0266 69.1768 17.7737C68.8452 17.4887 68.5629 16.612 68.1703 16.4901C67.691 16.3412 67.5352 16.6565 66.9744 16.4504C66.9515 16.3332 66.9726 16.391 66.8721 16.2856C67.0711 15.8328 66.9502 15.6824 66.7752 15.2157C65.7584 14.4881 64.6989 13.3448 63.7221 12.549C62.5208 11.5703 61.006 10.9603 59.5954 10.3339C59.7531 10.2395 60.0049 10.2203 60.1963 10.19L59.9264 10.0928L59.9375 10.0212C61.3258 9.86513 65.4328 13.163 66.7889 13.7902C67.6659 14.196 67.5502 16.0293 68.0665 16.2696C68.2608 16.2079 68.3251 16.1502 68.4894 16.0365L68.5782 15.9679C68.2615 15.6403 68.1997 14.9702 67.9461 14.5475C67.8221 14.341 67.7086 14.2388 67.5862 14.0329L67.5665 13.9991L67.8044 13.9269C67.57 13.7465 67.4619 13.6859 67.5097 13.4075C67.4006 13.3562 67.027 13.2992 66.8857 13.2735C66.1373 12.9218 64.5339 11.6646 63.6506 11.2037C62.786 10.7524 61.5914 10.3219 60.8641 9.8468C61.2781 9.34097 61.3787 9.28942 62.0116 9.48369C62.2967 9.25044 62.4368 9.37264 62.863 9.30178L62.912 9.29321C62.9499 9.0962 63.0829 8.97259 63.2153 8.82088Z" fill="var(--fill-0, #161919)"/>
<path id="Vector_31" d="M63.216 8.82088C63.7962 8.70612 64.8514 9.30522 64.9626 9.19636C64.9701 9.18898 64.9729 9.1781 64.9781 9.16897C65.0617 9.95138 67.3344 11.0442 67.9002 11.6167C68.5707 12.0526 71.6145 13.9376 71.0426 14.9386C70.9525 14.9882 70.7812 15.0717 70.72 15.1449C70.9772 15.5502 70.9883 15.8452 70.5376 16.142C70.4001 15.9863 70.2322 15.7559 70.1012 15.5866L69.9494 15.4467C69.8899 15.2459 69.9073 15.3072 70.0359 15.0686C69.8631 14.7008 69.3336 13.6856 68.9615 13.5194L68.924 13.4336C68.999 13.3298 68.9929 13.322 69.0181 13.2015C68.2445 12.6841 67.3965 12.2464 66.6192 11.7578C65.5544 11.0885 64.6754 10.318 63.4263 10.0088C62.9849 9.89954 62.4236 9.6755 62.0123 9.48369C62.2974 9.25044 62.4375 9.37264 62.8637 9.30178L62.9127 9.29321C62.9506 9.0962 63.0836 8.97259 63.216 8.82088Z" fill="var(--fill-0, #D9C1B2)"/>
<path id="Vector_32" d="M63.2167 8.82088C63.797 8.70612 64.8522 9.30522 64.9633 9.19636C64.9709 9.18898 64.9737 9.1781 64.9788 9.16897C65.0625 9.95138 67.3352 11.0442 67.9009 11.6167C67.9885 11.7804 68.0131 11.8261 68.0604 12.0044L67.9814 12.0686C67.2382 11.8523 65.3454 10.4559 64.4085 9.94674L64.5018 9.81126C64.0882 9.54142 63.3748 9.3704 63.2012 9.11285L63.2167 8.82088Z" fill="var(--fill-0, #D9C1B2)"/>
<path id="Vector_33" d="M63.2012 9.11302C63.8074 8.75019 64.7639 9.32821 65.0501 9.83187L65.0148 9.96159C64.8182 9.99404 64.6887 9.90168 64.5018 9.81143C64.0882 9.54159 63.3748 9.37057 63.2012 9.11302Z" fill="var(--fill-0, #D9C1B2)"/>
<path id="Vector_34" d="M70.1024 15.5867C70.2976 15.4803 70.2453 15.5414 70.3275 15.3656C70.2523 15.2011 70.1938 15.1153 70.2196 14.9284L70.2149 14.922C70.5871 14.9536 70.3548 15.0905 70.7213 15.145C70.9785 15.5504 70.9896 15.8453 70.5389 16.1421C70.4014 15.9864 70.2335 15.756 70.1024 15.5867Z" fill="var(--fill-0, #DAC1B3)"/>
<path id="Vector_35" d="M63.217 8.82093L63.2015 9.11289C63.3751 9.37044 64.0884 9.54146 64.5021 9.8113L64.4087 9.94679C64.1723 9.8139 63.173 9.39552 62.9137 9.29326C62.9516 9.09625 63.0846 8.97263 63.217 8.82093Z" fill="var(--fill-0, #2D3032)"/>
<path id="Vector_36" d="M68.5883 13.7115C67.5594 13.2066 66.4512 12.6825 65.4683 12.1125C64.3751 11.4786 63.4601 10.6233 62.2428 10.1802C61.994 10.0897 61.4629 9.91312 61.2695 9.77617L61.2698 9.67201C61.7584 9.36234 61.8213 9.70516 62.2611 9.80735C64.0396 10.2205 65.3196 11.2446 66.8193 12.1956C67.5129 12.6355 68.2674 12.9131 68.9249 13.4337L68.9624 13.5195L68.7453 13.8099L68.5883 13.7115Z" fill="var(--fill-0, #D9C1B2)"/>
<path id="Vector_37" d="M60.1963 10.1902C62.079 10.7629 64.2604 12.3171 65.6158 13.6961C65.8781 13.9629 66.3721 14.7207 66.6662 14.8196C66.7021 14.3147 65.8983 13.8661 65.7498 13.4398L65.8279 13.4035C66.4178 13.7413 66.7325 13.9604 66.9752 14.6031C67.1067 14.9511 67.5017 15.8188 67.4043 16.1732C67.2121 16.2736 67.1454 16.3053 66.9744 16.4506C66.9515 16.3333 66.9726 16.3911 66.8721 16.2858C67.0711 15.833 66.9502 15.6825 66.7752 15.2158C65.7584 14.4883 64.6989 13.345 63.7221 12.5492C62.5208 11.5705 61.006 10.9605 59.5954 10.3341C59.7531 10.2397 60.0049 10.2205 60.1963 10.1902Z" fill="var(--fill-0, #DAC1B3)"/>
<path id="Vector_38" d="M68.5887 13.7116L68.7457 13.81C69.0674 14.4934 70.4608 15.7557 69.6952 16.5041C69.456 16.5848 69.5498 16.5905 69.3405 16.4995L69.3007 16.3425C69.8049 15.5276 68.4274 14.3319 68.5887 13.7116Z" fill="var(--fill-0, #D9C1B2)"/>
<path id="Vector_39" d="M67.5104 13.4077C68.436 13.8429 68.478 14.2074 68.8874 15.0696C68.9937 15.2937 69.0609 15.4565 68.9585 15.7018C68.5515 15.4948 68.4342 14.387 67.8051 13.927C67.5706 13.7466 67.4625 13.6861 67.5104 13.4077Z" fill="var(--fill-0, #DAC1B3)"/>
<path id="Vector_40" d="M68.5792 15.9678C68.9271 16.1403 69.1914 16.4059 68.9968 16.7939C68.5852 16.8539 68.5486 16.3482 68.4904 16.0365L68.5792 15.9678Z" fill="var(--fill-0, #DAC1B3)"/>
<path id="Vector_41" d="M54.1111 18.8537L54.2542 19.0627L53.9794 19.2387L53.9744 19.324C55.4603 19.5791 56.8858 19.7998 58.3815 20.0685C59.1997 20.1655 60.3357 20.6631 61.1789 20.8716C62.1172 21.1035 62.9994 21.2201 63.9221 21.5093C63.5807 21.6646 63.1879 21.7629 62.8671 21.9469C62.5793 21.983 62.2954 22.0094 62.0055 22.0213C61.4337 21.8586 60.8398 21.8563 60.2628 21.6611L59.7422 21.6768C59.6259 21.7988 59.6243 21.8093 59.6093 21.9766C59.7234 22.179 59.8678 22.3202 59.8164 22.5508L59.4388 22.3543C59.1555 21.7644 58.7984 21.6738 58.7798 21.1401C58.569 21.1015 56.9865 20.5736 56.6865 20.4789C55.327 20.0498 54.2587 19.8152 52.8469 19.6201C52.5825 19.7473 52.0966 20.0095 51.8294 19.8351C51.9307 19.6745 51.9762 19.7034 52.1961 19.6318L52.3777 19.5542C52.8131 19.2311 52.8157 19.136 53.3606 19.009C53.7195 19.1459 53.7979 19.0435 54.1111 18.8537Z" fill="var(--fill-0, #010101)"/>
<path id="Vector_42" d="M58.779 21.14C59.2892 21.3242 59.7557 21.5931 60.262 21.661L59.7414 21.6766C59.6251 21.7987 59.6235 21.8092 59.6085 21.9765C59.7226 22.1789 59.867 22.3201 59.8156 22.5507L59.4381 22.3542C59.1547 21.7643 58.7976 21.6737 58.779 21.14Z" fill="var(--fill-0, #6A6B6C)"/>
<path id="Vector_43" d="M57.0728 11.0498C57.2571 10.9465 57.6853 10.8593 57.9157 10.6265C57.9999 10.5413 58.1472 10.6343 58.2522 10.6897C58.2728 10.6863 58.5267 10.6447 58.5267 10.6447C60.4153 11.6141 62.108 12.9492 63.7155 14.314C63.9653 14.526 64.2337 14.7611 64.526 14.9067C65.0842 15.2503 64.8865 15.5636 65.5923 15.9293L65.3971 15.9987C64.857 15.8394 65.1741 15.4776 64.5533 15.5775C64.3938 15.7346 64.3226 15.8297 64.1004 15.8877C63.7212 15.8202 63.7587 15.8285 63.4474 15.5138C62.3094 14.3729 60.0991 12.8522 58.7262 11.9346C58.2756 11.6335 57.2698 11.2337 57.0335 11.0677L57.0728 11.0498Z" fill="var(--fill-0, #DAC1B3)"/>
<path id="Vector_44" d="M58.2522 10.6898C58.2728 10.6863 58.5267 10.6448 58.5267 10.6448C60.4153 11.6141 62.108 12.9493 63.7155 14.314C63.9653 14.5261 64.2337 14.7611 64.526 14.9068C65.0842 15.2504 64.8865 15.5636 65.5923 15.9293L65.3971 15.9988C64.857 15.8394 65.1741 15.4777 64.5533 15.5776C64.3938 15.7346 64.3226 15.8297 64.1004 15.8878C63.7212 15.8203 63.7587 15.8285 63.4474 15.5138C62.3094 14.373 60.0991 12.8523 58.7262 11.9347C58.2756 11.6335 57.2698 11.2337 57.0335 11.0678L57.0728 11.0499C57.129 11.0489 57.4259 11.0487 57.4537 11.0619C59.4357 11.9975 62.6976 14.1726 63.9931 15.8123C64.1721 15.6407 64.4098 15.4945 64.6191 15.3554C63.1155 14.1532 61.8553 12.745 60.062 11.7941C59.5451 11.52 58.8856 11.1102 58.3248 10.8624C58.2966 10.7952 58.2723 10.7377 58.2522 10.6898Z" fill="var(--fill-0, #161919)"/>
<path id="Vector_45" d="M51.7643 19.6107C51.951 19.6381 52.0079 19.649 52.1949 19.6316C51.975 19.7032 51.9295 19.6743 51.8283 19.8349C52.0954 20.0093 52.5814 19.7471 52.8457 19.6199C54.2575 19.815 55.3258 20.0496 56.6853 20.4787C56.9853 20.5734 58.5678 21.1013 58.7786 21.1399C58.7972 21.6736 59.1544 21.7642 59.4377 22.3541C58.9103 22.2558 58.291 21.9128 57.7408 21.7869C56.2825 21.4533 54.4227 20.8356 52.9814 20.5994C52.0905 20.4535 50.802 20.9964 49.6678 20.9317C49.9556 20.7788 50.2171 20.3593 50.2958 20.3646C51.3035 20.432 51.155 19.8915 51.7643 19.6107Z" fill="var(--fill-0, #D9C1B2)"/>
<path id="Vector_46" d="M61.1567 11.4339C60.6862 11.1772 59.4077 10.6828 59.1607 10.4486L59.2005 10.3476C59.4629 10.2658 59.3611 10.2617 59.5969 10.334C61.0075 10.9603 62.5223 11.5704 63.7236 12.549C64.7005 13.3448 65.7599 14.4881 66.7767 15.2157C66.9517 15.6824 67.0726 15.8328 66.8736 16.2856C66.4634 16.3037 66.1692 16.2215 65.8658 15.9479L65.5936 15.9292C64.8878 15.5635 65.0856 15.2502 64.5274 14.9066L64.646 14.8342L64.6225 14.5706C63.2978 13.6001 62.4536 12.6265 61.2069 11.6789C61.4612 11.7592 61.553 11.7786 61.776 11.9276L61.9948 11.7148C61.7864 11.6239 61.3863 11.5078 61.1567 11.4339Z" fill="var(--fill-0, #161919)"/>
<path id="Vector_47" d="M61.9944 11.7147C62.7715 12.1289 66.4143 14.9744 66.6314 15.7417C66.6491 15.8044 66.618 15.8623 66.5996 15.9236C66.3662 16.0232 66.4647 16.0161 66.2283 15.9603C65.233 14.7002 66.1382 14.9665 64.3707 14.1617C63.9136 13.9536 62.3405 12.3408 61.7756 11.9275L61.9944 11.7147Z" fill="var(--fill-0, #DAC1B3)"/>
<path id="Vector_48" d="M64.6209 14.5705C65.25 14.7577 65.5107 15.3781 65.8643 15.9478L65.5921 15.9291C64.8862 15.5634 65.084 15.2502 64.5258 14.9066L64.6444 14.8342L64.6209 14.5705Z" fill="var(--fill-0, #DAC1B3)"/>
<path id="Vector_49" d="M63.9217 21.5093C64.0329 21.3375 64.1235 21.1697 64.3171 21.0774L64.3752 21.1563C64.3344 21.3269 64.2986 21.3592 64.1749 21.4888C64.4661 21.8343 65.6005 21.6258 65.8419 22.0629C65.5212 22.1547 65.1897 21.8696 64.8485 21.9728L64.8242 22.099C65.0391 22.2933 65.2385 22.4272 65.2842 22.7188C65.1943 22.854 65.1704 22.8837 64.9974 22.9166C64.5794 22.9963 63.8747 22.7528 63.526 22.9514C63.4601 23.0822 63.4216 23.2049 63.388 23.3469C63.1733 23.518 62.9783 23.5273 62.7052 23.5006C61.7899 23.4112 60.6195 22.9742 59.816 22.5508C59.8674 22.3202 59.723 22.179 59.6089 21.9766C59.6238 21.8093 59.6255 21.7988 59.7417 21.6768L60.2624 21.6611C60.8394 21.8563 61.4332 21.8586 62.005 22.0213C62.295 22.0094 62.5788 21.9831 62.8667 21.947C63.1875 21.7629 63.5802 21.6646 63.9217 21.5093Z" fill="var(--fill-0, #D9C1B2)"/>
<path id="Vector_50" d="M60.2632 21.6611C60.8402 21.8563 61.434 21.8586 62.0058 22.0212C62.2583 22.076 62.5444 22.1068 62.6886 22.3472C62.6978 22.3624 62.7054 22.3784 62.7137 22.394C62.5791 22.4476 62.4358 22.4952 62.3077 22.5622C62.0728 22.4478 61.7175 22.2126 61.4552 22.2708L61.3901 22.4068C61.3617 22.4386 61.3654 22.4379 61.3229 22.4656C61.2194 22.5333 61.0907 22.5447 60.9713 22.5225C60.5628 22.4465 59.9719 22.0185 59.7425 21.6767L60.2632 21.6611Z" fill="var(--fill-0, #D9C1B2)"/>
<path id="Vector_51" d="M62.0054 22.0211C62.2953 22.0093 62.5792 21.9829 62.8671 21.9468C62.937 22.158 63.0136 22.3604 63.1044 22.5638L63.0518 22.6187C62.9296 22.5501 62.8208 22.4835 62.7133 22.3939C62.7049 22.3783 62.6973 22.3623 62.6882 22.3471C62.544 22.1067 62.2578 22.0759 62.0054 22.0211Z" fill="var(--fill-0, #6A6B6C)"/>
<path id="Vector_52" d="M61.3894 22.4069L61.4545 22.2709C61.7167 22.2126 62.072 22.4478 62.3069 22.5622C62.4221 22.6209 62.5296 22.6983 62.6379 22.7684L62.6435 22.8437C62.21 22.756 61.7986 22.5688 61.3894 22.4069Z" fill="var(--fill-0, #494B4C)"/>
<path id="Vector_53" d="M54.482 18.9352C54.8921 19.1344 55.6874 19.196 56.1662 19.2613L58.6911 19.63C60.0025 19.8151 61.5767 19.846 62.6118 20.7658C61.5991 20.3465 60.5294 19.9527 59.4079 19.9581C59.0805 19.9597 58.7058 20.0441 58.3821 20.0683C56.8865 19.7997 55.461 19.579 53.975 19.3239L53.98 19.2386L54.2548 19.0626L54.482 18.9352Z" fill="var(--fill-0, #D9C1B2)"/>
<path id="Vector_54" d="M67.6684 21.814C67.6438 21.377 67.7001 19.955 67.77 19.5345C68.1196 19.612 67.9744 20.3517 68.3392 20.6876C68.1311 20.7947 67.9203 20.8491 67.879 21.0704C67.7775 21.6152 67.9153 21.8412 67.8088 22.4444C67.7891 22.2262 67.7882 22.0051 67.6684 21.814Z" fill="var(--fill-0, #161919)"/>
<path id="Vector_55" d="M66.8875 13.2737C67.0288 13.2994 67.4025 13.3564 67.5116 13.4077C67.4638 13.6861 67.5718 13.7467 67.8063 13.9271L67.5684 13.9993C67.3153 13.6772 67.2133 13.5389 66.8875 13.2737Z" fill="var(--fill-0, #494B4C)"/>
<path id="Vector_56" d="M45.269 14.0747L45.1927 13.7908L45.3406 13.7271C45.6994 13.7955 45.7747 13.7986 46.1406 13.7705L46.1214 13.9307C45.8668 13.844 45.758 13.8585 45.4903 13.8654L45.269 14.0747Z" fill="var(--fill-0, #D9C1B2)"/>
<path id="Vector_57" d="M13.6205 15.3993L13.8389 15.4761L13.9002 15.384C13.7308 14.9232 13.2024 14.329 13.131 14.0053L13.2133 13.9815L13.2384 14.0183C13.3745 14.2148 13.7348 14.7043 13.9289 14.813C14.0241 14.6917 14.0332 14.6764 14.0954 14.5353C14.245 14.6026 15.256 15.7261 15.4814 15.9484L15.5863 15.7891L15.4996 15.4203C15.7844 15.3526 16.5143 16.1348 16.6135 16.4214C18.182 16.5392 19.8672 16.5506 21.4092 16.7292C24.1531 17.0471 26.836 17.2367 29.5976 17.3599C30.7936 17.4133 31.9815 17.3274 33.1728 17.311L33.2091 17.0518C33.3529 17.1408 33.2753 17.115 33.4534 17.1214L33.5244 16.9371C34.0471 16.9616 33.9251 16.7366 34.1996 16.76C34.6071 16.7948 34.8689 17.1343 35.3169 17.1528L35.7504 17.1746C35.9208 17.1675 36.1669 17.1333 36.343 17.1137C36.4416 17.0899 36.8415 17.0761 36.9666 17.0695L37.1635 17.0179C37.2702 17.2285 37.392 17.4548 37.477 17.6724L37.3792 17.7815L36.6176 17.8006C36.8861 17.8339 37.16 17.8351 37.3487 18.0183C37.49 18.2139 37.5133 18.5517 37.5091 18.7885C36.7253 18.9398 35.7087 18.9776 34.8768 19.0169C29.4243 19.2744 24.0398 18.2492 18.5803 18.3235C17.5668 18.3373 15.3263 17.8744 14.5072 18.0354L14.3166 17.8371C14.1173 17.863 13.9342 17.875 13.752 17.9609C13.6465 17.7418 13.7057 17.7939 13.5327 17.6813L13.2022 17.8401L13.217 17.9153C12.5987 18.1428 12.4887 18.0772 12.0848 17.5864C10.8233 18.5094 11.0203 18.5416 9.46339 19.2794C8.48644 19.2707 8.08394 18.8801 8.44809 17.8764C8.51282 17.698 8.63045 17.7084 8.70523 17.4239L9.06089 17.3269L9.26207 17.2938L9.13118 17.0076L9.46217 16.7429L9.6913 16.5804C9.94509 16.3307 10.0545 16.1876 10.2686 15.901C10.3253 15.4392 10.4311 15.8643 10.6368 15.4194L12.7993 15.9489C12.7261 15.8306 12.7897 15.6594 12.8217 15.5207L12.7827 15.2982C13.0678 15.5066 13.0438 15.5618 13.3371 15.5707L13.5441 15.4658L13.6205 15.3993Z" fill="var(--fill-0, #B4A093)"/>
<path id="Vector_58" d="M13.6199 15.3993L13.8383 15.4761L13.8996 15.384C13.7302 14.9232 13.2018 14.329 13.1304 14.0053L13.2127 13.9815L13.2378 14.0183C13.3739 14.2148 13.7342 14.7043 13.9283 14.813C14.0235 14.6917 14.0326 14.6764 14.0948 14.5353C14.2444 14.6026 15.2554 15.7261 15.4808 15.9484L15.5857 15.7891L15.499 15.4203C15.7838 15.3526 16.5137 16.1348 16.613 16.4214C18.1815 16.5392 19.8667 16.5506 21.4086 16.7292C24.1526 17.0471 26.8354 17.2367 29.597 17.3599C30.7931 17.4133 31.9809 17.3274 33.1722 17.311L33.2085 17.0518C33.3523 17.1408 33.2747 17.115 33.4528 17.1214L33.5238 16.9371C34.0465 16.9616 33.9245 16.7366 34.199 16.76C34.6065 16.7948 34.8683 17.1343 35.3163 17.1528L35.7498 17.1746C35.9202 17.1675 36.1663 17.1333 36.3424 17.1137C36.441 17.0899 36.8409 17.0761 36.966 17.0695L37.1629 17.0179C37.2696 17.2285 37.3914 17.4548 37.4764 17.6724L37.3786 17.7815L36.617 17.8006C35.8659 17.7586 35.007 17.675 34.2694 17.6952C32.914 17.7323 31.3842 17.9253 30.026 17.8614C28.0704 17.7585 26.12 17.5754 24.1645 17.4616C22.5436 17.3674 20.9386 17.3502 19.3261 17.129C18.9251 17.0886 18.4668 17.1578 18.0728 17.1334C16.1688 17.0153 14.2693 16.9047 12.3814 16.6224C12.2901 16.6088 12.1515 16.657 12.0691 16.697L11.9171 16.557C11.5337 16.318 11.4324 16.376 11.0367 16.5584C10.3341 16.2794 10.3436 16.8908 9.69071 16.5804C9.9445 16.3307 10.0539 16.1876 10.268 15.901C10.3247 15.4392 10.4306 15.8643 10.6362 15.4194L12.7987 15.9489C12.7256 15.8306 12.7891 15.6594 12.8212 15.5207L12.7821 15.2982C13.0672 15.5066 13.0432 15.5618 13.3365 15.5707L13.5435 15.4658L13.6199 15.3993Z" fill="var(--fill-0, #010101)"/>
<path id="Vector_59" d="M13.6205 15.3993L13.8389 15.4761L13.9002 15.384C13.7308 14.9232 13.2024 14.329 13.131 14.0053L13.2134 13.9815L13.2384 14.0183C13.3745 14.2148 13.7348 14.7043 13.9289 14.813C14.0241 14.6917 14.0332 14.6764 14.0954 14.5353C14.245 14.6026 15.256 15.7261 15.4814 15.9484L15.4003 16.2814C14.615 16.2164 13.5972 16.0544 12.7993 15.9489C12.7262 15.8306 12.7897 15.6594 12.8218 15.5207L12.7827 15.2982C13.0678 15.5066 13.0438 15.5618 13.3371 15.5707L13.5441 15.4658L13.6205 15.3993Z" fill="var(--fill-0, #D9C1B2)"/>
<path id="Vector_60" d="M15.4819 15.9484L15.5868 15.7892L15.5 15.4203C15.7848 15.3527 16.5148 16.1349 16.614 16.4214C16.3343 16.4297 15.7027 16.3236 15.4007 16.2814L15.4819 15.9484Z" fill="var(--fill-0, #DAC1B3)"/>
<path id="Vector_61" d="M33.524 16.937C34.0468 16.9615 33.9247 16.7366 34.1993 16.76C34.6067 16.7947 34.8685 17.1343 35.3165 17.1528L35.75 17.1746C34.9834 17.2923 34.0211 17.2162 33.1724 17.311L33.2087 17.0518C33.3525 17.1408 33.2749 17.1149 33.453 17.1213L33.524 16.937Z" fill="var(--fill-0, #DAC1B3)"/>
<path id="Vector_62" d="M9.69202 16.5804C10.3449 16.8907 10.3354 16.2793 11.038 16.5584C10.3426 17.0898 10.1524 17.1358 9.26279 17.2937L9.1319 17.0076L9.46289 16.7429L9.69202 16.5804Z" fill="var(--fill-0, #161919)"/>
<path id="Vector_63" d="M9.06089 17.3269C8.74622 17.6973 8.55702 17.8596 8.68584 18.3866C8.76753 18.7204 9.12761 19.178 9.46339 19.2794C8.48644 19.2707 8.08394 18.8801 8.44809 17.8764C8.51282 17.6981 8.63045 17.7084 8.70523 17.4239L9.06089 17.3269Z" fill="var(--fill-0, #D9C1B2)"/>
<path id="Vector_64" d="M12.1207 17.4581C12.3022 17.397 12.5666 17.2797 12.7513 17.2046C12.8992 17.3878 13.037 17.5454 13.1039 17.7704L13.2022 17.8399L13.2171 17.9151C12.5987 18.1426 12.4887 18.077 12.0848 17.5862L12.1207 17.4581Z" fill="var(--fill-0, #D9C1B2)"/>
<path id="Vector_65" d="M11.9186 16.5569L12.0706 16.697C11.9426 16.9739 10.7825 18.1677 10.4657 18.2157C10.5033 17.7086 11.7336 17.0743 11.9186 16.5569Z" fill="var(--fill-0, #494B4C)"/>
<path id="Vector_66" d="M12.1214 17.4582C12.1559 17.3721 12.2048 17.2923 12.2662 17.2224C12.3908 17.0768 12.5674 16.9838 12.7594 16.9625L12.8316 17.0465L12.7521 17.2047C12.5674 17.2798 12.3029 17.3971 12.1214 17.4582Z" fill="var(--fill-0, #494B4C)"/>
<path id="Vector_67" d="M39.271 15.61C39.0504 15.1939 39.0915 15.4167 38.7398 15.1001C38.9498 15.0543 39.0637 15.124 39.2545 15.1907C40.6698 15.6872 40.8122 17.6171 41.2596 18.8329C41.569 19.6736 41.8487 20.5287 42.1702 21.3656C42.4299 22.042 42.2296 22.378 43.0188 22.5396L43.0432 22.6361C42.8121 22.7791 42.6388 22.7327 42.4062 22.6115C42.2239 22.2903 42.0584 21.5097 41.8663 21.0402L41.6652 20.9391C41.4784 21.121 41.6122 21.1956 41.3577 21.3957C41.2856 21.8556 41.6243 22.3117 41.66 22.8633C41.5165 22.9997 41.1825 23.05 41.0484 22.9598C40.0425 22.2822 39.5238 15.6303 38.3898 15.6645C38.405 15.8616 38.5116 16.0537 38.6005 16.2362C39.496 18.073 39.2811 20.2478 39.6587 22.2152C39.7402 22.6391 40.317 22.722 40.3866 22.9514C40.1329 23.046 40.1437 22.856 39.7764 22.8485C39.3872 23.0531 39.3128 23.0087 38.8555 22.9688C38.8679 22.9836 38.5513 21.0797 38.4418 20.7306C38.3401 20.3497 38.3087 19.6426 38.2776 19.2239C37.9894 17.507 37.3305 16.7313 36.7668 15.2841L36.848 15.2242C37.1534 15.2774 37.2014 15.2822 37.4392 15.4736L37.5412 15.2722C38.1958 15.1386 38.5891 15.3139 38.9853 15.8529L39.271 15.61ZM40.8969 18.5501C40.813 17.9078 40.3115 15.8094 39.6166 15.6746L39.5451 15.767C39.808 16.222 40.0861 16.4952 40.2148 17.0158C40.3669 17.6309 40.6358 18.2992 40.7348 18.9217C40.7531 18.8229 40.8492 18.647 40.8969 18.5501Z" fill="var(--fill-0, #161919)"/>
<path id="Vector_68" d="M40.7367 18.9216C40.6378 18.299 40.3689 17.6308 40.2167 17.0156C40.088 16.4951 39.8099 16.2219 39.547 15.7669L39.6185 15.6744C40.3135 15.8092 40.8149 17.9077 40.8988 18.55C40.8511 18.6469 40.755 18.8228 40.7367 18.9216Z" fill="var(--fill-0, #BFBEBE)" fill-opacity="0.980392"/>
<path id="Vector_69" d="M38.2776 19.2239C37.9894 17.5069 37.3305 16.7312 36.7668 15.2841L36.848 15.2242C37.1534 15.2773 37.2014 15.2821 37.4392 15.4736L37.5412 15.2721C39.3682 16.2552 39.07 20.656 39.497 22.4418C39.5306 22.5823 39.4355 22.8167 39.3533 22.9315C38.9244 22.8649 38.9539 21.2831 38.7628 20.7574L38.5932 20.4585L38.5203 20.465C38.4977 20.5389 38.4561 20.6594 38.4418 20.7305C38.3401 20.3496 38.3087 19.6425 38.2776 19.2239Z" fill="var(--fill-0, #D9C1B2)"/>
<path id="Vector_70" d="M38.2776 19.2239C37.9894 17.5069 37.3305 16.7312 36.7668 15.2841L36.848 15.2242C37.1534 15.2773 37.2014 15.2821 37.4392 15.4736C38.5441 17.0313 38.1128 16.7645 38.5741 18.2454C38.213 18.6298 38.2569 18.6812 38.2776 19.2239Z" fill="var(--fill-0, #727374)"/>
<path id="Vector_71" d="M37.7082 16.2239C37.8547 16.6172 38.1357 16.9169 38.1119 17.3591C37.9109 17.1873 37.6492 16.9099 37.6012 16.6418C37.5642 16.4352 37.5891 16.3909 37.7082 16.2239Z" fill="var(--fill-0, #D9C1B2)"/>
<path id="Vector_72" d="M38.5761 18.2454C38.7369 18.9582 38.6357 19.9233 38.7648 20.7574L38.5952 20.4584L38.5223 20.4649C38.4996 20.5389 38.4581 20.6594 38.4437 20.7305C38.3421 20.3496 38.3107 19.6425 38.2796 19.2238C38.2589 18.6812 38.215 18.6298 38.5761 18.2454Z" fill="var(--fill-0, #4B4C4A)"/>
<path id="Vector_73" d="M38.9859 15.8527L39.2716 15.6099C39.4668 15.9875 39.8973 16.5995 40.002 16.9398C40.429 18.3271 40.6532 19.807 40.9913 21.2248C41.0834 21.6108 41.4405 22.4971 41.3953 22.761L41.2814 22.8811C41.2205 22.8819 41.1644 22.9015 41.1187 22.858C40.6457 22.4092 39.7014 17.6782 39.3851 16.7029C39.2882 16.4039 39.1314 16.1304 38.9859 15.8527Z" fill="var(--fill-0, #D9C1B2)"/>
<path id="Vector_74" d="M41.3591 19.8984C41.5526 20.0996 41.6956 20.7064 41.8663 21.0402L41.6651 20.9392C41.4783 21.1211 41.6121 21.1956 41.3576 21.3957C40.9096 20.8375 41.375 20.8265 41.0878 20.0591L41.3591 19.8984Z" fill="var(--fill-0, #DAC1B3)"/>
<path id="Vector_75" d="M40.8978 18.5501C41.0401 18.903 41.2337 19.6536 41.3601 19.8984L41.0888 20.0591C40.7751 19.8265 40.7824 19.298 40.7357 18.9217C40.754 18.8229 40.8501 18.647 40.8978 18.5501Z" fill="var(--fill-0, #ACABAE)"/>
<path id="Vector_76" d="M41.5072 15.9123L41.5531 15.9658C42.8127 17.4547 42.9051 20.0546 43.4661 21.8304C43.5315 22.0374 43.7428 22.2634 43.9601 22.3128C44.4689 22.0827 43.9914 21.2677 43.865 20.887C43.3202 19.2451 43.2073 17.4367 42.517 15.8487C42.1366 14.9737 41.8033 14.9471 40.959 14.7862C41.2571 14.7392 41.4567 14.7145 41.7574 14.6977C43.8631 16.5107 43.8881 17.5972 44.6398 20.1902C44.7459 20.5563 44.9569 21.3605 45.1463 21.671C45.2977 21.6091 45.442 21.5252 45.587 21.4495L45.6495 21.8429C45.6741 21.707 45.6901 21.5985 45.7906 21.4954C45.859 21.4252 45.8613 21.4313 45.9582 21.4317L45.9691 21.636C45.8859 21.805 45.881 22.0436 45.8144 22.229C45.6505 22.3392 45.6327 22.3581 45.4368 22.352C44.4955 21.8888 44.0752 18.8151 43.7453 17.7985C43.5553 17.2126 43.2448 16.6661 42.9161 16.1467C42.958 16.6176 43.1313 17.0771 43.2468 17.5339C43.4794 18.4534 43.6746 19.3825 43.9164 20.2997C44.0735 20.8959 44.3049 21.4953 44.4031 22.1026C44.4347 22.2986 44.4551 22.408 44.3361 22.5686C44.1445 22.6197 43.9406 22.6009 43.762 22.5156C43.3729 22.3335 43.2249 21.7874 43.0803 21.4211L42.9442 21.2803L42.766 21.3083C42.8584 21.5705 43.001 21.9379 42.9497 22.2128C42.3479 21.3362 42.0461 19.2807 41.7391 18.2199C41.4941 17.3737 41.364 17.021 40.9739 16.2077L41.2316 16.3562L41.4587 16.1755C41.4329 16.0806 41.4727 16.025 41.5072 15.9123Z" fill="var(--fill-0, #2D3032)"/>
<path id="Vector_77" d="M40.9751 16.2077L41.2328 16.3561L41.46 16.1754C42.5224 17.6997 42.7054 19.6446 43.0815 21.4211L42.9454 21.2803L42.7673 21.3083C42.8596 21.5705 43.0022 21.9378 42.9509 22.2127C42.3491 21.3362 42.0473 19.2806 41.7403 18.2199C41.4953 17.3736 41.3652 17.0209 40.9751 16.2077Z" fill="var(--fill-0, #D9C1B2)"/>
<path id="Vector_78" d="M40.9751 16.2077L41.2328 16.3562C42.1903 17.9649 42.2015 20.1545 42.7673 21.3083C42.8596 21.5705 43.0022 21.9379 42.9509 22.2128C42.3491 21.3362 42.0473 19.2807 41.7403 18.2199C41.4953 17.3737 41.3652 17.021 40.9751 16.2077Z" fill="var(--fill-0, #161919)"/>
<path id="Vector_79" d="M45.1479 21.671C45.2993 21.6091 45.4436 21.5252 45.5885 21.4495L45.651 21.8429C45.595 21.9516 45.554 21.9626 45.4498 22.0234C45.2666 21.9992 45.2625 21.9926 45.1375 21.8576L45.1479 21.671Z" fill="var(--fill-0, #D9C1B2)"/>
<path id="Vector_80" d="M42.9433 14.5903C44.5696 15.3276 44.739 17.4112 45.1572 18.8872C45.397 19.7335 45.9631 20.6762 46.1452 21.5201C46.0966 21.5539 46.0194 21.6124 45.9693 21.6361L45.9584 21.4318C45.8615 21.4315 45.8593 21.4253 45.7909 21.4955C45.6904 21.5986 45.6744 21.7071 45.6497 21.843L45.5872 21.4496C44.6823 20.5529 44.39 17.0839 43.7075 15.9091C43.4866 15.5289 43.0218 15.0389 42.7021 14.7288L42.9433 14.5903Z" fill="var(--fill-0, #616061)"/>
<path id="Vector_81" d="M8.69837 14.9837C8.49291 14.9216 7.41845 14.6251 7.33817 14.5324C8.18794 14.5233 9.77483 15.1559 10.6361 15.4193C10.4304 15.8642 10.3245 15.439 10.2679 15.9008C10.0538 16.1875 9.94436 16.3306 9.69057 16.5803L9.46145 16.7428C8.54146 16.1162 8.09092 16.2454 8.69837 14.9837Z" fill="var(--fill-0, #D9C1B2)"/>
<path id="Vector_82" d="M8.69837 14.9837C8.49291 14.9216 7.41845 14.6251 7.33817 14.5324C8.18794 14.5233 9.77483 15.1559 10.6361 15.4193C10.4304 15.8642 10.3245 15.439 10.2679 15.9008C9.94215 15.4477 9.22983 15.1403 8.69837 14.9837Z" fill="var(--fill-0, #2D3032)"/>
<path id="Vector_83" d="M45.1809 15.6906C45.7955 16.6319 46.2134 18.7984 46.6189 19.9846C46.4629 20.0331 46.2788 20.0769 46.1474 20.1658C45.8567 19.6654 45.1953 16.7423 44.8661 15.826L45.1809 15.6906Z" fill="var(--fill-0, #535353)"/>
<path id="Vector_84" d="M46.147 20.1659C46.2784 20.0771 46.4625 20.0333 46.6185 19.9848C46.7591 20.4146 46.7685 20.641 46.9989 21.0271C47.2519 21.1484 47.5181 20.9264 47.6598 21.2243C47.5168 21.3415 47.5065 21.3648 47.3306 21.376C47.211 21.4895 47.1355 21.5771 47.0741 21.73L47.1169 21.817C47.095 21.832 47.0642 21.8555 47.0379 21.8661C46.8412 21.945 46.524 21.9031 46.333 21.8277L46.2933 21.7067L46.4181 21.5947C46.4684 21.4311 46.4127 21.0504 46.3948 20.8594C46.2043 20.6099 46.2024 20.4751 46.147 20.1659Z" fill="var(--fill-0, #494B4C)"/>
<path id="Vector_85" d="M46.3958 20.8593C46.4968 21.1708 46.4355 21.1571 46.6581 21.3057C46.9056 21.2926 47.1207 21.2538 47.3316 21.3759C47.212 21.4894 47.1365 21.577 47.0751 21.73L47.1179 21.8169C47.0961 21.8319 47.0653 21.8554 47.0389 21.866C46.8423 21.9449 46.525 21.903 46.334 21.8276L46.2943 21.7066L46.4191 21.5946C46.4694 21.431 46.4137 21.0503 46.3958 20.8593Z" fill="var(--fill-0, #DAC1B3)"/>
<path id="Vector_86" d="M46.4191 21.5945C46.6151 21.6343 46.9004 21.6497 47.0751 21.7299L47.1179 21.8168C47.0961 21.8318 47.0653 21.8553 47.0389 21.8659C46.8423 21.9448 46.525 21.9029 46.334 21.8275L46.2943 21.7065L46.4191 21.5945Z" fill="var(--fill-0, #2D3032)"/>
<path id="Vector_87" d="M37.4767 17.6724C37.6647 18.2197 37.77 19.0698 37.8876 19.6652C38.1059 20.748 38.3383 21.828 38.5845 22.905L38.551 22.9676L38.3628 22.977C38.3175 22.9036 37.5708 19.1342 37.5088 18.7885C37.513 18.5517 37.4897 18.2139 37.3484 18.0183C37.1597 17.8351 36.8858 17.8339 36.6173 17.8006L37.3789 17.7815L37.4767 17.6724Z" fill="var(--fill-0, #2D3032)"/>
<path id="Vector_88" d="M40.9738 16.2077C40.7652 16.0026 40.4499 15.4868 40.2095 15.2857C40.0486 15.151 39.9172 15.2027 39.6827 15.0081L39.7092 14.9193C40.0147 14.8365 40.8351 14.9943 41.013 15.283C41.1411 15.4907 41.3526 15.7159 41.5071 15.9123C41.4726 16.025 41.4329 16.0806 41.4587 16.1755L41.2315 16.3562L40.9738 16.2077Z" fill="var(--fill-0, #797879)"/>
<path id="Vector_89" d="M44.8663 15.826C44.3481 14.937 43.9343 14.7446 43.0862 14.2097C43.3618 14.2341 43.9772 14.4402 44.2671 14.5279C44.5626 14.8158 44.959 15.3451 45.181 15.6906L44.8663 15.826Z" fill="var(--fill-0, #2D3032)"/>
<path id="Vector_90" d="M36.3439 17.1136C36.0513 16.9236 35.6657 16.5343 35.5158 16.2184L35.5782 16.1561C35.9515 16.3265 35.7752 16.4942 36.075 16.6076C36.2652 16.4923 36.3098 16.3251 36.4049 16.1168C36.5898 16.4358 36.7774 16.7534 36.9676 17.0694C36.8424 17.076 36.4425 17.0898 36.3439 17.1136Z" fill="var(--fill-0, #ACABAE)"/>
<path id="Vector_91" d="M36.4043 16.1168C36.2754 15.8726 35.8615 15.3191 35.8584 15.2499C36.4547 15.3524 36.9607 16.5055 37.1638 17.0178L36.9669 17.0694C36.7767 16.7534 36.5892 16.4358 36.4043 16.1168Z" fill="var(--fill-0, #2D3032)"/>
<path id="Vector_92" d="M8.70582 17.4237C8.14998 17.533 7.40095 17.7029 6.84145 17.631C6.97813 17.5454 8.62741 17.2133 9.13178 17.0075L9.26266 17.2936L9.06148 17.3268L8.70582 17.4237Z" fill="var(--fill-0, #2D3032)"/>
<path id="Vector_93" d="M13.5431 15.4658C12.9715 14.9759 12.2229 14.0318 11.8961 13.3452L11.9336 13.3275C12.5482 14.0359 13.035 14.6772 13.6194 15.3994L13.5431 15.4658Z" fill="var(--fill-0, #D9C1B2)"/>
<path id="Vector_94" d="M13.2033 17.8401L13.5338 17.6812C13.7068 17.7939 13.6475 17.7418 13.7531 17.9608C13.3126 18.5989 13.1511 19.0147 12.5314 19.5492C12.4807 19.4917 12.5108 19.5381 12.5669 19.437C12.7442 19.1187 13.4498 18.3007 13.4084 17.9856L13.2181 17.9152L13.2033 17.8401Z" fill="var(--fill-0, #ACABAE)"/>
<path id="Vector_95" d="M12.8222 15.5205C12.3143 15.2302 11.3626 14.2596 11.1763 13.7124L11.1767 13.782L11.2737 13.7749C11.7661 14.3011 12.2378 14.8236 12.7831 15.298L12.8222 15.5205Z" fill="var(--fill-0, #797879)"/>
<path id="Vector_96" d="M64.3556 20.313C64.3939 20.3488 64.3955 20.3839 64.4108 20.4328C64.0605 20.778 63.6416 20.9567 63.1804 21.1133L63.123 21.0625L63.1358 20.9733C63.5808 20.7858 63.9672 20.5999 64.3556 20.313Z" fill="var(--fill-0, #6A6B6C)"/>
<path id="Vector_97" d="M14.3157 17.837L14.5063 18.0353C14.296 18.277 14.0616 18.5184 13.8411 18.7528L13.7611 18.7329C13.8852 18.3727 14.2712 18.1636 14.3157 17.837Z" fill="var(--fill-0, #ACABAE)"/>
<path id="Vector_98" d="M33.209 17.0517C33.0595 16.8415 32.9239 16.8986 32.7172 16.517L32.8299 16.6375L32.8579 16.5718C33.1906 16.8158 33.1924 16.7689 33.5244 16.937L33.4534 17.1213C33.2753 17.1149 33.3528 17.1407 33.209 17.0517Z" fill="var(--fill-0, #D9C1B2)"/>
<path id="Vector_99" d="M27.446 16.4331C27.7523 16.5727 28.0953 16.8629 28.2392 17.167C27.8942 17.087 27.649 16.6963 27.446 16.4331Z" fill="var(--fill-0, #6A6B6C)"/>
<path id="Vector_100" d="M42.7027 14.7285C42.5673 14.6639 42.5127 14.6237 42.3893 14.5378L42.4094 14.441C42.7168 14.4294 42.6399 14.4416 42.9439 14.5901L42.7027 14.7285Z" fill="var(--fill-0, #2D3032)"/>
<path id="Vector_101" d="M31.5213 16.4094L31.5906 16.3734L31.8994 16.71L31.8011 16.7684L31.6739 16.7356C31.5747 16.62 31.5298 16.5628 31.5213 16.4094Z" fill="var(--fill-0, #ACABAE)"/>
<path id="Vector_102" d="M24.482 16.5677C24.4966 16.5732 24.5115 16.5778 24.5256 16.5842C24.7706 16.6972 24.7937 16.8582 24.8798 17.0873C24.8076 17.0491 24.7312 17.0114 24.6643 16.9647C24.4956 16.8468 24.5099 16.7531 24.482 16.5677Z" fill="var(--fill-0, #ACABAE)"/>
<path id="Vector_103" d="M3.755 41.6759C3.76366 41.6841 3.77276 41.6919 3.78095 41.7005C4.0573 41.9934 3.91106 42.5353 4.21923 42.8926C4.54874 43.2746 5.09439 43.4021 5.52339 43.6412C5.89161 43.8465 6.16397 44.199 6.53177 44.4119C7.52602 44.9874 9.20117 45.2253 10.3509 45.3085C11.7715 45.4114 13.2135 45.3035 14.6308 45.2005C17.4586 44.9952 20.2901 44.6254 23.1291 44.6617C25.769 44.6955 28.4037 44.8649 31.0457 44.894C33.8772 44.9251 36.7411 44.8129 39.5674 44.9497C41.3723 45.0371 43.1788 45.2485 44.9675 45.4966C45.988 45.6381 47.0098 45.8259 48.0359 45.9173C49.4386 46.0423 50.8518 46.0247 52.2576 46.099C54.563 46.2208 56.868 46.3929 59.1773 46.4202C60.2806 46.4333 61.3867 46.3664 62.4897 46.3387C63.607 46.3106 64.8248 46.368 65.9183 46.1434C66.2391 46.0775 66.4892 45.9746 66.7377 45.7606C66.9584 45.5705 67.1143 45.3182 67.2473 45.0641C67.6259 45.4489 67.8617 45.9752 68.0129 46.4857C68.1626 46.9909 68.2405 47.5226 68.3514 48.0374C68.733 49.8077 69.254 52.1661 68.3023 53.853C67.3808 55.4863 65.8191 56.1487 64.0829 56.6474C62.143 57.2046 60.4318 57.1384 58.4433 57.0823C57.1409 57.0455 55.8329 57.0505 54.5329 56.9608C53.5088 56.8901 52.4912 56.7339 51.4671 56.67C50.5973 56.6159 49.7195 56.6492 48.8482 56.6265C47.6427 56.595 46.4382 56.5205 45.2325 56.5007C41.5538 56.4406 37.8788 56.6527 34.2038 56.6472C32.9468 56.6453 31.6932 56.4823 30.4362 56.4547L18.5479 56.205C15.6158 56.1178 12.8063 56.0272 9.87186 55.8709C8.86063 55.817 7.83585 55.8371 6.82936 55.7222C5.7755 55.6019 4.76789 55.4642 3.8282 54.9508C3.00927 54.5034 2.4742 53.9231 2.21703 53.019C2.08347 52.5494 2.04596 52.0746 2.08339 51.5895C2.17424 50.412 2.55994 49.2344 2.69187 48.0445C2.77332 47.3099 2.86167 46.5711 2.89377 45.8324C2.9291 45.0196 2.88374 44.1935 3.04563 43.3919C3.17361 42.7582 3.4331 42.2345 3.755 41.6759Z" fill="var(--fill-0, #D9C1B2)"/>
<path id="Vector_104" d="M4.67875 52.3853C4.7259 52.365 4.77299 52.3459 4.8212 52.3281C5.56277 52.0537 6.48355 52.1962 7.26556 52.209C8.06949 52.2221 8.8789 52.1349 9.68126 52.1788C11.1917 52.2616 12.6886 52.5002 14.2053 52.5483C15.8687 52.6012 17.5261 52.5122 19.1879 52.5309C20.5368 52.546 21.8845 52.6679 23.233 52.6776C25.5479 52.6943 27.8716 52.3553 30.1871 52.2596C33.404 52.1268 36.6168 52.0707 39.834 51.9905C41.4077 51.9513 42.9765 51.8045 44.5511 51.778C46.4974 51.7454 48.4838 51.8492 50.4339 51.9058C51.5895 51.9393 52.7423 52.0978 53.8954 52.1772C55.706 52.3017 57.5197 52.3635 59.3299 52.507C60.9437 52.6349 63.4466 53.1451 64.9587 52.7952C65.0274 52.8636 65.0751 52.9001 65.1058 52.9943C65.4366 53.3419 65.7617 53.7027 66.118 54.0251C65.35 53.7167 64.1564 53.0818 63.317 53.2496L63.1515 53.3326L62.5962 53.1715L62.3791 53.3977C62.6068 53.6333 62.8548 53.8648 63.0538 54.1245C63.0036 54.1576 62.9517 54.1874 62.895 54.2083C62.0579 54.517 54.6238 53.9367 53.0477 53.9101C51.7568 53.8883 50.4634 53.9284 49.1733 53.8735C47.7913 53.8148 46.4125 53.663 45.0299 53.6279C43.8675 53.5984 42.6986 53.6632 41.5357 53.6724C40.4598 53.681 39.384 53.6367 38.3082 53.658C36.1734 53.7003 33.9595 53.8107 31.8321 53.9998C30.8639 54.0858 29.9033 54.2366 28.9362 54.3297C26.7498 54.5401 24.5075 54.6906 22.3118 54.7282C19.5814 54.7749 16.9204 54.3043 14.207 54.1588C13.1028 54.0995 9.97618 54.0594 9.1267 53.6852L8.79165 53.8674L8.65826 53.8652L8.52887 53.6083L8.18533 53.7927L8.1308 53.8045C8.02365 53.7262 7.93668 53.6805 7.80814 53.6449C7.3854 53.7581 6.1386 53.5838 5.76424 53.3874C5.67718 53.4325 5.62521 53.4855 5.52661 53.4622L5.6962 53.1298L5.48155 52.9327C5.57108 52.8546 5.63902 52.7296 5.70685 52.6321L5.50635 52.5558C5.16579 52.5519 4.96602 52.6183 4.71949 52.8554C4.58907 52.9808 4.47487 53.1203 4.36423 53.2626L4.26599 53.1135C4.42132 52.8834 4.54643 52.6291 4.67875 52.3853Z" fill="var(--fill-0, #D9C1B2)"/>
<path id="Vector_105" d="M4.67875 52.3853C4.7259 52.365 4.77299 52.3459 4.8212 52.3281C5.56277 52.0537 6.48355 52.1962 7.26556 52.209C8.06949 52.2221 8.8789 52.1349 9.68126 52.1788C11.1917 52.2616 12.6886 52.5002 14.2053 52.5483C15.8687 52.6012 17.5261 52.5122 19.1879 52.5309C20.5368 52.546 21.8845 52.6679 23.233 52.6776C25.5479 52.6943 27.8716 52.3553 30.1871 52.2596C33.404 52.1268 36.6168 52.0707 39.834 51.9905C41.4077 51.9513 42.9765 51.8045 44.5511 51.778C46.4974 51.7454 48.4838 51.8492 50.4339 51.9058C51.5895 51.9393 52.7423 52.0978 53.8954 52.1772C55.706 52.3017 57.5197 52.3635 59.3299 52.507C60.9437 52.6349 63.4466 53.1451 64.9587 52.7952C65.0274 52.8636 65.0751 52.9001 65.1058 52.9943C65.4366 53.3419 65.7617 53.7026 66.118 54.0251C65.35 53.7167 64.1564 53.0818 63.317 53.2496L63.1515 53.3326L62.5962 53.1715L62.3791 53.3977C62.2182 53.2686 62.099 53.1778 61.8947 53.1237C61.8078 53.1821 61.7575 53.2364 61.6953 53.3202C61.6599 53.3679 61.6199 53.3616 61.5631 53.3747L61.2458 53.1127C58.2313 52.84 55.1871 52.6801 52.1644 52.5094C49.8992 52.3814 47.5816 52.2045 45.3132 52.2236C43.7198 52.237 42.1261 52.3719 40.5327 52.4129C36.6585 52.5128 32.7788 52.5753 28.907 52.7441C27.0445 52.8253 25.1886 53.0648 23.3226 53.08C21.9773 53.0909 20.6308 52.9738 19.2841 52.9707C17.0036 52.9655 14.7012 53.0632 12.423 52.9666C11.6293 52.9329 10.0275 52.517 9.36887 52.5905L9.17497 52.5922C9.05128 53.0454 8.74124 53.2259 8.52887 53.6083L8.18533 53.7927L8.1308 53.8045C8.02365 53.7262 7.93668 53.6805 7.80814 53.6449C7.3854 53.7581 6.1386 53.5838 5.76424 53.3874C5.67718 53.4325 5.62521 53.4855 5.52661 53.4622L5.6962 53.1298L5.48155 52.9327C5.57108 52.8546 5.63902 52.7296 5.70685 52.6321L5.50635 52.5558C5.16579 52.5519 4.96602 52.6183 4.71949 52.8554C4.58907 52.9808 4.47487 53.1203 4.36423 53.2626L4.26599 53.1135C4.42132 52.8834 4.54643 52.6291 4.67875 52.3853Z" fill="var(--fill-0, #010101)"/>
<path id="Vector_106" d="M5.70765 52.632C5.89817 52.5172 6.15816 52.5608 6.36746 52.6058C6.95643 52.6499 7.49535 52.6451 8.08655 52.7495C7.95915 52.9477 7.7522 53.1981 7.73623 53.4328L7.77787 53.5183L7.80895 53.6448C7.3862 53.758 6.13941 53.5837 5.76505 53.3873C5.67798 53.4324 5.62601 53.4854 5.52742 53.4621L5.697 53.1297L5.48236 52.9326C5.57188 52.8545 5.63982 52.7295 5.70765 52.632Z" fill="var(--fill-0, #D9C1B2)"/>
<path id="Vector_107" d="M5.70765 52.632C5.89817 52.5172 6.15816 52.5608 6.36746 52.6058L6.04946 52.8781C5.88638 52.9262 5.80905 53.0072 5.697 53.1297L5.48236 52.9326C5.57188 52.8545 5.63982 52.7295 5.70765 52.632Z" fill="var(--fill-0, #D9C1B2)"/>
<path id="Vector_108" d="M6.04809 52.8783L6.1312 53.0026C5.99548 53.1227 5.85934 53.2322 5.76368 53.3874C5.67661 53.4325 5.62465 53.4855 5.52605 53.4623L5.69563 53.1299C5.80768 53.0074 5.88501 52.9263 6.04809 52.8783Z" fill="var(--fill-0, #494B4C)"/>
<path id="Vector_109" d="M8.91489 52.5976L9.17531 52.5922C9.05163 53.0454 8.74159 53.2259 8.52922 53.6083L8.18568 53.7927L8.13114 53.8045C8.024 53.7262 7.93702 53.6805 7.80849 53.6449L7.77741 53.5184C8.12245 53.1009 8.40668 52.8263 8.91489 52.5976Z" fill="var(--fill-0, #D9C1B2)"/>
<path id="Vector_110" d="M8.9149 52.5976L9.17532 52.5922C9.05163 53.0454 8.74159 53.2259 8.52922 53.6083L8.18568 53.7927C8.08908 53.502 8.88403 53.0349 8.9149 52.5976Z" fill="var(--fill-0, #161919)"/>
<path id="Vector_111" d="M9.17548 52.5923L9.36939 52.5905L9.63337 52.676L9.68499 52.8095C9.65975 53.0931 9.27971 53.4366 9.12722 53.6852L8.79216 53.8675L8.65878 53.8652L8.52939 53.6083C8.74176 53.2259 9.0518 53.0454 9.17548 52.5923Z" fill="var(--fill-0, #D9C1B2)"/>
<path id="Vector_112" d="M9.68332 52.8095C9.65808 53.0931 9.27804 53.4366 9.12555 53.6852L8.79049 53.8675L8.75706 53.7567C8.98632 53.4361 9.31532 52.9739 9.68332 52.8095Z" fill="var(--fill-0, #2D3032)"/>
<path id="Vector_113" d="M62.3779 53.3975L62.5951 53.1714L63.1504 53.3324L63.3159 53.2494C63.6487 53.6209 64.0534 53.9658 64.3049 54.3966L64.2839 54.4975L64.2319 54.5053C64.1289 54.5833 64.0242 54.6763 63.9066 54.7312C63.8948 54.7319 63.8831 54.7335 63.8712 54.7333C63.5804 54.7257 63.2561 54.3177 63.0527 54.1244C62.8537 53.8646 62.6057 53.6332 62.3779 53.3975Z" fill="var(--fill-0, #DAC1B3)"/>
<path id="Vector_114" d="M62.3779 53.3975L62.5951 53.1714C63.0135 53.7062 63.4872 54.1955 63.9066 54.7312C63.8948 54.7319 63.8831 54.7335 63.8712 54.7333C63.5804 54.7257 63.2561 54.3177 63.0527 54.1244C62.8537 53.8646 62.6057 53.6332 62.3779 53.3975Z" fill="var(--fill-0, #161919)"/>
<path id="Vector_115" d="M63.1506 53.3326L63.3161 53.2496C63.6489 53.621 64.0536 53.9659 64.3051 54.3967L64.2841 54.4976L64.2321 54.5054C63.8639 54.1214 63.5034 53.7304 63.1506 53.3326Z" fill="var(--fill-0, #2D3032)"/>
<path id="Vector_116" d="M5.50661 52.5557L5.70711 52.6321C5.63927 52.7295 5.57134 52.8546 5.48181 52.9326C5.28056 53.0995 5.1039 53.2844 4.89302 53.4427L4.83386 53.4257C5.02095 53.1065 5.29534 52.8973 5.48358 52.5941C5.49146 52.5815 5.49893 52.5685 5.50661 52.5557Z" fill="var(--fill-0, #2D3032)"/>
<path id="Vector_117" d="M64.9581 52.7951C65.2975 52.6542 65.6413 52.5239 65.989 52.4045C65.7903 52.5899 65.1962 52.8137 65.1053 52.9942C65.0745 52.9 65.0269 52.8635 64.9581 52.7951Z" fill="var(--fill-0, #494B4C)"/>
<path id="Vector_118" d="M4.26597 53.1136L4.36421 53.2627C4.28514 53.4079 4.24987 53.5354 4.09944 53.6144C4.08692 53.3967 4.16482 53.3047 4.26597 53.1136Z" fill="var(--fill-0, #2D3032)"/>
<path id="Vector_119" d="M3.25852 30.7192C3.34815 30.5981 3.4443 30.4792 3.51659 30.3472C3.71724 30.8889 3.54874 31.4694 3.76551 32.007C3.77072 32.02 3.77556 32.0331 3.78073 32.046C3.91641 32.3861 4.31475 32.8854 4.61092 33.1082C5.59657 34.1209 7.4816 34.2314 8.80779 34.2589C11.7085 34.3192 14.5794 33.8184 17.4099 33.9515C20.4823 34.096 23.4639 34.6486 26.5142 34.9407C27.8984 35.0733 29.2886 35.0681 30.6774 35.1028C31.889 35.133 33.1012 35.2045 34.3131 35.216C35.547 35.2276 36.8382 35.1615 38.063 35.0113C39.0857 34.8858 40.1018 34.69 41.1302 34.613C42.6516 34.499 44.2283 34.6239 45.7523 34.6871C49.5364 34.8442 53.2813 35.2399 57.0447 35.6509C59.3361 35.9011 61.5961 36.2841 63.91 36.2484C65.2029 36.2285 66.754 36.1051 67.7437 35.1637C67.7803 35.1289 67.8145 35.0921 67.8481 35.0544C67.8442 34.9418 67.8366 34.8312 67.8252 34.7191C67.8996 34.6686 67.973 34.6222 68.0518 34.5783L68.0464 34.3926L67.9485 34.362L67.6739 34.5341C67.7588 34.3522 67.8808 34.226 68.0674 34.141C68.2984 34.8726 68.6368 35.5634 68.9191 36.2762C69.3053 37.251 69.5856 38.2163 69.7899 39.2406C69.4088 40.4114 68.7016 41.8014 67.6895 42.5718C65.6438 44.1291 62.1304 44.0674 59.6557 44.135C56.0043 44.2348 52.4623 43.6859 48.8347 43.4657C47.2697 43.3707 45.6764 43.5838 44.1281 43.4368C41.1144 43.1506 38.0975 42.6077 35.0672 42.5567C31.5308 42.4971 28.0133 42.8579 24.4795 42.8881C21.6114 42.9127 18.735 42.6081 15.8631 42.6865C14.2916 42.7294 12.7243 42.8822 11.1569 42.9952C10.1802 43.0656 9.13294 43.1934 8.15713 43.0716C7.38144 42.9747 7.07313 42.6016 6.62221 42.0215C6.61608 41.7859 6.54571 41.5704 6.52835 41.338C6.50452 41.0188 6.56461 40.7129 6.50167 40.3932C6.39288 40.288 6.30393 40.1971 6.2347 40.0624C6.36523 39.8623 6.51742 39.7235 6.69877 39.5686L6.68736 39.5065C6.17783 39.6934 6.40958 39.3331 6.09172 39.2342C5.96845 39.4913 5.91386 39.7908 5.84293 40.0659C5.47594 39.9421 5.11119 39.8121 4.74884 39.6757C3.79635 39.3158 3.02486 38.7547 2.60642 37.8083C2.32992 37.1828 2.2338 36.4793 2.18176 35.8043C2.01345 33.6215 2.48175 32.7019 3.25852 30.7192Z" fill="var(--fill-0, #D9C1B2)"/>
<path id="Vector_120" d="M5.73284 36.5891C6.25284 36.481 6.6253 36.4734 7.13999 36.6005C7.39206 36.7096 7.59838 36.8051 7.87754 36.8012C7.90007 36.8009 7.92267 36.8014 7.9452 36.8007C7.95874 36.8002 7.97229 36.7988 7.98583 36.7978C8.90268 37.3943 10.2556 37.5806 11.335 37.6709C13.0146 37.8115 14.7446 37.6841 16.4315 37.6806L26.083 37.7251C27.7812 37.7461 29.4351 37.9672 31.1253 38.0638C33.7074 38.2114 36.3552 38.2365 38.9394 38.1533C40.3764 38.1069 41.8027 37.98 43.2366 37.8908C44.6962 37.7999 46.1574 37.7494 47.6157 37.6354C48.8451 37.5394 50.1445 37.2716 51.3716 37.2949C52.2327 37.3112 53.108 37.4296 53.9659 37.5139C56.6527 37.7777 59.3309 38.2052 62.0257 38.3589C62.5441 38.3884 63.2483 38.5135 63.7482 38.432C63.8192 38.4204 63.8884 38.3915 63.9529 38.361L64.0924 38.4255C64.2606 38.475 64.4264 38.5323 64.6022 38.5454L64.7843 38.6284C65.3896 38.8495 65.9038 39.7228 66.2695 40.242C66.0568 40.1016 65.6779 39.7437 65.4254 39.7452C65.2721 39.8586 65.2608 39.9553 65.1988 40.1291C64.9499 40.4557 65.3087 41.0568 65.1245 41.4889C65.0701 41.6166 64.9534 41.7106 64.8234 41.7601C63.7044 42.1866 63.2621 41.087 62.4411 40.7283C61.271 40.2171 56.4116 39.6522 54.8799 39.5977C53.2211 39.5388 51.5553 39.6199 49.8957 39.6286C48.4957 39.636 47.0922 39.5548 45.6938 39.6488C44.5762 39.7239 43.4607 39.9075 42.3462 40.0233C41.0081 40.1624 39.6464 40.2298 38.3015 40.2565C33.4883 40.3521 28.6669 39.9384 23.8624 39.7324C21.2274 39.6194 18.5899 39.7185 15.953 39.6071C13.8037 39.5163 11.5405 39.2414 9.48597 39.9793C9.4494 39.9894 9.41282 39.9995 9.37575 40.0079C9.13672 40.0619 8.90667 40.0342 8.70122 39.8988C8.54738 39.7973 8.4033 39.6279 8.37314 39.4447C8.34085 39.249 8.34242 39.0071 8.46732 38.8441L8.58958 38.4316C8.18822 38.3075 7.82094 38.0699 7.39427 38.0206C6.71595 37.9422 5.95708 38.1758 5.30405 37.927C5.13235 37.745 5.14723 37.6284 5.10982 37.3867C5.23726 37.0645 5.49337 36.8319 5.73284 36.5891Z" fill="var(--fill-0, #B4A093)"/>
<path id="Vector_121" d="M5.73284 36.5891C6.25284 36.481 6.6253 36.4734 7.13999 36.6005C7.39206 36.7096 7.59838 36.8051 7.87754 36.8012C7.90007 36.8009 7.92267 36.8014 7.9452 36.8007C7.95874 36.8002 7.97229 36.7988 7.98583 36.7978C8.90268 37.3943 10.2556 37.5806 11.335 37.6709C13.0146 37.8115 14.7446 37.6841 16.4315 37.6806L26.083 37.7251C27.7812 37.7461 29.4351 37.9672 31.1253 38.0638C33.7074 38.2114 36.3552 38.2365 38.9394 38.1533C40.3764 38.1069 41.8027 37.98 43.2366 37.8908C44.6962 37.7999 46.1574 37.7494 47.6157 37.6354C48.8451 37.5394 50.1445 37.2716 51.3716 37.2949C52.2327 37.3112 53.108 37.4296 53.9659 37.5139C56.6527 37.7777 59.3309 38.2052 62.0257 38.3589C62.5441 38.3884 63.2483 38.5135 63.7482 38.432C63.8192 38.4204 63.8884 38.3915 63.9529 38.361L64.0924 38.4255C64.2606 38.475 64.4264 38.5323 64.6022 38.5454L64.7843 38.6284C65.3896 38.8495 65.9038 39.7228 66.2695 40.242C66.0568 40.1016 65.6779 39.7437 65.4254 39.7452C65.2721 39.8586 65.2608 39.9553 65.1988 40.1291C64.9142 39.7447 65.1307 39.5077 64.6092 39.0361C64.1541 38.9743 63.7097 38.9404 63.2505 38.9281C63.1194 38.9303 63.1021 38.9484 62.9968 39.0172C62.8398 38.9259 62.6258 38.8879 62.4505 38.8376L62.2521 38.9941C61.7339 38.6175 53.0975 37.8466 51.833 37.8133C50.0733 37.767 48.2895 38.0386 46.5338 38.1576C43.4184 38.3837 40.2957 38.4965 37.1719 38.4961C35.0403 38.4883 32.8954 38.4676 30.7662 38.3719C29.2965 38.3059 27.8299 38.1696 26.3598 38.119C24.4673 38.0537 22.5456 38.0989 20.6501 38.0922C18.8408 38.0859 17.0186 38.0121 15.2111 38.044C14.4713 38.057 13.7328 38.1295 12.994 38.1649C11.9846 38.2133 10.9149 37.9739 9.92183 38.1142L9.78146 38.0279C9.55277 37.9957 9.36699 37.9619 9.17194 38.1209C8.94852 38.3031 8.76367 38.819 8.46732 38.8441L8.58958 38.4316C8.18822 38.3075 7.82094 38.0699 7.39427 38.0206C6.71595 37.9422 5.95708 38.1758 5.30405 37.927C5.13235 37.745 5.14723 37.6284 5.10982 37.3867C5.23726 37.0645 5.49337 36.8319 5.73284 36.5891Z" fill="var(--fill-0, #010101)"/>
<path id="Vector_122" d="M5.10982 37.3866C5.12392 37.3853 5.13806 37.3844 5.15212 37.3826C5.5238 37.3363 5.81983 37.0792 6.18823 37.0162C7.2199 36.8399 8.05862 37.4981 8.99921 37.761C8.86361 37.9818 8.70984 38.2029 8.58958 38.4315C8.18822 38.3075 7.82094 38.0698 7.39427 38.0205C6.71595 37.9422 5.95708 38.1758 5.30405 37.9269C5.13235 37.745 5.14723 37.6284 5.10982 37.3866Z" fill="var(--fill-0, #D9C1B2)"/>
<path id="Vector_123" d="M8.46878 38.844C8.76513 38.8189 8.94999 38.303 9.17341 38.1208C9.36845 37.9618 9.55423 37.9956 9.78293 38.0278C9.50276 38.4236 9.19415 38.7791 9.00737 39.2305L8.94036 39.4244C9.0078 39.5083 9.05642 39.5224 9.15943 39.5581C9.25845 39.5924 9.35099 39.6166 9.39704 39.7181C9.43482 39.8016 9.46106 39.8916 9.48743 39.9791C9.45086 39.9892 9.41429 39.9994 9.37722 40.0078C9.13819 40.0618 8.90814 40.034 8.70268 39.8986C8.54884 39.7972 8.40477 39.6277 8.37461 39.4446C8.34232 39.2488 8.34389 39.007 8.46878 38.844Z" fill="var(--fill-0, #D9C1B2)"/>
<path id="Vector_124" d="M62.9965 39.017C63.1019 38.9483 63.1192 38.9301 63.2503 38.928C63.2512 38.9393 63.2517 38.9507 63.2534 38.962C63.3346 39.5356 64.171 39.9162 64.1676 40.5613L64.0982 40.6477C63.9401 40.4627 63.8745 40.2576 63.7435 40.0587C63.5088 39.7022 63.2306 39.3753 62.9965 39.017Z" fill="var(--fill-0, #161919)"/>
<path id="Vector_125" d="M9.78097 38.028L9.92134 38.1143C9.68822 38.5039 9.45055 38.8796 9.17986 39.2451C9.09874 39.2559 9.07949 39.2622 9.00542 39.2306C9.1922 38.7792 9.50081 38.4238 9.78097 38.028Z" fill="var(--fill-0, #494B4C)"/>
<path id="Vector_126" d="M62.2538 38.9942L62.4521 38.8376C62.452 38.8499 62.4514 38.8622 62.452 38.8745C62.4696 39.2191 62.8613 39.4079 62.8708 39.7365L62.7843 39.7388C62.5959 39.5394 62.3266 39.2607 62.2538 38.9942Z" fill="var(--fill-0, #2D3032)"/>
<path id="Vector_127" d="M4.97874 35.587C6.01328 35.8577 7.19911 36.036 7.98592 36.7976C7.97238 36.7986 7.95883 36.8 7.94529 36.8005C7.92276 36.8012 7.90016 36.8007 7.87764 36.801C7.59847 36.8049 7.39216 36.7094 7.14008 36.6003L7.29478 36.5145C7.09406 36.2738 5.45297 35.8443 4.97874 35.587Z" fill="var(--fill-0, #494B4C)"/>
<path id="Vector_128" d="M64.6017 38.5453C65.0063 38.1843 65.6647 37.8976 66.1822 37.7283C65.7703 38.0102 65.1091 38.2865 64.7838 38.6283L64.6017 38.5453Z" fill="var(--fill-0, #494B4C)"/>
<path id="Vector_129" d="M65.2829 37.4913C64.9425 37.9306 64.4658 38.0553 64.093 38.4255L63.9535 38.361C64.3487 38.0109 64.8275 37.7573 65.2829 37.4913Z" fill="var(--fill-0, #D9C1B2)"/>
<path id="Vector_130" d="M6.07457 20.82C7.28995 21.6237 9.00509 22.1954 10.4572 22.3875C12.9394 22.716 15.5997 22.5742 18.1055 22.5694C19.8432 22.5697 21.5801 22.6501 23.3102 22.8101C26.5462 23.0994 29.8253 23.355 33.0453 23.7835C34.4627 23.9721 35.8956 24.1413 37.3066 24.37C38.4624 24.5573 39.5959 24.8097 40.7601 24.9574C43.0006 25.2418 45.2502 25.3878 47.4881 25.6566C48.7494 25.8081 49.9957 26.0724 51.2574 26.2189C52.9392 26.4143 54.6548 26.4783 56.3456 26.5854C58.2844 26.7081 60.1758 26.8674 62.1226 26.8657C62.9837 26.865 63.9756 26.94 64.8228 26.7936L64.7859 26.5358C64.986 26.3263 65.7905 26.1673 66.086 26.1564C66.2903 26.1488 66.5024 26.3695 66.6469 26.4956C66.7454 26.6346 66.8849 26.7911 66.9378 26.9523L66.9843 27.088C67.0769 28.0792 67.3757 29.1977 67.3994 30.1737C67.4218 31.1037 66.9526 32.8666 66.4857 33.6945C65.2165 34.1217 64.2942 33.9392 62.9855 33.9088C61.3147 33.8701 59.6639 33.8372 58.0023 33.6297C56.6194 33.457 55.2544 33.1429 53.8624 33.0645C50.0925 32.862 46.2808 32.5423 42.5063 32.5517C39.9741 32.558 37.3431 32.8776 34.8097 32.8411C32.0591 32.8052 29.3101 32.6905 26.5662 32.4969C25.441 32.4175 24.335 32.2268 23.201 32.1762C21.3853 32.1346 19.6723 32.2153 17.8463 32.1303C14.9767 31.9966 12.0282 31.6451 9.16549 31.7218C7.83089 31.7576 6.63872 31.9056 5.30459 31.7382C4.08385 30.4981 4.18319 29.2399 4.03141 27.6657C3.77409 24.9971 3.43476 23.4593 5.46102 21.3013C5.66672 21.1423 5.87124 20.9819 6.07457 20.82Z" fill="var(--fill-0, #D9C1B2)"/>
<path id="Vector_131" d="M6.07521 20.82C7.29059 21.6237 9.00573 22.1954 10.4578 22.3875C12.94 22.716 15.6003 22.5742 18.1061 22.5694C19.8439 22.5697 21.5807 22.6501 23.3108 22.8101C26.5468 23.0994 29.8259 23.355 33.0459 23.7835C34.4633 23.9721 35.8963 24.1413 37.3072 24.37C38.463 24.5573 39.5965 24.8097 40.7607 24.9574C43.0013 25.2418 45.2509 25.3878 47.4888 25.6566C48.75 25.8081 49.9963 26.0724 51.258 26.2189C52.9398 26.4143 54.6555 26.4783 56.3462 26.5854C58.285 26.7081 60.1764 26.8674 62.1233 26.8657C62.9844 26.865 63.9762 26.94 64.8234 26.7936L64.7865 26.5358C64.9867 26.3263 65.7912 26.1673 66.0867 26.1564C66.2909 26.1488 66.5031 26.3695 66.6475 26.4956C66.746 26.6346 66.8855 26.7911 66.9384 26.9523C66.7214 27.02 66.6091 27.0346 66.4496 27.1986L66.4113 27.3546L66.247 27.529C66.219 27.4082 66.189 27.342 66.1109 27.2444L65.8827 27.2501L65.7683 27.2484C65.4744 27.4617 65.3843 27.6654 65.3318 28.0181C65.3158 28.1221 65.3071 28.227 65.3054 28.3322C64.9151 28.35 64.5073 28.406 64.1184 28.4018C60.8215 28.6139 57.4023 28.3528 54.119 28.004C52.8625 27.8705 51.6092 27.681 50.3507 27.571L41.3921 26.7423C39.8304 26.5923 38.2667 26.5323 36.7145 26.2877C35.5485 26.104 34.4102 25.7842 33.2606 25.5233C31.4944 25.1103 29.7052 24.7989 27.9021 24.5908C25.9053 24.3775 23.9014 24.4443 21.8992 24.3832C18.6851 24.285 15.5145 24.0906 12.3217 23.7153C10.4646 23.4969 8.60431 23.2893 6.85968 22.5755C6.47502 22.4181 5.83259 22.1293 5.62042 21.7707C5.56092 21.67 5.5296 21.4602 5.47869 21.3407L5.46166 21.3013C5.66736 21.1423 5.87188 20.9819 6.07521 20.82Z" fill="var(--fill-0, #B4A093)"/>
<path id="Vector_132" d="M64.1189 28.4018C64.4353 28.2789 64.8004 28.3188 65.0916 28.1279C65.1666 27.9582 65.1636 27.9393 65.1238 27.7574L64.9414 27.877L65.0263 27.8308L64.9837 27.8752L64.9068 27.8268L64.8767 27.6733C65.0801 27.3816 65.4373 27.3341 65.7687 27.2484C65.4749 27.4618 65.3848 27.6654 65.3322 28.0181C65.3163 28.1221 65.3075 28.227 65.3059 28.3322C64.9156 28.35 64.5077 28.4061 64.1189 28.4018Z" fill="var(--fill-0, #D9C1B2)"/>
<path id="Vector_133" d="M66.4118 27.3546C66.6334 29.0138 66.4324 30.3216 66.0296 31.9339C65.9028 30.4774 66.3463 29.0158 66.2475 27.5289L66.4118 27.3546Z" fill="var(--fill-0, #494B4C)"/>
<path id="Vector_134" d="M65.7683 27.2484L65.8827 27.2501C65.8235 27.4827 65.7387 28.1057 65.5191 28.243C65.4542 28.2836 65.3779 28.3086 65.3054 28.3322C65.307 28.227 65.3158 28.1221 65.3318 28.0181C65.3843 27.6654 65.4744 27.4618 65.7683 27.2484Z" fill="var(--fill-0, #ACABAE)"/>
<path id="Vector_135" d="M3.68174 31.5691C3.75768 31.3238 3.81937 30.9994 3.96522 30.7896C4.35521 30.9444 4.61352 31.6998 4.96105 31.9773L5.09852 31.9058C5.42085 32.0824 5.72348 32.2102 6.09354 32.2499C7.17354 32.3658 8.25764 32.1825 9.33667 32.1977C10.1043 32.2085 10.8752 32.2966 11.6424 32.3332C12.8105 32.3889 13.9807 32.4 15.1487 32.4557C18.0252 32.5926 20.9095 32.5782 23.782 32.7314C27.4307 32.926 31.0887 33.2933 34.7462 33.3167C35.9728 33.3246 37.1721 33.1048 38.3928 33.0593C41.4625 32.9252 44.5369 32.9261 47.6065 33.0619C48.5104 33.0947 49.4127 33.2126 50.3147 33.2798C51.7388 33.3858 53.1466 33.4573 54.5672 33.6176C56.0522 33.7852 57.533 34.0335 59.0192 34.1778C60.2517 34.2975 61.5053 34.3212 62.7428 34.3472C63.9311 34.3721 65.1201 34.3955 66.288 34.1402C66.6627 33.7871 67.1808 33.018 67.2442 32.4925C67.3032 32.5805 67.3415 32.6593 67.4355 32.7141C67.3941 33.0592 67.9428 33.76 68.0671 34.1411C67.8805 34.2261 67.7585 34.3523 67.6736 34.5342L67.9482 34.3622L68.0461 34.3927L68.0515 34.5785C67.9727 34.6224 67.8993 34.6687 67.8249 34.7192C67.8363 34.8313 67.8439 34.942 67.8478 35.0545C67.8142 35.0923 67.78 35.1291 67.7434 35.1639C66.7537 36.1053 65.2026 36.2287 63.9097 36.2486C61.5958 36.2843 59.3358 35.9013 57.0444 35.651C53.281 35.24 49.5361 34.8444 45.752 34.6873C44.228 34.6241 42.6513 34.4991 41.1299 34.6131C40.1015 34.6902 39.0854 34.886 38.0627 35.0114C36.8379 35.1617 35.5467 35.2278 34.3128 35.2162C33.1009 35.2046 31.8888 35.1332 30.6771 35.103C29.2883 35.0683 27.8981 35.0734 26.5139 34.9409C23.4636 34.6487 20.482 34.0961 17.4096 33.9517C14.5791 33.8186 11.7082 34.3193 8.80749 34.2591C7.4813 34.2315 5.59627 34.1211 4.61062 33.1084C4.44837 32.5875 3.94202 32.0783 3.68174 31.5691Z" fill="var(--fill-0, #D9C1B2)"/>
<path id="Vector_136" d="M4.639 39.9226C5.00923 40.075 5.40861 40.2107 5.74795 40.4229L5.76542 40.4506C5.98425 40.8024 6.01963 41.114 6.14419 41.4931C6.42854 42.3585 7.14673 43.1923 8.06173 43.413C10.1158 43.9087 13.1659 43.2946 15.3453 43.233C18.4907 43.1442 21.6335 43.2723 24.7766 43.2339C26.8515 43.2086 28.9357 43.0014 31.0084 43.0111C31.8528 43.015 32.6963 43.084 33.5409 43.0838C34.3821 43.0836 35.2377 43.0138 36.0768 43.0729C38.5375 43.2462 40.9844 43.6417 43.4452 43.7973C45.3588 43.9183 47.2698 43.7617 49.1887 43.902C50.8902 44.0264 52.5567 44.3731 54.2514 44.5296C57.1561 44.7978 61.281 44.5838 64.1468 44.1459C64.8366 44.6353 66.3085 44.2647 67.181 44.76C67.1961 44.8653 67.2086 44.9639 67.2476 45.0639C67.1146 45.3179 66.9588 45.5703 66.7381 45.7603C66.4895 45.9744 66.2394 46.0773 65.9186 46.1432C64.8251 46.3677 63.6073 46.3103 62.49 46.3384C61.387 46.3662 60.2809 46.433 59.1776 46.42C56.8683 46.3926 54.5633 46.2206 52.258 46.0987C50.8521 46.0244 49.4389 46.042 48.0362 45.9171C47.0101 45.8256 45.9884 45.6378 44.9678 45.4963C43.1791 45.2482 41.3726 45.0368 39.5677 44.9495C36.7414 44.8126 33.8775 44.9249 31.046 44.8937C28.404 44.8646 25.7693 44.6952 23.1294 44.6614C20.2904 44.6252 17.4589 44.9949 14.6311 45.2003C13.2138 45.3032 11.7718 45.4111 10.3512 45.3083C9.20149 45.2251 7.52634 44.9871 6.53209 44.4116C6.16429 44.1987 5.89193 43.8462 5.52371 43.6409C5.09471 43.4019 4.54906 43.2743 4.21955 42.8923C3.91138 42.535 4.05762 41.9932 3.78127 41.7003C3.77308 41.6916 3.76398 41.6838 3.75532 41.6756C4.09077 41.1138 4.4536 40.5538 4.639 39.9226Z" fill="var(--fill-0, #D9C1B2)"/>
<path id="Vector_137" d="M68.3381 20.6876C68.6773 20.4799 69.04 20.3119 69.4187 20.1867C69.2631 20.395 69.0288 20.6434 69.0426 20.8869L69.2834 21.5735L69.2702 21.8628C69.4461 22.4634 69.6258 23.0606 69.8791 23.6349C70.7087 25.5169 71.6084 26.6875 71.4737 28.8589C71.4366 29.4525 71.3453 30.0311 71.0466 30.5582C70.4793 31.559 69.2496 32.2925 68.212 32.7369C68.1931 32.7008 68.1719 32.6579 68.1636 32.6181C68.1108 32.3654 68.3894 30.5374 68.4763 30.2693C68.4885 30.2316 68.5554 30.164 68.5816 30.1292C68.7038 30.2064 68.8241 30.3246 68.9698 30.3092C68.8936 30.1605 68.7433 29.9705 68.7854 29.8094C68.9736 29.7512 69.182 29.6971 69.3587 29.6118C69.4686 29.5587 69.5644 29.4537 69.5969 29.3378C69.7614 28.7512 69.3419 27.4939 69.0375 26.9843C68.6557 26.747 67.9673 27.198 67.3094 27.0437C67.2027 26.9369 67.124 26.7918 67.0405 26.666C66.9628 26.5341 66.838 26.4062 66.7418 26.2849C66.6712 26.1727 66.4963 25.9379 66.5433 25.7996C66.6441 25.5029 66.8426 25.1882 66.9827 24.9056C67.3724 24.119 67.6997 23.3179 67.8078 22.4443C67.9143 21.8412 67.7764 21.6151 67.878 21.0703C67.9193 20.849 68.13 20.7947 68.3381 20.6876Z" fill="var(--fill-0, #D9C1B2)"/>
<path id="Vector_138" d="M68.3381 20.6876C68.6773 20.4799 69.04 20.3119 69.4187 20.1867C69.2631 20.395 69.0288 20.6434 69.0426 20.8869L69.2834 21.5735L69.2702 21.8628L69.0359 21.8584C68.9485 21.9613 68.9376 22.0382 68.9195 22.1692C68.5874 23.1042 67.7616 26.1506 67.0405 26.666C66.9628 26.5341 66.838 26.4062 66.7418 26.2849C66.6712 26.1727 66.4963 25.9379 66.5433 25.7996C66.6441 25.5029 66.8426 25.1882 66.9827 24.9056C67.3724 24.119 67.6997 23.3179 67.8078 22.4443C67.9143 21.8412 67.7764 21.6151 67.878 21.0703C67.9193 20.849 68.13 20.7947 68.3381 20.6876Z" fill="var(--fill-0, #D9C1B2)"/>
<path id="Vector_139" d="M68.9201 22.1691C68.8195 21.705 68.4001 21.075 69.0432 20.8868L69.284 21.5734L69.2708 21.8627L69.0365 21.8583C68.9491 21.9612 68.9382 22.0381 68.9201 22.1691Z" fill="var(--fill-0, #D9C1B2)"/>
<path id="Vector_140" d="M68.0835 28.2823L68.2058 28.0589C68.3008 28.0436 68.3214 28.0239 68.3989 28.0834C68.5673 28.2124 68.7051 28.5812 68.7252 28.7878C68.7369 28.9076 68.7294 29.0336 68.7255 29.1538C68.6827 29.5 68.4907 29.7977 68.5811 30.1291C68.5549 30.1638 68.488 30.2315 68.4758 30.2691C68.3889 30.5372 68.1103 32.3653 68.163 32.6179C68.1714 32.6577 68.1926 32.7006 68.2115 32.7367C68.0296 32.8155 67.8901 32.914 67.685 32.8542C67.602 32.83 67.5082 32.7602 67.4353 32.714C67.3413 32.6592 67.303 32.5804 67.244 32.4923C67.7242 31.263 67.6307 30.0111 67.8052 28.736C67.8382 28.4946 67.8885 28.4276 68.0835 28.2823Z" fill="var(--fill-0, #D9C1B2)"/>
<path id="Vector_141" d="M68.0834 28.2823L68.2057 28.0589C68.3007 28.0436 68.3212 28.0239 68.3988 28.0834C68.5671 28.2124 68.7049 28.5812 68.725 28.7878C68.7367 28.9076 68.7292 29.0336 68.7254 29.1538C68.6537 29.2214 68.6154 29.2889 68.5698 29.3741C68.5402 29.4291 68.5643 29.4021 68.4896 29.4397L68.3684 29.0327C68.3886 28.8398 68.4265 28.6417 68.3558 28.4553L68.2172 28.4126L68.0834 28.2823Z" fill="var(--fill-0, #6A6B6C)"/>
<path id="Vector_142" d="M68.2174 28.4126L68.3561 28.4553C68.4267 28.6417 68.3889 28.8398 68.3686 29.0327L68.2911 29.1299L68.2024 29.1332C68.1379 28.8949 68.1871 28.6532 68.2174 28.4126Z" fill="var(--fill-0, #161919)"/>
<path id="Vector_143" d="M64.1464 44.1461C64.5983 44.0571 66.3996 43.4775 66.7086 43.6782C66.9901 43.861 67.1043 44.1772 67.3475 44.4057L67.4272 44.5191L67.1806 44.7602C66.3081 44.2649 64.8362 44.6355 64.1464 44.1461Z" fill="var(--fill-0, #DAC1B3)"/>
<path id="Vector_144" d="M3.2586 30.7194C3.44062 30.0968 3.60446 29.4705 3.77134 28.844C3.87158 30.1231 4.23094 30.9598 5.0989 31.9058L4.96143 31.9773C4.6139 31.6998 4.35559 30.9445 3.9656 30.7896C3.81975 30.9994 3.75806 31.3239 3.68211 31.5691C3.9424 32.0783 4.44875 32.5875 4.611 33.1084C4.31483 32.8856 3.91649 32.3863 3.78081 32.0462C3.77564 32.0333 3.7708 32.0202 3.76559 32.0072C3.54882 31.4696 3.71732 30.8891 3.51667 30.3474C3.44438 30.4794 3.34823 30.5983 3.2586 30.7194Z" fill="var(--fill-0, #D9C1B2)"/>
<path id="Vector_145" d="M66.7422 26.2849C66.8384 26.4062 66.9632 26.5342 67.041 26.6661C67.1244 26.7919 67.2031 26.9369 67.3099 27.0437L66.9858 27.0881L66.9393 26.9523C66.8864 26.7911 66.7469 26.6346 66.6484 26.4956L66.7422 26.2849Z" fill="var(--fill-0, #161919)"/>
<path id="Vector_146" d="M69.06 28.5582C69.069 28.5629 69.0784 28.5668 69.087 28.5723C69.2349 28.6645 69.2814 28.6995 69.3265 28.8688C69.3904 29.1086 69.2318 29.3543 69.1087 29.5475C68.9955 29.5139 68.9892 29.5069 68.9158 29.4152C68.9619 29.1292 69.0099 28.8436 69.06 28.5582Z" fill="var(--fill-0, #DAC1B3)"/>
</g>
</svg>
