<svg preserveAspectRatio="none" width="100%" height="100%" overflow="visible" style="display: block;" viewBox="0 0 74 71" fill="none" xmlns="http://www.w3.org/2000/svg">
<g id="A single realistic rolled carpet isolated on a transparent background, high-quality, e-commerce style. [Vectorized]" clip-path="url(#clip0_19293_1005)">
<g id="Vector">
</g>
<path id="Vector_2" d="M29.9822 -3.01548H31.5285H33.4584H34.6476C34.7081 -1.95281 34.5128 -1.41972 34.7144 -0.176942C35.3592 0.0892529 35.9379 0.492042 36.4102 1.00337C37.1847 1.85317 37.8349 3.24329 38.5368 4.18634C41.0009 7.49687 42.8143 10.3363 43.4507 14.5198C43.6018 15.299 43.5235 16.262 43.6558 17.0247C43.9037 18.4535 44.0256 19.3377 43.9511 20.7864C46.7784 18.0771 51.9469 13.2082 55.6844 12.1946C54.9505 10.5433 54.7391 10.0656 55.3511 8.30268C56.3136 8.18871 58.4948 8.20517 59.4501 8.50129C59.6804 8.57265 60.0492 8.81962 60.2619 8.96341C60.2971 10.0068 60.2613 11.1131 60.2898 12.1831C62.1497 12.8552 62.7915 14.5441 63.8085 16.064C66.0251 19.3768 68.3991 22.7988 69.3187 26.7326C69.5027 27.4415 69.445 28.3552 69.6019 29.0478C70.15 31.4677 70.4036 33.197 69.4566 35.5435C68.5341 37.8289 67.0593 39.3783 65.7653 41.4247C64.9751 41.0143 64.7452 40.8713 63.8705 40.6948C63.535 42.2085 63.2706 43.3672 63.2083 44.9352C63.113 47.3379 63.3366 50.3835 62.4433 52.6522C60.1798 58.4006 52.7322 63.0678 47.35 65.5781C43.8558 67.2097 40.0912 68.291 36.2152 67.672C33.6501 67.2623 31.306 66.5944 30.1197 64.0447C29.3785 62.4516 29.6345 60.9841 29.6995 59.2982C29.8021 56.6404 30.1372 54.1075 31.0895 51.5947C28.1378 55.1736 24.1862 58.4906 19.8959 60.2633C16.2173 61.7833 10.5369 61.9922 8.87771 57.5927C8.05345 55.8173 8.311 54.186 8.23534 52.3507C8.11921 49.5331 8.28874 47.6108 8.90763 44.8476C9.33529 42.9246 9.8332 41.0177 10.4004 39.1307C10.7492 37.9768 11.2385 36.6062 11.5539 35.4821C11.9058 34.2282 11.6932 33.5875 12.2701 32.0828C13.0914 29.9403 13.9112 27.8223 14.8457 25.7202C15.2286 24.8589 15.6497 24.0321 16.0518 23.1813C16.236 22.7916 16.0134 21.9248 16.1283 21.5766C16.256 21.1896 16.515 20.6646 16.6724 20.2576C17.0481 19.2863 17.3871 18.1997 17.8103 17.2566C18.6109 15.4726 19.6547 13.6918 20.5942 11.9696C22.8169 7.89489 25.648 2.04312 30.2401 0.233363C30.2062 -0.895579 29.7124 -1.95299 29.9822 -3.01548ZM9.2141 55.923C9.07514 55.423 8.96703 55.1369 8.76866 54.6561C8.83146 55.2571 8.92634 55.6291 9.07449 56.22L9.2141 55.923ZM52.8596 37.0675C52.7734 36.7802 52.7457 36.6251 52.5566 36.3945L52.4708 36.399C52.4419 36.6328 52.6286 36.9066 52.7466 37.1252L52.8596 37.0675Z" fill="var(--fill-0, black)"/>
<path id="Vector_3" d="M31.5283 -3.01548H33.4582C33.4431 -2.14118 33.4418 -1.26669 33.4542 -0.392349C32.4749 -0.425353 31.7688 -0.263128 30.8426 0.00814067C30.7348 -0.607324 30.4633 -2.03529 30.646 -2.5823C30.8044 -2.7804 31.236 -2.88162 31.5283 -3.01548Z" fill="var(--fill-0, #D8BFB1)"/>
<path id="Vector_4" d="M36.7645 50.4778C43.1188 50.1285 50.6065 53.8494 55.527 57.608C53.172 59.5241 49.7651 61.6022 47.0071 62.8637C42.9206 64.6469 38.6307 65.756 34.2011 64.4576C28.7186 62.8505 30.3606 55.4964 31.7149 51.4683C33.3389 50.938 35.0523 50.559 36.7645 50.4778Z" fill="var(--fill-0, #D8BFB1)"/>
<path id="Vector_5" d="M39.1846 51.7904C39.3181 51.6945 39.4932 51.6775 39.6428 51.746C39.7924 51.8145 39.8933 51.9579 39.9069 52.1211C39.9204 52.2842 39.8445 52.442 39.7082 52.5339C39.5017 52.6732 39.2211 52.6219 39.078 52.4187C38.9349 52.2155 38.9824 51.9357 39.1846 51.7904Z" fill="var(--fill-0, black)"/>
<path id="Vector_6" d="M45.6963 54.0808C45.8989 53.9442 46.1743 53.9942 46.3152 54.1931C46.4563 54.3921 46.4111 54.6667 46.2136 54.8105C46.0826 54.9059 45.9101 54.9236 45.7623 54.8567C45.6146 54.7898 45.5146 54.6488 45.5009 54.488C45.4872 54.3271 45.562 54.1714 45.6963 54.0808Z" fill="var(--fill-0, black)"/>
<path id="Vector_7" d="M52.9916 57.4978C53.1993 57.3793 53.4643 57.4497 53.5849 57.6554C53.7054 57.8612 53.6364 58.1251 53.4304 58.2465C53.2223 58.3689 52.9537 58.2995 52.8319 58.0917C52.7102 57.884 52.7819 57.6174 52.9916 57.4978Z" fill="var(--fill-0, black)"/>
<path id="Vector_8" d="M42.2803 54.958C42.406 54.8498 42.5833 54.8229 42.7357 54.8891C42.8882 54.9553 42.989 55.1028 42.9946 55.2681C43.0002 55.4335 42.9098 55.5874 42.7622 55.6638C42.5679 55.7642 42.3287 55.7041 42.2056 55.524C42.0826 55.3438 42.1146 55.1006 42.2803 54.958Z" fill="var(--fill-0, black)"/>
<path id="Vector_9" d="M47.8663 55.0033L48.1228 55.0744C48.2977 55.228 48.3191 55.2485 48.3627 55.4749C48.2838 55.8026 48.339 55.6899 48.0881 55.9282C47.7955 55.8427 47.6046 55.8173 47.4875 55.5193C47.5194 55.2824 47.6873 55.1684 47.8663 55.0033Z" fill="var(--fill-0, black)"/>
<path id="Vector_10" d="M37.8186 53.2366C38.0251 53.165 38.2518 53.267 38.3341 53.4685C38.4164 53.67 38.3254 53.9002 38.1273 53.9921C37.9898 54.0558 37.8282 54.0391 37.707 53.9485C37.5858 53.8579 37.5247 53.7083 37.548 53.5592C37.5713 53.4103 37.6754 53.2862 37.8186 53.2366Z" fill="var(--fill-0, black)"/>
<path id="Vector_11" d="M48.9092 57.9057C49.2161 57.9041 49.3831 57.872 49.5803 58.1222C49.592 58.3582 49.5024 58.4736 49.3852 58.6753C49.1329 58.6385 48.9372 58.5748 48.7981 58.3519C48.7854 58.0677 48.7746 58.1672 48.9092 57.9057Z" fill="var(--fill-0, black)"/>
<path id="Vector_12" d="M40.9126 53.9265C41.0198 53.8359 41.1681 53.8105 41.2996 53.86C41.4311 53.9096 41.5251 54.0264 41.545 54.1649C41.5648 54.3034 41.5073 54.4417 41.395 54.5258C41.2282 54.6508 40.9917 54.6212 40.8612 54.459C40.7307 54.2969 40.7535 54.061 40.9126 53.9265Z" fill="var(--fill-0, black)"/>
<path id="Vector_13" d="M49.6768 55.5969C49.7866 55.5129 49.9336 55.4949 50.0606 55.5497C50.1878 55.6045 50.2749 55.7235 50.2884 55.8606C50.3018 55.9977 50.2394 56.1312 50.1255 56.2094C49.9553 56.3261 49.7226 56.2868 49.6009 56.1205C49.4791 55.9544 49.5129 55.722 49.6768 55.5969Z" fill="var(--fill-0, black)"/>
<path id="Vector_14" d="M37.0061 51.5756C37.1773 51.4878 37.3878 51.5532 37.478 51.7224C37.5683 51.8917 37.5047 52.1017 37.3355 52.1933C37.2244 52.2535 37.0894 52.2496 36.9819 52.1832C36.8744 52.1168 36.8111 51.9981 36.8161 51.8724C36.8211 51.7467 36.8937 51.6333 37.0061 51.5756Z" fill="var(--fill-0, black)"/>
<path id="Vector_15" d="M33.8157 53.2056C34.0372 53.2075 34.2012 53.1839 34.3651 53.3333C34.4567 53.5295 34.3792 53.7592 34.3343 53.9772C34.1226 53.9759 34.0946 53.9752 33.9102 53.8739C33.771 53.6928 33.81 53.4408 33.8157 53.2056Z" fill="var(--fill-0, black)"/>
<path id="Vector_16" d="M32.0529 53.7463C32.2283 53.6747 32.4291 53.7555 32.5051 53.9281C32.5812 54.1009 32.5047 54.3023 32.3328 54.3819C32.218 54.435 32.0833 54.4222 31.9808 54.3483C31.8782 54.2745 31.8239 54.1512 31.839 54.0263C31.8539 53.9013 31.9358 53.7941 32.0529 53.7463Z" fill="var(--fill-0, black)"/>
<path id="Vector_17" d="M43.5839 53.1545C43.8402 53.1653 43.9752 53.152 44.1941 53.2849C44.2839 53.5194 44.2638 53.4384 44.1701 53.7197C44.141 53.7273 44.1118 53.7342 44.0825 53.7407C43.8162 53.7992 43.7739 53.7658 43.5814 53.6459C43.4952 53.3565 43.5105 53.4603 43.5839 53.1545Z" fill="var(--fill-0, black)"/>
<path id="Vector_18" d="M46.0042 56.0745C46.1077 56.0028 46.2425 55.994 46.3546 56.0515C46.4667 56.109 46.5376 56.2235 46.5387 56.3489C46.5399 56.4744 46.4712 56.5901 46.3602 56.6497C46.2015 56.7349 46.0035 56.6821 45.9089 56.5294C45.8144 56.3766 45.8561 56.1771 46.0042 56.0745Z" fill="var(--fill-0, black)"/>
<path id="Vector_19" d="M41.4457 52.2176C41.531 52.1358 41.6539 52.106 41.7675 52.1395C41.881 52.1731 41.9676 52.2648 41.9941 52.3797C42.0206 52.4945 41.9829 52.6146 41.8953 52.694C41.7627 52.8145 41.5572 52.8066 41.4343 52.6763C41.3113 52.546 41.3164 52.3416 41.4457 52.2176Z" fill="var(--fill-0, black)"/>
<path id="Vector_20" d="M32.062 52.173C32.2872 52.151 32.5884 52.1104 32.7647 52.25C32.8202 52.4812 32.8168 52.3865 32.7118 52.6541C32.4714 52.6517 32.3332 52.6659 32.1129 52.568C31.9939 52.3716 32.0223 52.4603 32.062 52.173Z" fill="var(--fill-0, black)"/>
<path id="Vector_21" d="M50.7084 57.119C50.86 57.04 51.0472 57.0917 51.1362 57.2371C51.2251 57.3826 51.1851 57.5716 51.0447 57.6691C50.9457 57.7379 50.8164 57.7462 50.7093 57.6908C50.6021 57.6354 50.5348 57.5253 50.5346 57.4051C50.5344 57.2851 50.6014 57.1748 50.7084 57.119Z" fill="var(--fill-0, black)"/>
<path id="Vector_22" d="M51.1084 58.5386C51.2529 58.4359 51.4537 58.4685 51.5579 58.6114C51.6623 58.7543 51.6311 58.9542 51.4881 59.059C51.3437 59.1649 51.14 59.1335 51.0346 58.989C50.9292 58.8446 50.9623 58.6423 51.1084 58.5386Z" fill="var(--fill-0, black)"/>
<path id="Vector_23" d="M39.1491 54.2218C39.2464 54.1506 39.3757 54.1396 39.4836 54.1935C39.5916 54.2475 39.66 54.3572 39.6604 54.4774C39.6608 54.5975 39.5934 54.7077 39.4859 54.7626C39.3371 54.8383 39.1548 54.7879 39.0667 54.6466C38.9788 54.5052 39.0146 54.3204 39.1491 54.2218Z" fill="var(--fill-0, black)"/>
<path id="Vector_24" d="M47.6459 57.0928C47.7854 56.9823 47.9886 57.0061 48.0984 57.1458C48.2083 57.2854 48.1824 57.4873 48.0409 57.5952C47.9013 57.7017 47.7015 57.6764 47.5931 57.5386C47.4848 57.4007 47.5084 57.2018 47.6459 57.0928Z" fill="var(--fill-0, black)"/>
<path id="Vector_25" d="M44.0682 55.391C44.2181 55.3096 44.406 55.3607 44.4935 55.5065C44.581 55.6525 44.537 55.8411 44.3937 55.9337C44.296 55.9968 44.1714 56.0017 44.069 55.9465C43.9665 55.8913 43.9026 55.7848 43.9025 55.669C43.9023 55.5531 43.9658 55.4465 44.0682 55.391Z" fill="var(--fill-0, black)"/>
<path id="Vector_26" d="M33.9282 51.575C34.0823 51.5106 34.2601 51.5765 34.3343 51.7254C34.4084 51.8743 34.3533 52.055 34.2084 52.1377C34.1063 52.196 33.9802 52.1931 33.8809 52.1303C33.7816 52.0675 33.7256 51.955 33.7355 51.8385C33.7455 51.7218 33.8197 51.6204 33.9282 51.575Z" fill="var(--fill-0, black)"/>
<path id="Vector_27" d="M35.6578 53.2985C35.7422 53.2214 35.8625 53.1969 35.9707 53.2347C36.0789 53.2725 36.1573 53.3664 36.1748 53.479C36.1923 53.5916 36.146 53.7047 36.0544 53.7732C35.9219 53.8721 35.7347 53.8503 35.6288 53.7236C35.5229 53.5969 35.5356 53.4098 35.6578 53.2985Z" fill="var(--fill-0, black)"/>
<path id="Vector_28" d="M51.8007 56.4337C51.9514 56.375 52.1221 56.4422 52.1916 56.5876C52.2612 56.733 52.2058 56.9071 52.0649 56.9863C51.9644 57.0427 51.8406 57.0387 51.7441 56.9758C51.6475 56.913 51.5944 56.8018 51.6063 56.6876C51.6182 56.5735 51.6931 56.4755 51.8007 56.4337Z" fill="var(--fill-0, black)"/>
<path id="Vector_29" d="M62.6178 37.813C62.8361 37.8055 62.7891 37.7762 62.9543 37.8682C62.9641 38.0221 62.1841 40.7311 62.0957 41.274C61.8089 43.0362 61.5851 44.667 61.5448 46.476C61.4319 51.5283 59.7089 53.912 55.9979 57.236C54.7049 56.1978 53.3373 55.2548 51.9062 54.4145C46.3251 51.1306 39.6182 48.7797 33.1131 50.4342C32.7544 50.5231 32.3965 50.615 32.0393 50.7099C32.8457 48.565 33.5244 46.2519 34.1483 44.0459C34.2062 43.8409 34.2484 43.6307 34.2838 43.4208C34.5432 43.7436 34.7494 43.936 35.0466 44.2203C36.556 44.6283 38.4844 44.3267 39.7993 43.43C40.1907 43.163 40.4537 42.7464 40.7222 42.3605C41.25 42.4043 41.7362 42.5044 42.2558 42.6022C42.2338 45.0748 43.9967 45.3289 45.9915 45.7471C51.6759 46.9387 53.7586 47.7317 56.9421 42.3791C57.2557 42.7056 57.5083 43.0516 57.9921 42.9504C58.2604 42.4462 57.7 42.0905 57.3492 41.7806C58.8041 40.0423 60.2399 38.2338 62.6178 37.813Z" fill="var(--fill-0, #D8BFB1)"/>
<path id="Vector_30" d="M38.1525 4.78733C38.5123 4.95562 39.3157 6.22699 39.585 6.5801C41.0658 8.52218 42.1496 11.1614 42.148 13.6394C42.0818 17.2789 40.8361 21.1972 39.2231 24.4523C38.3199 25.7535 37.1148 27.151 36.7967 28.7556C36.456 30.4741 35.3324 31.1794 34.1992 32.3644C32.7899 33.8382 31.2849 36.5732 28.9436 36.353C26.8901 36.1598 22.4495 35.9248 20.9703 34.4786C20.9569 34.1258 20.929 33.905 20.8754 33.5547C21.1593 33.6067 21.4301 33.6474 21.7076 33.7287C22.223 33.8795 22.9065 34.3028 23.4437 34.2327C24.2702 33.4692 21.3365 32.9069 20.9029 32.7949C21.0022 32.1772 21.3918 30.8873 21.5745 30.2157C22.7058 30.4374 23.3006 30.8039 24.3551 31.1854C24.6232 31.2823 24.7233 31.2825 24.9371 31.1691C25.0602 30.9522 25.0485 31.0415 25.0105 30.828C24.5962 30.244 22.5403 29.7015 21.747 29.4163C22.0168 28.5887 22.2579 27.8838 22.3767 27.0199C23.4942 27.279 24.2494 27.8552 25.2372 28.3751C25.4964 28.5116 25.7995 28.2629 25.8702 27.9959C25.7852 27.772 25.4889 27.6153 25.2788 27.4747C24.6053 27.0489 23.4085 26.5888 22.6283 26.2142C22.7189 25.7134 23.0531 24.8057 23.2062 24.2101C24.1409 24.5377 25.0129 24.9676 25.903 25.4063C26.0775 25.4924 26.2376 25.3009 26.3409 25.1689C26.3202 24.4368 24.1136 23.7291 23.4575 23.5844C23.6026 22.5905 24.1322 21.1245 24.4568 20.1411C24.9217 20.8836 25.2429 21.7709 25.7314 22.5277C26.1275 23.0419 26.8954 24.42 27.2935 24.7999C27.9687 25.4439 29.6133 29.5086 30.1118 29.6665C30.7387 29.202 29.4953 27.3681 29.213 26.8471C30.3731 27.7089 30.8346 29.3724 32.0368 30.0295C32.1441 30.0881 32.2366 30.0247 32.3294 29.9769L32.366 29.832C32.2363 29.2442 31.2781 28.3506 30.839 27.6604C32.2669 27.4553 32.48 27.3124 33.3778 26.1745C33.4102 25.4915 33.4703 24.7777 33.2151 24.1393C32.3651 22.0136 30.3528 20.6735 28.3903 19.7346C36.6096 18.4787 39.2728 15.3536 38.537 7.16236C38.4681 6.39564 38.2619 5.55929 38.1525 4.78733Z" fill="var(--fill-0, #D8BFB1)"/>
<path id="Vector_31" d="M15.498 43.2909C15.5831 43.2828 15.6683 43.2768 15.7538 43.2771C21.3433 43.3041 26.0008 45.7973 29.8266 49.7236C28.494 50.8779 27.1754 52.2246 25.7842 53.3395C24.3547 54.4852 22.7749 55.5414 21.201 56.479C20.6056 56.8232 19.9926 57.1364 19.3645 57.4174C17.288 58.334 14.5367 59.0525 12.3218 58.224C8.07257 56.6345 8.26942 48.1467 9.59947 44.838C11.2468 43.678 13.5398 43.4034 15.498 43.2909Z" fill="var(--fill-0, #D8BFB1)"/>
<path id="Vector_32" d="M23.4095 49.3758C23.5588 49.3123 23.7309 49.3338 23.8598 49.4321C23.9886 49.5303 24.0542 49.6901 24.0313 49.8499C24.0084 50.0097 23.9005 50.1449 23.7491 50.2034C23.5204 50.2919 23.2626 50.1816 23.17 49.9556C23.0773 49.7297 23.1839 49.4717 23.4095 49.3758Z" fill="var(--fill-0, black)"/>
<path id="Vector_33" d="M17.8226 46.5882C17.9817 46.5376 18.1559 46.5797 18.274 46.6971C18.3922 46.8146 18.4345 46.9878 18.3836 47.146C18.3328 47.3042 18.1974 47.4211 18.0327 47.4487C17.8017 47.4875 17.5798 47.3421 17.5246 47.1157C17.4693 46.8894 17.5994 46.659 17.8226 46.5882Z" fill="var(--fill-0, black)"/>
<path id="Vector_34" d="M13.6139 46.4048C13.806 46.2985 14.048 46.3569 14.1699 46.5388C14.2917 46.7208 14.2525 46.9653 14.0797 47.1006C13.955 47.1982 13.7858 47.2179 13.6418 47.1517C13.4978 47.0854 13.4034 46.9444 13.3975 46.7868C13.3916 46.6291 13.4752 46.4815 13.6139 46.4048Z" fill="var(--fill-0, black)"/>
<path id="Vector_35" d="M24.6134 47.5404C24.7624 47.4823 24.9317 47.5143 25.0488 47.6226C25.166 47.731 25.2104 47.8966 25.1629 48.0485C25.1155 48.2005 24.9846 48.312 24.8264 48.3353C24.617 48.3662 24.4175 48.2358 24.363 48.0324C24.3085 47.829 24.4163 47.6172 24.6134 47.5404Z" fill="var(--fill-0, black)"/>
<path id="Vector_36" d="M22.8213 46.4469C23.0314 46.3759 23.2598 46.4867 23.3329 46.695C23.4061 46.9034 23.2966 47.1314 23.0878 47.2059C22.8763 47.2813 22.6436 47.1709 22.5696 46.9601C22.4956 46.7492 22.6086 46.5187 22.8213 46.4469Z" fill="var(--fill-0, black)"/>
<path id="Vector_37" d="M27.7502 49.6317C27.8693 49.5465 28.0255 49.5321 28.1583 49.5941C28.2911 49.6561 28.3796 49.7849 28.3897 49.9304C28.3997 50.076 28.3296 50.2156 28.2065 50.295C28.0224 50.4138 27.7767 50.365 27.6528 50.1848C27.5289 50.0047 27.5721 49.7593 27.7502 49.6317Z" fill="var(--fill-0, black)"/>
<path id="Vector_38" d="M14.3605 44.8183C14.4773 44.7229 14.6385 44.7016 14.7762 44.7635C14.9139 44.8254 15.0045 44.9596 15.0097 45.1099C15.0149 45.2601 14.9339 45.4003 14.8008 45.4714C14.6207 45.5677 14.3965 45.5123 14.2827 45.3434C14.1689 45.1746 14.2025 44.9473 14.3605 44.8183Z" fill="var(--fill-0, black)"/>
<path id="Vector_39" d="M20.8446 47.4704C21.0347 47.4175 21.2344 47.5147 21.3091 47.6962C21.3838 47.8778 21.3099 48.0863 21.1371 48.181C21.0061 48.2529 20.8452 48.2435 20.7234 48.1571C20.6017 48.0706 20.5407 47.9223 20.5665 47.7758C20.5924 47.6292 20.7006 47.5105 20.8446 47.4704Z" fill="var(--fill-0, black)"/>
<path id="Vector_40" d="M9.94909 47.1111C10.2353 47.2063 10.3677 47.2408 10.4359 47.5645C10.3399 47.8596 10.3922 47.7613 10.1485 47.9723C9.83874 47.8764 9.75643 47.8847 9.62765 47.5807C9.67759 47.3376 9.77117 47.2775 9.94909 47.1111Z" fill="var(--fill-0, black)"/>
<path id="Vector_41" d="M25.6249 49.3267C25.8093 49.2211 26.045 49.2851 26.1498 49.4692C26.2547 49.6533 26.1886 49.8872 26.0026 49.9901C25.8186 50.0919 25.5865 50.027 25.4827 49.8448C25.379 49.6626 25.4425 49.4313 25.6249 49.3267Z" fill="var(--fill-0, black)"/>
<path id="Vector_42" d="M9.67146 45.6831C9.7899 45.6215 9.93313 45.6313 10.042 45.7085C10.1509 45.7856 10.2069 45.917 10.1871 46.0485C10.1672 46.1799 10.0748 46.2891 9.94787 46.331C9.77227 46.3891 9.58127 46.3033 9.509 46.1339C9.43674 45.9645 9.50741 45.7683 9.67146 45.6831Z" fill="var(--fill-0, black)"/>
<path id="Vector_43" d="M12.3691 44.6299C12.5429 44.5721 12.7315 44.6611 12.7965 44.8314C12.8615 45.0018 12.7796 45.1927 12.6111 45.2641C12.4959 45.3128 12.3631 45.295 12.2651 45.2176C12.167 45.1402 12.1195 45.0156 12.1412 44.893C12.1629 44.7704 12.2503 44.6694 12.3691 44.6299Z" fill="var(--fill-0, black)"/>
<path id="Vector_44" d="M21.1161 45.7261C21.3659 45.8158 21.3723 45.9099 21.4312 46.1327C21.3844 46.4062 21.3625 46.4325 21.158 46.6183C20.8979 46.4552 20.8815 46.4184 20.8055 46.1728C20.8553 45.9354 20.9393 45.8848 21.1161 45.7261Z" fill="var(--fill-0, black)"/>
<path id="Vector_45" d="M19.074 45.0892C19.2766 45.1447 19.418 45.1849 19.5456 45.3514C19.5588 45.6164 19.5681 45.526 19.3861 45.7758C19.09 45.7213 18.9971 45.7234 18.8124 45.5227C18.857 45.2547 18.8596 45.321 19.074 45.0892Z" fill="var(--fill-0, black)"/>
<path id="Vector_46" d="M16.5001 45.0954C16.6612 45.0111 16.8605 45.0715 16.947 45.2307C17.0335 45.39 16.9749 45.5888 16.8157 45.6765C16.7111 45.7341 16.5836 45.7313 16.4816 45.6694C16.3797 45.6074 16.319 45.4958 16.3229 45.377C16.3267 45.2583 16.3944 45.1507 16.5001 45.0954Z" fill="var(--fill-0, black)"/>
<path id="Vector_47" d="M10.8823 45.3154C10.9895 45.2534 11.1227 45.2568 11.2267 45.3241C11.3306 45.3915 11.3875 45.5113 11.3739 45.6339C11.3602 45.7565 11.2783 45.861 11.1621 45.9041C11.0021 45.9634 10.8231 45.891 10.7502 45.7376C10.6772 45.5841 10.7346 45.4007 10.8823 45.3154Z" fill="var(--fill-0, black)"/>
<path id="Vector_48" d="M19.0696 47.6629C19.2994 47.7342 19.3265 47.747 19.5081 47.9036C19.565 48.1663 19.5633 48.0701 19.4367 48.341C19.1592 48.3051 19.0365 48.2995 18.8659 48.1131C18.8864 47.8578 18.9061 47.9033 19.0696 47.6629Z" fill="var(--fill-0, black)"/>
<path id="Vector_49" d="M24.4442 50.6845C24.5894 50.5928 24.7816 50.6309 24.8802 50.7711C24.9788 50.9113 24.949 51.1039 24.8124 51.208C24.7186 51.2796 24.5928 51.2942 24.485 51.246C24.3771 51.1978 24.3046 51.0946 24.296 50.9774C24.2875 50.8601 24.3444 50.7476 24.4442 50.6845Z" fill="var(--fill-0, black)"/>
<path id="Vector_50" d="M22.2802 48.405C22.4334 48.3435 22.6083 48.4083 22.6838 48.5543C22.7591 48.7004 22.7101 48.8795 22.5706 48.9674C22.4685 49.0317 22.3385 49.0331 22.2349 48.971C22.1314 48.9089 22.072 48.7939 22.0816 48.6741C22.0912 48.5542 22.1681 48.45 22.2802 48.405Z" fill="var(--fill-0, black)"/>
<path id="Vector_51" d="M11.7919 46.5226C11.8818 46.4496 12.0045 46.4308 12.1123 46.4736C12.2202 46.5164 12.2962 46.614 12.3109 46.7285C12.3256 46.843 12.2766 46.9565 12.183 47.0248C12.0434 47.1268 11.8474 47.0995 11.7414 46.9633C11.6352 46.8271 11.6576 46.6316 11.7919 46.5226Z" fill="var(--fill-0, black)"/>
<path id="Vector_52" d="M15.304 46.9892C15.56 46.9787 15.678 46.9629 15.9263 47.0323C16.0707 47.2337 16.0251 47.1851 16.0035 47.4889C15.7715 47.5046 15.6831 47.5224 15.4573 47.4433C15.2895 47.2239 15.3381 47.2895 15.304 46.9892Z" fill="var(--fill-0, black)"/>
<path id="Vector_53" d="M13.3069 32.6675C13.4141 32.8854 13.3756 33.7456 13.4798 34.1105C13.6331 34.6475 13.9635 34.7863 14.4231 35.0583C16.2404 35.1034 17.8693 35.2108 18.8698 33.3432C19.3099 33.3462 19.75 33.3519 20.19 33.3602C20.1974 33.4858 20.2103 33.6111 20.2288 33.7356C20.3165 34.3384 20.442 35.025 21.0156 35.3886C22.9271 36.5997 27.7757 37.0462 29.9571 36.8816C31.5829 36.759 33.2055 34.5154 34.1282 33.2519C33.3385 35.1271 33.1824 36.6491 34.0402 38.572C34.107 38.7219 34.3975 38.7013 34.5591 38.8703C34.2177 40.2427 33.9344 41.6935 33.6368 43.082C33.3187 44.5656 33.2675 44.93 32.4843 46.2491C31.8525 47.3193 30.9742 48.3223 30.1413 49.2456C25.7193 44.2085 17.9645 41.2149 11.4304 43.3669C10.8531 43.5571 10.2977 43.774 9.73494 44.0012C10.5148 40.4752 11.8486 35.9244 13.3069 32.6675Z" fill="var(--fill-0, #D8BFB1)"/>
<path id="Vector_54" d="M21.5539 14.2321C21.7711 13.9626 22.3603 12.5433 22.6414 12.0542C23.3085 10.9197 24.0019 9.80081 24.7211 8.69823C26.4719 5.97038 28.8996 2.30323 32.3462 1.83633C36.7149 1.2445 36.6895 8.56062 36.2292 11.229C36.1304 11.8017 35.9825 12.3849 35.8609 12.9368C34.4904 12.9504 33.5229 12.7546 32.0978 12.8708C31.0186 12.9587 29.1243 13.5704 28.3017 13.5914C26.22 13.6441 23.6319 13.2722 21.6257 14.3313L21.5539 14.2321Z" fill="var(--fill-0, #D8BFB1)"/>
<path id="Vector_55" d="M47.4032 28.7451C47.5135 28.9163 47.5837 29.0744 47.6677 29.2575C48.5617 31.2075 49.9511 32.8817 50.9213 34.7907C51.2725 35.4818 51.583 36.1805 51.9005 36.8854C52.1234 37.3806 52.3024 38.3227 52.6306 38.7177C52.8476 38.8261 52.9711 38.8214 53.1309 38.6557C53.25 38.1689 52.9125 37.6476 52.7475 37.1251L52.8605 37.0674C53.0832 37.412 53.28 37.9231 53.5774 38.3722C54.3853 39.5928 55.4773 40.9356 56.539 41.9475C56.1459 42.5661 55.7268 43.1679 55.283 43.7516C54.3771 44.92 53.4089 45.797 51.8774 45.9787C50.504 46.1417 44.4486 44.9881 43.4198 44.146C43.1249 43.9046 42.9336 43.51 42.9149 43.1296C42.9067 42.9638 42.9587 42.932 43.0675 42.8224C43.826 42.6374 45.0749 43.6678 45.6678 43.3752C45.8193 42.6097 43.5565 42.0804 43.0296 41.9632C43.0555 41.5502 43.5665 39.8678 43.7038 39.2853C44.8572 39.5332 45.8883 40.1725 47.0103 40.3222C47.1347 40.3388 47.1979 40.2324 47.2609 40.1424C47.2268 39.8684 47.2069 39.8214 46.9476 39.6772C46.0138 39.1579 44.9298 38.7822 43.8889 38.56C44.2934 37.7875 44.4869 36.8467 44.8684 35.9545C45.5313 36.1624 47.633 37.4064 47.9207 37.3422C48.122 37.2973 48.1484 37.2588 48.2502 37.094C48.207 36.387 45.6884 35.4004 45.0663 35.1939C45.2649 34.6237 45.6564 33.4074 45.804 32.8675C46.3072 33.0659 46.744 33.2421 47.2582 33.4963C47.5365 33.6339 48.3252 34.2135 48.6349 34.1698C48.7833 34.1489 48.9252 34.0205 49.0045 33.8973L48.957 33.7017C48.4455 33.0519 46.8482 32.4588 46.0655 32.2111C46.4398 31.19 46.9449 29.6885 47.4032 28.7451Z" fill="var(--fill-0, #D8BFB1)"/>
<path id="Vector_56" d="M57.2369 14.1009C57.2929 14.097 57.349 14.0935 57.4052 14.0904C58.5353 14.0294 59.3252 14.0273 60.2408 14.8492C61.427 15.986 61.8665 17.7314 62.0069 19.3242C62.1143 20.5431 62.0061 23.2756 60.472 23.6475C59.7712 23.8174 58.1622 23.7026 57.3802 23.6774C56.19 23.629 54.9985 23.6207 53.8077 23.6525C52.8102 23.0987 52.327 22.8513 51.2527 22.4928C49.319 21.9819 47.285 21.9796 45.3502 22.4861C45.9451 21.869 47.4344 20.6845 48.1771 20.0612C50.9461 17.7372 53.5941 14.9141 57.2369 14.1009Z" fill="var(--fill-0, #D8BFB1)"/>
<path id="Vector_57" d="M63.0766 25.3451C63.5069 25.5939 64.1481 28.3891 64.2087 28.9358C64.4619 31.2169 64.6729 35.3708 63.2336 37.3037C62.8582 37.3053 62.3902 37.3055 62.0256 37.3654C60.0438 37.6912 58.0599 39.8209 56.9547 41.4059C55.8621 40.1357 55.1897 39.5235 54.1934 38.1052C53.9443 37.7159 53.7086 37.2628 53.4846 36.8535C56.1685 37.3027 57.2304 35.3342 56.4858 33.0156C55.8409 31.0067 54.1921 29.5684 52.3696 28.6357C55.9413 28.5773 60.7143 28.4778 63.0766 25.3451Z" fill="var(--fill-0, #D8BFB1)"/>
<path id="Vector_58" d="M40.8626 27.3814C41.7217 26.0346 41.8252 24.6286 42.5466 23.5897C44.7311 20.4439 48.618 17.3466 51.6699 15.0148C53.6711 13.527 56.318 12.076 58.8931 12.4159C62.9998 12.9579 64.0878 19.008 63.6725 22.3291C62.9594 28.0324 55.2817 28.4677 50.823 28.1141C50.0798 28.0551 48.8664 27.6501 48.0292 27.5122C52.2888 25.4032 56.9997 27.3065 60.7866 25.1832C63.8729 23.4528 63.162 13.8068 58.7649 13.5087C53.4142 13.146 48.9226 19.0735 44.8956 22.0199C44.6859 22.5357 44.8557 22.6227 44.3706 22.9684L44.3909 23.1159C44.5043 23.1863 44.6005 23.2344 44.6875 23.3355C44.529 23.6868 44.524 23.577 44.5565 23.9325C44.7849 24.0235 45.1257 24.1115 45.3707 24.1823C45.7183 24.808 45.8243 25.7794 45.9907 26.5211C44.0943 25.9465 42.6143 26.654 40.8626 27.3814Z" fill="var(--fill-0, #D8BFB1)"/>
<path id="Vector_59" d="M44.5025 23.9652C44.269 24.243 43.8779 24.2606 43.6874 23.9322C43.3081 23.2779 43.6103 21.7323 44.6175 22.0035L44.8962 22.0199C44.6864 22.5357 44.8563 22.6227 44.3712 22.9684L44.3915 23.1159C44.5049 23.1863 44.6011 23.2345 44.6881 23.3355C44.5296 23.6868 44.5246 23.577 44.5571 23.9325L44.5025 23.9652Z" fill="var(--fill-0, black)"/>
<path id="Vector_60" d="M44.6178 22.0036L44.8965 22.02C44.6867 22.5358 44.8566 22.6228 44.3715 22.9685L44.3917 23.116C44.5052 23.1864 44.6014 23.2345 44.6884 23.3355C44.5299 23.6869 44.5249 23.5771 44.5574 23.9326L44.5027 23.9652C44.3506 23.6666 44.2374 23.4795 44.054 23.1977C44.3448 22.7321 44.4522 22.5169 44.6178 22.0036Z" fill="var(--fill-0, #B9997A)"/>
<path id="Vector_61" d="M45.0847 28.9807C45.0904 28.9868 45.0985 28.9913 45.1017 28.999C45.2059 29.2472 44.3679 31.2905 44.2515 31.7134C43.4889 31.6768 41.4255 31.4524 41.0149 32.2015C41.0241 32.3892 41.1938 32.7893 41.3788 32.7426C42.2869 32.5134 43.0238 32.4712 43.9558 32.4861C43.7041 32.8963 43.1904 34.21 42.9505 34.762C42.3118 34.6274 40.3585 34.617 39.9269 35.1605C39.8825 35.4243 39.8753 35.3147 39.989 35.5881C40.0416 35.6302 40.1033 35.6796 40.1739 35.7361C41.0237 35.6966 41.8696 35.5401 42.7251 35.5447C42.379 36.4098 42.0411 37.4276 41.5954 38.2215C40.7755 38.1172 39.1725 38.0951 38.5073 38.606L38.5286 38.8347C39.1086 39.2454 40.5822 39.0249 41.3209 38.9705C41.166 39.7695 40.7705 40.8375 40.4769 41.6131L39.4761 41.633C39.0285 41.6664 38.0177 41.585 37.7408 41.898C37.7087 42.1306 37.6778 42.2356 37.762 42.4607C38.0295 42.6374 39.5594 42.3936 40.0366 42.3645C39.7187 42.6645 39.4143 42.9445 39.0255 43.1542C38.1857 43.6072 36.6043 44.0505 35.6855 43.7637C35.3345 43.654 35.0237 43.4304 34.8616 43.0955C34.0793 41.4792 37.6584 34.945 38.2988 33.0072C40.8284 31.6423 42.0219 29.706 45.0847 28.9807Z" fill="var(--fill-0, #D8BFB1)"/>
<path id="Vector_62" d="M63.7026 38.1393C63.7287 38.1645 63.7778 38.2601 63.7989 38.2976C63.7403 39.6129 63.0449 41.8909 62.78 43.3818C62.2616 46.2992 63.0172 50.2545 61.7668 52.867C58.8041 58.9585 51.768 62.8526 45.852 65.615C41.7001 67.5536 32.69 68.6963 30.5247 63.4484C30.3184 62.7714 30.228 62.3745 30.1278 61.6767C30.9992 63.105 31.4594 63.8912 33.0374 64.6575C36.2333 66.2094 41.3725 65.6937 44.6504 64.4976C50.8835 62.2233 60.8739 56.3774 61.9314 49.2747C62.3956 46.1567 62.2892 41.0376 63.7026 38.1393Z" fill="var(--fill-0, #D8BFB1)"/>
<path id="Vector_63" d="M20.9447 14.1608C20.8883 14.0167 20.8286 13.8737 20.7659 13.7321C21.8865 10.2757 25.094 4.36653 27.9394 2.25596C36.0728 -3.77697 38.7193 4.33836 38.094 11.2402C37.9038 13.3396 37.0528 15.4832 35.3444 16.7659C33.1538 18.4106 30.0657 19.2178 27.3628 19.3527C26.8555 19.3646 25.8183 18.9799 25.0902 18.8979C27.5441 16.745 33.6191 17.607 35.8226 14.0419C37.269 11.8528 37.3292 8.19946 36.8204 5.68978C35.1398 -2.60103 28.0375 2.12846 25.3162 6.71367C24.5244 8.0477 20.919 13.1222 21.1091 14.0835L20.9447 14.1608Z" fill="var(--fill-0, #D8BFB1)"/>
<path id="Vector_64" d="M22.1827 20.6224L22.2826 20.6956C22.3218 21.2702 21.8523 22.5636 21.6803 23.2226C21.1293 23.119 18.0247 22.7792 18.9049 24.0871C19.2015 24.1515 20.7263 23.907 21.4172 23.9184C21.1507 24.7047 21.0097 25.0451 20.7965 25.8895C20.1184 25.8604 18.1931 25.78 17.9144 26.5151C17.9253 26.8067 17.8899 26.6946 18.0479 26.9404C18.4795 27.1294 19.044 26.8032 19.5235 26.7585C19.8507 26.728 20.1766 26.7262 20.5021 26.7266C20.1197 27.5703 20.1123 28.2659 19.7084 29.1148C19.1382 29.0901 16.8209 28.9699 16.8227 29.7735C16.8671 29.8655 17.0473 30.1428 17.1412 30.1342C17.9303 30.0616 18.7002 29.9366 19.4991 29.8898C19.2886 30.345 18.8967 32.2995 18.5749 32.4768C18.0205 32.485 16.4764 32.5901 16.0606 32.9681C15.974 33.2081 15.9792 33.1019 16.0806 33.3844C16.1225 33.4207 16.1719 33.4636 16.2289 33.5131C16.8769 33.494 17.4689 33.3473 18.144 33.3374C17.3129 34.4393 15.8992 34.6744 14.5642 34.3928C14.382 34.3544 14.0375 34.0912 13.9955 33.8983C13.4171 31.2429 15.0278 28.4053 15.7767 25.8928C15.8006 25.8277 16.0946 25.1708 16.1171 25.1583C18.3332 23.9315 19.7874 21.6472 22.1827 20.6224Z" fill="var(--fill-0, #D8BFB1)"/>
<path id="Vector_65" d="M63.7346 17.155C63.7549 17.1661 63.7751 17.1773 63.7953 17.1885C65.2269 19.0128 67.7355 23.2406 68.2281 25.3221C68.9335 28.3023 67.2529 30.9736 65.8307 33.1796L64.6327 34.9153C64.7189 33.8062 64.9009 32.7479 64.9137 31.604C64.9309 30.0726 64.3566 25.7736 63.3627 24.7812C64.5688 22.6528 64.2852 19.4447 63.7346 17.155Z" fill="var(--fill-0, #D8BFB1)"/>
<path id="Vector_66" d="M9.21482 55.923C11.509 60.5105 16.4873 59.6203 20.382 57.6534C24.8224 55.411 29.0054 51.7785 32.1543 47.968C31.3708 50.2175 31.369 50.5583 29.7062 52.3717C27.1551 55.1539 24.3515 57.4082 20.9726 59.1395C17.6669 60.8334 11.5726 61.918 9.60534 57.7377C9.38211 57.2633 9.19899 56.7305 9.0752 56.22L9.21482 55.923Z" fill="var(--fill-0, #D8BFB1)"/>
<path id="Vector_67" d="M17.4323 19.9253C17.8442 19.1582 19.7921 13.8143 20.546 13.6823C20.5729 13.7165 20.6 13.7508 20.6269 13.785C20.4202 14.2109 20.1634 14.6432 20.1239 15.1216C20.1033 15.3711 20.1047 15.5572 20.2607 15.7347C20.4192 15.9151 20.7081 15.9291 20.9266 15.9443C21.1584 15.8078 21.0868 15.8606 21.2267 15.6123C20.8435 15.2207 20.7558 15.1036 20.903 14.563C20.9622 14.7882 20.9772 14.9416 21.173 15.0725L21.4333 15.093C23.6498 13.9779 26.7657 13.8638 29.0816 14.6674C30.1682 15.0444 30.8929 15.586 32.0676 15.9944L32.1117 16.0094C30.3451 16.4422 25.8509 17.2916 24.7418 18.4607L23.5824 18.2048C23.5648 17.1528 22.9724 15.1037 21.658 15.146C21.6157 15.1474 21.5733 15.1495 21.531 15.1521C21.445 15.2971 21.3487 15.4508 21.2738 15.6006C21.4304 15.7688 21.8363 15.8023 22.0819 15.8447C22.6833 16.7034 22.7321 17.0973 23.026 18.0808L22.9779 18.0722C20.65 17.6641 19.3393 18.6072 17.4323 19.9253Z" fill="var(--fill-0, #D8BFB1)"/>
<path id="Vector_68" d="M68.857 28.6307L68.9667 28.7325C69.0272 29.1255 69.0613 29.6954 69.1343 30.0415C69.2894 30.7776 69.4585 31.2707 69.5127 32.0329C69.7612 35.5262 67.2942 37.8041 65.6688 40.54C65.5852 40.2026 65.4901 39.8682 65.3838 39.5372C65.0682 39.0131 64.9531 38.3263 64.5526 37.849C64.3529 37.6112 64.1022 37.7778 63.8852 37.6487C65.487 34.8701 68.041 31.5544 68.857 28.6307Z" fill="var(--fill-0, #D8BFB1)"/>
<path id="Vector_69" d="M48.0908 22.8145C50.6194 22.8811 51.895 23.079 53.9673 24.6314C54.343 24.9129 55.2034 25.4626 55.6382 25.594C54.1674 25.7114 52.6954 25.8125 51.2223 25.8973C49.9955 25.9844 48.8461 26.4363 47.7602 26.9719C47.3385 26.7125 47.0973 26.7389 46.6105 26.7158C46.4737 25.3553 46.4107 23.8847 44.9598 23.3365L44.9329 23.2413C46.2788 22.8252 46.6764 22.8644 48.0908 22.8145Z" fill="var(--fill-0, #D8BFB1)"/>
<path id="Vector_70" d="M49.1337 28.5168C50.209 28.5528 51.5408 29.0142 52.4864 29.5123C54.4906 30.5679 56.915 33.2925 55.5925 35.6493L55.5445 35.7001C54.7813 36.4998 53.4819 36.1227 52.7643 35.4156C52.7977 32.2386 51.5473 30.496 49.1337 28.5168Z" fill="var(--fill-0, #D8BFB1)"/>
<path id="Vector_71" d="M26.2533 19.843C28.1875 20.1615 33.6708 22.9899 32.5328 25.9923C32.5095 26.0538 32.3275 26.301 32.2848 26.3617C32.1877 26.4722 32.0059 26.6441 31.8666 26.6714C29.2416 27.1792 30.0125 26.0583 29.5523 24.3224C29.1797 22.9171 27.981 21.3151 26.8412 20.4269C26.6452 20.2741 26.331 20.0746 26.2533 19.843Z" fill="var(--fill-0, #D8BFB1)"/>
<path id="Vector_72" d="M43.3257 20.3236C43.4672 20.47 43.3583 21.2535 43.3431 21.4893C42.4497 22.8327 41.2749 23.8372 41.0313 25.523C40.7916 27.182 39.302 28.1 38.463 29.3936C38.0917 29.966 38.2969 30.5786 38.1941 31.1942C38.0809 31.8717 37.4073 32.6209 36.9781 33.1266L36.9143 33.1274L36.8468 33.0276C36.8434 32.3899 36.8078 31.3864 36.895 30.794C37.3374 27.7862 39.0077 25.4939 41.0973 23.3855C42.0619 22.4122 42.8222 21.6042 43.3257 20.3236Z" fill="var(--fill-0, #D8BFB1)"/>
<path id="Vector_73" d="M55.8908 8.7888C57.0157 8.74835 57.7924 8.74469 58.9027 8.96529C58.7974 9.89397 58.9003 11.027 58.7933 11.785L58.6809 11.8542C57.9164 11.8432 57.1095 11.8987 56.3429 11.9377C55.8904 10.6093 55.3419 10.61 55.8908 8.7888Z" fill="var(--fill-0, #D8BFB1)"/>
<path id="Vector_74" d="M32.465 13.3982C33.3081 13.2907 34.5308 13.4922 35.386 13.6119C34.8263 14.4042 33.4737 15.841 32.4192 15.5101C31.5213 15.251 30.0094 14.1454 29.3402 14.0386L29.2883 13.9437C29.6306 13.7164 31.9585 13.4347 32.465 13.3982Z" fill="var(--fill-0, #D8BFB1)"/>
<path id="Vector_75" d="M42.6037 12.8727L42.653 12.8736C43.2587 15.9255 43.7358 19.7501 41.3951 22.1768C41.1261 22.4556 40.8637 22.7396 40.5941 23.0181C40.5164 23.1141 40.4812 23.118 40.3679 23.1625C40.3283 23.0112 40.8789 21.7105 40.9869 21.4056C41.9645 18.6438 42.7446 15.8267 42.6037 12.8727Z" fill="var(--fill-0, #D8BFB1)"/>
<path id="Vector_76" d="M45.0632 26.9802C45.0929 26.9751 45.1686 26.995 45.2035 27.0019C45.0968 27.161 43.7112 27.8759 43.4499 28.0197C42.2364 28.6876 40.5619 30.2692 39.1635 30.3659C39.0992 30.3345 39.041 30.277 38.9844 30.2293C38.8828 29.8098 39.0618 29.5269 39.3619 29.2396C40.8842 27.7819 43.0097 27.081 45.0632 26.9802Z" fill="var(--fill-0, #D8BFB1)"/>
<path id="Vector_77" d="M21.3662 18.6264C21.6067 18.6027 22.2083 18.5107 22.3748 18.6838C22.2686 18.8469 21.3009 19.294 20.9733 19.5463C19.7354 20.5001 18.9579 21.3384 17.5941 22.1441C17.3399 22.2719 17.2808 22.3106 17 22.3492C16.7628 22.2667 16.8423 22.3277 16.7018 22.1179C16.4927 20.6252 20.2318 19.0057 21.3662 18.6264Z" fill="var(--fill-0, #D8BFB1)"/>
<path id="Vector_78" d="M36.1757 31.4612C36.2155 31.5325 36.3026 33.5325 36.3623 33.9142C35.5887 34.9504 35.0054 35.9618 34.6493 37.2105C34.5825 37.4448 34.5447 37.6216 34.4326 37.8431C34.2063 37.4743 34.1253 35.8454 34.1585 35.3494C34.2615 33.813 35.4146 32.6991 36.1757 31.4612Z" fill="var(--fill-0, #D8BFB1)"/>
<path id="Vector_79" d="M48.2175 28.7344C48.4789 28.8675 49.3499 29.5291 49.5759 29.7498C51.2064 31.3427 52.0046 32.7114 52.1052 34.9574C51.3762 34.2775 48.4397 29.6892 48.2175 28.7344Z" fill="var(--fill-0, #D8BFB1)"/>
<path id="Vector_80" d="M25.2743 20.1238C27.5519 21.2927 28.8255 23.4249 29.061 25.9023C28.1806 25.3183 25.5881 21.274 25.2743 20.1238Z" fill="var(--fill-0, #D8BFB1)"/>
<path id="Vector_81" d="M54.6282 24.1691C56.7496 24.0228 58.6151 24.5336 60.8965 24.1179L60.1481 24.6897L60.0909 24.7257C58.7987 25.5273 57.4628 25.6461 56.0419 25.0824C55.6774 24.9378 54.8379 24.4989 54.6282 24.1691Z" fill="var(--fill-0, #D8BFB1)"/>
<path id="Vector_82" d="M42.0484 39.0169C42.3887 39.0717 42.7689 39.0839 43.1157 39.1039C42.9659 39.6435 42.6234 41.3166 42.4462 41.6976L42.2851 41.7542C41.8816 41.7034 41.476 41.6819 41.0702 41.6554C41.4246 40.7964 41.7169 39.8922 42.0484 39.0169Z" fill="var(--fill-0, #D8BFB1)"/>
<path id="Vector_83" d="M20.1481 29.9085L21.0192 30.1058C20.9137 30.4873 20.4343 32.4494 20.3573 32.6107L20.1768 32.6607C19.8555 32.5938 19.5371 32.5688 19.2109 32.5368C19.4843 31.9463 19.9594 30.5529 20.1481 29.9085Z" fill="var(--fill-0, #D8BFB1)"/>
<path id="Vector_84" d="M43.3315 35.5635C43.5659 35.6336 43.9342 35.7041 44.1823 35.7597C44.029 36.2425 43.5131 38.1193 43.3398 38.4258C42.9118 38.2298 42.6733 38.3634 42.4555 38.1588C42.4324 37.8721 43.1937 35.9325 43.3315 35.5635Z" fill="var(--fill-0, #D8BFB1)"/>
<path id="Vector_85" d="M45.8037 28.7661C46.0699 28.7711 46.3918 28.7384 46.6623 28.7182C46.4369 29.7254 45.8172 30.9498 45.5265 32.0481C45.1994 32.0184 45.0452 32.0181 44.8443 31.7799C45.2131 30.7724 45.6296 29.8202 45.8037 28.7661Z" fill="var(--fill-0, #D8BFB1)"/>
<path id="Vector_86" d="M21.0591 26.7006L21.9057 26.8616C21.6245 27.723 21.441 28.7368 21.2091 29.4322C20.9483 29.359 20.6107 29.3028 20.3393 29.2498C20.565 28.3699 20.8769 27.5999 21.0591 26.7006Z" fill="var(--fill-0, #D8BFB1)"/>
<path id="Vector_87" d="M36.7439 34.422L36.9504 34.5694L35.762 37.337C35.6217 37.6703 35.4308 38.4843 35.0977 38.5734C34.9159 37.2788 35.9644 35.4031 36.7439 34.422Z" fill="var(--fill-0, #D8BFB1)"/>
<path id="Vector_88" d="M23.0325 20.2898C23.2939 20.2674 23.3663 20.2659 23.6288 20.2949L23.6864 20.3774C23.629 20.852 23.0169 22.9351 22.8306 23.3632C22.5956 23.338 22.5297 23.3396 22.3165 23.2183C22.2668 23.0188 22.4814 22.6451 22.5655 22.3641C22.7392 21.7844 22.8476 20.8088 23.0325 20.2898Z" fill="var(--fill-0, #D8BFB1)"/>
<path id="Vector_89" d="M44.4946 32.5033C44.7811 32.6341 44.913 32.6701 45.2201 32.7505C44.9104 33.5471 44.7454 34.2335 44.3788 35.0386C44.1506 34.9895 43.8425 34.9508 43.6743 34.8084C43.889 33.9991 44.3042 33.3181 44.4946 32.5033Z" fill="var(--fill-0, #D8BFB1)"/>
<path id="Vector_90" d="M21.9455 23.9586C22.1619 24.0024 22.3066 24.0114 22.4799 24.146C22.6233 24.481 22.1933 25.7069 22.0797 26.1935C21.845 26.1481 21.6087 26.1365 21.4704 25.9492C21.3299 25.4971 21.7931 24.6489 21.9455 23.9586Z" fill="var(--fill-0, #D8BFB1)"/>
<path id="Vector_91" d="M59.4586 9.14289L59.6391 9.24018C59.8429 9.60859 59.625 11.2964 59.6802 11.9462C59.4926 11.9105 59.5624 11.9412 59.4191 11.8099C59.212 11.2122 59.3661 9.78493 59.4586 9.14289Z" fill="var(--fill-0, #B9997A)"/>
<path id="Vector_92" d="M45.2871 27.8196C45.3398 27.813 45.3926 27.8074 45.4455 27.8026C45.7572 27.7754 45.7967 27.7953 45.9999 27.963L45.988 28.0674C45.7548 28.201 45.0181 28.2723 44.5514 28.437C44.2857 28.5123 44.1971 28.5368 43.9219 28.5608L43.9094 28.4858C44.2824 28.2392 44.8634 28.0054 45.2871 27.8196Z" fill="var(--fill-0, #D8BFB1)"/>
<path id="Vector_93" d="M22.5971 19.4174L22.8529 19.4424L22.9295 19.5431C22.8281 19.65 21.2572 20.3211 20.8424 20.5934C20.8163 20.6103 20.6894 20.652 20.6516 20.6653C20.9857 20.1119 21.9825 19.5464 22.5971 19.4174Z" fill="var(--fill-0, #D8BFB1)"/>
<path id="Vector_94" d="M18.635 22.2917L18.6739 22.3223C18.4067 22.6627 17.0968 23.7095 16.6816 23.8908C16.8656 23.3875 16.7031 23.3472 16.8942 23.0375C17.4985 23.1642 18.0179 22.6485 18.635 22.2917Z" fill="var(--fill-0, #B9997A)"/>
<path id="Vector_95" d="M14.0636 28.9424C14.1722 29.5617 13.1235 31.8108 12.7769 32.4284C12.6899 32.1293 13.8613 29.4177 14.0636 28.9424Z" fill="var(--fill-0, #B9997A)"/>
<path id="Vector_96" d="M64.433 38.9192L64.547 39.003C64.6581 39.4794 65.0279 40.1005 64.9623 40.3783L64.1348 40.0987C64.2234 39.694 64.3246 39.3185 64.433 38.9192Z" fill="var(--fill-0, #D8BFB1)"/>
<path id="Vector_97" d="M33.9671 -2.68173L34.0507 -2.61193C34.1576 -2.34055 34.145 -0.744385 34.1492 -0.315045L33.9794 -0.438891C33.7793 -0.859069 33.856 -2.24065 33.9671 -2.68173Z" fill="var(--fill-0, #B9997A)"/>
<path id="Vector_98" d="M39.8327 30.9944L39.8709 31.0628C39.5595 31.2918 39.2456 31.5175 38.9291 31.7395L38.8675 31.6782L38.8923 31.4997C39.0855 31.1961 39.4931 31.096 39.8327 30.9944Z" fill="var(--fill-0, #D8BFB1)"/>
<path id="Vector_99" d="M9.07327 56.22C8.92512 55.6291 8.83024 55.2571 8.76744 54.6561C8.96581 55.1369 9.07392 55.423 9.21288 55.923L9.07327 56.22Z" fill="var(--fill-0, #B9997A)" fill-opacity="0.984314"/>
<path id="Vector_100" d="M21.1075 14.0837L21.553 14.2322L21.6248 14.3314C21.3157 14.4813 21.2438 14.4995 20.9035 14.5631C20.9515 14.4176 20.9419 14.3142 20.9431 14.161L21.1075 14.0837Z" fill="var(--fill-0, #D8BFB1)"/>
<path id="Vector_101" d="M36.7436 34.422C36.9584 34.0114 37.1056 33.8407 37.3935 33.4853C37.2566 33.8746 37.1528 34.207 36.95 34.5694L36.7436 34.422Z" fill="var(--fill-0, #B9997A)"/>
<path id="Vector_102" d="M52.746 37.1251C52.628 36.9066 52.4414 36.6327 52.4702 36.399L52.5561 36.3944C52.7452 36.6251 52.7729 36.7802 52.8591 37.0674L52.746 37.1251Z" fill="var(--fill-0, #A37F76)" fill-opacity="0.984314"/>
</g>
<defs>
<clipPath id="clip0_19293_1005">
<rect width="74" height="71" fill="white"/>
</clipPath>
</defs>
</svg>
