<svg preserveAspectRatio="none" width="100%" height="100%" overflow="visible" style="display: block;" viewBox="0 0 28.6667 28.667" fill="none" xmlns="http://www.w3.org/2000/svg">
<g id="elements">
<path id="Icon" d="M19.6663 0C20.3898 0 21.014 0.0888816 21.5052 0.379883C22.0628 0.710179 22.2776 1.19468 22.3939 1.54395C22.4454 1.69873 22.4764 1.8071 22.5013 1.89453C22.5403 2.03198 22.5653 2.11721 22.6321 2.24902C22.7028 2.38832 22.8272 2.56796 23.1429 2.77148C23.3078 2.87774 23.5539 2.95832 23.9359 3.00977C24.2128 3.04706 24.4864 3.06184 24.8011 3.0791C24.9406 3.08675 25.0886 3.09478 25.2484 3.10547C26.14 3.16512 27.5102 3.29797 28.3216 4.4834C28.6635 4.98306 28.6989 5.5202 28.6478 6.00098C28.602 6.43066 28.4713 6.94097 28.3314 7.4873L28.3216 7.52441L25.6741 20.5312C25.6708 20.5475 25.6675 20.564 25.6634 20.5801L25.6468 20.6416C25.3604 21.7609 25.1223 22.6918 24.8323 23.4229C24.525 24.1978 24.1239 24.8467 23.4554 25.3379C22.9145 25.7353 22.3543 25.9167 21.8001 25.9912C21.2527 26.0647 20.7486 25.6802 20.6751 25.1328C20.6018 24.5856 20.9863 24.0823 21.5335 24.0088C21.8222 23.97 22.0496 23.889 22.2708 23.7266C22.5335 23.5336 22.7476 23.2537 22.973 22.6855C23.2088 22.091 23.4161 21.2913 23.7191 20.1074L26.3665 7.10156C26.3698 7.08532 26.3741 7.0688 26.3782 7.05273C26.5393 6.42322 26.6301 6.05632 26.6585 5.78906C26.67 5.68109 26.667 5.62553 26.6634 5.60156C26.4527 5.3043 26.0605 5.16481 25.1155 5.10156C25.0103 5.09452 24.8946 5.08775 24.7728 5.08105C24.427 5.06206 24.0297 5.04072 23.6693 4.99219C23.4352 4.96067 23.1845 4.91437 22.931 4.84082L20.0628 8.68164C20.0548 8.69285 20.0465 8.70456 20.0384 8.71582C19.8505 8.97838 19.6536 9.25374 19.4593 9.45801C19.238 9.69056 18.8915 9.97276 18.3831 10.0107C17.8725 10.0488 17.487 9.81884 17.2337 9.61914C17.1023 9.51546 16.9681 9.3857 16.8333 9.25L16.3148 10.1162C16.171 10.3559 16.0912 10.4908 16.0384 10.5957C16.0149 10.6424 16.0033 10.6695 15.9984 10.6836C15.9961 10.69 15.9948 10.694 15.9944 10.6953V10.7109C15.9948 10.7259 15.9963 10.7549 16.0042 10.8066C16.022 10.9227 16.0568 11.0753 16.1194 11.3477L18.5814 22.0557L18.5853 22.0801C18.962 24.1999 17.9194 25.4493 17.0843 26.4502C16.981 26.574 16.8803 26.6941 16.7864 26.8115L16.7484 26.8604C16.3875 27.3116 16.0553 27.7267 15.7474 28.0205C15.4192 28.3336 14.9596 28.667 14.3323 28.667C13.705 28.667 13.2455 28.3336 12.9173 28.0205C12.6093 27.7267 12.2771 27.3116 11.9163 26.8604L11.8782 26.8115C11.7844 26.6941 11.6837 26.574 11.5804 26.4502C10.7453 25.4493 9.70271 24.1998 10.0794 22.0801L10.0843 22.0557L12.5462 11.3477C12.6088 11.0753 12.6427 10.9227 12.6605 10.8066C12.6684 10.755 12.6708 10.7259 12.6712 10.7109V10.6963L12.6702 10.6953C12.6699 10.6939 12.6686 10.6902 12.6663 10.6836C12.6613 10.6695 12.6508 10.6424 12.6273 10.5957C12.5745 10.4907 12.4947 10.356 12.3509 10.1162L11.8314 9.25098C11.697 9.38613 11.5639 9.51584 11.4329 9.61914C11.1797 9.81884 10.7941 10.0488 10.2835 10.0107C9.7751 9.97276 9.42861 9.69056 9.20734 9.45801C9.01302 9.25374 8.8161 8.97838 8.62824 8.71582C8.62018 8.70455 8.61185 8.69286 8.60382 8.68164L5.73566 4.84082C5.48214 4.91437 5.23146 4.96067 4.99738 4.99219C4.63692 5.04071 4.23958 5.06206 3.89386 5.08105C3.77208 5.08775 3.65631 5.09452 3.55109 5.10156C2.60614 5.16481 2.21397 5.30431 2.00324 5.60156C1.99959 5.62553 1.99665 5.68109 2.00812 5.78906C2.03653 6.05632 2.12729 6.42322 2.28839 7.05273C2.29251 7.0688 2.29681 7.08532 2.30011 7.10156L4.94757 20.1074C5.25058 21.2913 5.45784 22.091 5.69367 22.6855C5.91904 23.2537 6.13317 23.5336 6.39582 23.7266C6.617 23.889 6.8444 23.97 7.13312 24.0088C7.68037 24.0823 8.06482 24.5856 7.99152 25.1328C7.91801 25.6802 7.41389 26.0647 6.86652 25.9912C6.31232 25.9167 5.75209 25.7353 5.21125 25.3379C4.54278 24.8467 4.14166 24.1978 3.83429 23.4229C3.54434 22.6918 3.30626 21.7609 3.01984 20.6416L3.00324 20.5801C2.99913 20.564 2.9958 20.5475 2.9925 20.5312L0.345035 7.52441C0.341865 7.51203 0.338431 7.49965 0.335269 7.4873C0.195358 6.94097 0.0645834 6.43066 0.018863 6.00098C-0.0322375 5.5202 0.00310384 4.98306 0.345035 4.4834C1.15638 3.29797 2.52659 3.16512 3.41828 3.10547C3.57806 3.09478 3.72599 3.08675 3.86554 3.0791C4.18028 3.06184 4.45381 3.04706 4.73078 3.00977C5.11272 2.95832 5.35883 2.87773 5.52375 2.77148C5.83946 2.56796 5.96388 2.38832 6.03449 2.24902C6.10131 2.1172 6.1263 2.03198 6.16535 1.89453C6.19019 1.8071 6.22124 1.69873 6.27277 1.54395C6.38907 1.19469 6.60389 0.710179 7.16144 0.379883C7.65267 0.0888792 8.27685 0 9.00031 0C9.22421 7.05545e-05 9.44141 0.0755537 9.6175 0.213867L12.5423 2.51172C13.0705 2.92656 13.548 3.30035 13.889 3.65625C14.0533 3.82774 14.2077 4.0176 14.3333 4.23047C14.4589 4.0176 14.6134 3.82774 14.7777 3.65625C15.1187 3.30035 15.5962 2.92655 16.1243 2.51172C16.1413 2.49836 16.158 2.48415 16.1751 2.4707L19.0491 0.213867C19.2252 0.0755513 19.4424 7.5179e-05 19.6663 0ZM12.0443 22.4531C11.8465 23.6055 12.2849 24.1428 13.1126 25.1582C13.2158 25.2848 13.3249 25.4189 13.4398 25.5625C13.8528 26.0789 14.1001 26.3843 14.2982 26.5732C14.3105 26.585 14.3217 26.5959 14.3323 26.6055C14.3429 26.5959 14.3542 26.585 14.3665 26.5732C14.5645 26.3843 14.8119 26.0789 15.2249 25.5625C15.3398 25.4189 15.4489 25.2848 15.5521 25.1582C16.3798 24.1428 16.8182 23.6056 16.6204 22.4531L14.3323 12.502L12.0443 22.4531ZM14.3333 6.41992C14.2637 6.54573 14.1857 6.66533 14.1038 6.7793C13.8871 7.0808 13.5933 7.40146 13.264 7.75098L14.0657 9.08789C14.0834 9.1173 14.1015 9.14698 14.1194 9.17676C14.1906 9.29468 14.2638 9.41584 14.3323 9.54102C14.4009 9.41579 14.474 9.29472 14.5452 9.17676C14.5632 9.14693 14.5813 9.11735 14.5989 9.08789L15.4007 7.75C15.072 7.40105 14.7792 7.08037 14.5628 6.7793C14.4809 6.66533 14.4029 6.54573 14.3333 6.41992ZM8.6673 2.00977C8.38042 2.02899 8.24925 2.07066 8.20148 2.09082C8.19442 2.10686 8.1841 2.13413 8.17023 2.17578C8.16351 2.19601 8.15375 2.22999 8.14093 2.27441C8.08639 2.46354 7.97669 2.84152 7.81867 3.15332C7.71506 3.3577 7.58561 3.55935 7.42023 3.75391L10.2122 7.49316L10.2239 7.50879C10.3095 7.62833 10.3805 7.72797 10.4437 7.81348C10.5163 7.73953 10.599 7.65401 10.6976 7.55078L11.4359 6.77637C11.962 6.22526 12.2827 5.88655 12.4798 5.6123C12.5712 5.48515 12.6095 5.40728 12.6253 5.36426C12.6376 5.33073 12.6366 5.31824 12.6361 5.30957C12.6355 5.30108 12.6339 5.28982 12.6185 5.26074C12.5979 5.22216 12.5515 5.15155 12.4446 5.04004C12.2137 4.79896 11.8519 4.51197 11.2562 4.04395L8.6673 2.00977ZM17.4105 4.04395C16.8147 4.51196 16.453 4.79896 16.222 5.04004C16.1152 5.15154 16.0687 5.22216 16.0482 5.26074C16.0326 5.29001 16.0312 5.30106 16.0306 5.30957C16.03 5.31823 16.0301 5.3311 16.0423 5.36426C16.0582 5.40734 16.0957 5.48546 16.1868 5.6123C16.384 5.88655 16.7046 6.22526 17.2308 6.77637L17.97 7.55078C18.0684 7.65381 18.1504 7.73963 18.223 7.81348C18.2861 7.72797 18.3571 7.62833 18.4427 7.50879L18.4544 7.49316L21.2474 3.75391C21.082 3.55931 20.9516 3.35775 20.848 3.15332C20.6899 2.84153 20.5802 2.46354 20.5257 2.27441C20.5129 2.22999 20.5031 2.19601 20.4964 2.17578C20.4825 2.13413 20.4722 2.10686 20.4652 2.09082C20.4174 2.07066 20.2862 2.02899 19.9993 2.00977L17.4105 4.04395Z" fill="var(--fill-0, #142052)"/>
</g>
</svg>
