<svg preserveAspectRatio="none" width="100%" height="100%" overflow="visible" style="display: block;" viewBox="0 0 28.667 28.667" fill="none" xmlns="http://www.w3.org/2000/svg">
<g id="elements">
<path id="Icon" d="M7.66699 13.333C8.1344 13.3332 8.53977 13.6573 8.64258 14.1133L9.15527 16.3916C9.5057 17.9467 10.7203 19.1614 12.2754 19.5117L14.5527 20.0244C15.0089 20.1272 15.333 20.5324 15.333 21C15.333 21.4676 15.0089 21.8728 14.5527 21.9756L12.2754 22.4883C10.7203 22.8386 9.5057 24.0533 9.15527 25.6084L8.64258 27.8867C8.53977 28.3427 8.1344 28.6668 7.66699 28.667C7.1995 28.667 6.79429 28.3427 6.69141 27.8867L6.17773 25.6084C5.82729 24.0533 4.61273 22.8386 3.05762 22.4883L0.780273 21.9756C0.324089 21.8728 0 21.4676 0 21C3.99298e-07 20.5324 0.32409 20.1272 0.780273 20.0244L3.05762 19.5117C4.61273 19.1614 5.82729 17.9467 6.17773 16.3916L6.69141 14.1133C6.79429 13.6573 7.1995 13.333 7.66699 13.333ZM7.66699 18.1543C7.06631 19.395 6.06202 20.3993 4.82129 21C6.06202 21.6007 7.06631 22.605 7.66699 23.8457C8.26764 22.605 9.27108 21.6007 10.5117 21C9.27108 20.3993 8.26764 19.395 7.66699 18.1543ZM18.333 0C18.8006 0 19.2058 0.324108 19.3086 0.780273L20.0273 3.96875C20.5517 6.29667 22.3694 8.11514 24.6973 8.63965L27.8867 9.35742C28.3427 9.46023 28.6668 9.8656 28.667 10.333C28.667 10.8005 28.3427 11.2057 27.8867 11.3086L24.6973 12.0273C22.3696 12.5518 20.5518 14.3696 20.0273 16.6973L19.3086 19.8867C19.2057 20.3427 18.8005 20.667 18.333 20.667C17.8656 20.6668 17.4602 20.3427 17.3574 19.8867L16.6396 16.6973C16.1151 14.3694 14.2967 12.5517 11.9688 12.0273L8.78027 11.3086C8.32411 11.2058 8 10.8006 8 10.333C8.00015 9.86553 8.3242 9.46016 8.78027 9.35742L11.9688 8.63965C14.2968 8.11523 16.1152 6.29678 16.6396 3.96875L17.3574 0.780273C17.4602 0.324196 17.8655 0.000150787 18.333 0ZM18.333 5.30762C17.5123 7.65958 15.6596 9.51225 13.3076 10.333C15.6594 11.1537 17.5122 13.0066 18.333 15.3584C19.1538 13.0066 21.0066 11.1538 23.3584 10.333C21.0067 9.51218 19.1537 7.65943 18.333 5.30762Z" fill="var(--fill-0, #142052)"/>
</g>
</svg>
