<svg preserveAspectRatio="none" width="100%" height="100%" overflow="visible" style="display: block;" viewBox="0 0 27.333 22.0117" fill="none" xmlns="http://www.w3.org/2000/svg">
<g id="elements">
<path id="Icon" d="M8.61328 16.8643C11.6266 14.8643 15.7071 14.8643 18.707 16.8643C19.947 17.7043 20.667 19.2118 20.667 21.0117C20.6667 21.5581 20.2134 22.0115 19.667 22.0117V21.998C19.1204 21.998 18.6671 21.5446 18.667 20.998C18.667 20.4514 18.5596 19.1709 17.5996 18.5176C15.2664 16.9712 12.0799 16.9578 9.7334 18.5176C8.7734 19.1576 8.66699 20.4647 8.66699 20.998C8.6669 21.5312 8.21346 21.9979 7.66699 21.998C7.12038 21.998 6.66708 21.5446 6.66699 20.998C6.66699 19.2114 7.37328 17.6909 8.61328 16.8643ZM6.33301 8.66699C6.87967 8.66699 7.33301 9.12033 7.33301 9.66699C7.33283 10.2135 6.87957 10.667 6.33301 10.667C5.11979 10.6671 3.94684 11.0672 2.93359 11.8271C2.12032 12.4405 2 13.5735 2 14.2002C1.99991 14.7468 1.54661 15.2666 1 15.2666C0.453333 15.2666 0 14.8797 0 14.333C7.24427e-05 12.4932 0.613465 11.0798 1.7334 10.2266C3.10661 9.20002 4.69317 8.66706 6.33301 8.66699ZM21 8.66699C22.6399 8.66699 24.2264 9.20006 25.5996 10.2266C26.7196 11.0799 27.333 12.4935 27.333 14.2002C27.3329 14.7468 26.8796 15.2666 26.333 15.2666C25.7865 15.2664 25.333 14.8796 25.333 14.333C25.333 13.5731 25.213 12.4404 24.3867 11.8271C23.3734 11.0671 22.2 10.667 21 10.667C20.4534 10.667 20.0002 10.2135 20 9.66699C20 9.12033 20.4533 8.66699 21 8.66699ZM13.667 5.33301C16.0535 5.33318 18 7.28043 18 9.66699C17.9998 12.0534 16.0534 13.9998 13.667 14C11.2804 14 9.33318 12.0535 9.33301 9.66699C9.33301 7.28033 11.2803 5.33301 13.667 5.33301ZM13.667 7.33301C12.387 7.33301 11.333 8.38699 11.333 9.66699C11.3332 10.9468 12.3871 12 13.667 12C14.9467 11.9998 15.9998 10.9467 16 9.66699C16 8.3871 14.9468 7.33319 13.667 7.33301ZM6.33301 0C8.35967 0 10 1.64033 10 3.66699C9.99982 5.69351 8.35957 7.33301 6.33301 7.33301C4.3066 7.33283 2.66717 5.6934 2.66699 3.66699C2.66699 1.64043 4.30649 0.000175701 6.33301 0ZM21 0C23.0267 0 24.667 1.64033 24.667 3.66699C24.6668 5.69351 23.0266 7.33301 21 7.33301C18.9734 7.33301 17.3332 5.69351 17.333 3.66699C17.333 1.64033 18.9733 4.01946e-07 21 0ZM6.33301 2C5.41316 2.00018 4.66699 2.7471 4.66699 3.66699C4.66717 4.58673 5.41327 5.33283 6.33301 5.33301C7.2529 5.33301 7.99982 4.58684 8 3.66699C8 2.74699 7.25301 2 6.33301 2ZM21 2C20.08 2 19.333 2.74699 19.333 3.66699C19.3332 4.58684 20.0801 5.33301 21 5.33301C21.9199 5.33301 22.6668 4.58684 22.667 3.66699C22.667 2.74699 21.92 2 21 2Z" fill="var(--fill-0, #142052)"/>
</g>
</svg>
