<svg preserveAspectRatio="none" width="100%" height="100%" overflow="visible" style="display: block;" viewBox="0 0 28.6665 26" fill="none" xmlns="http://www.w3.org/2000/svg">
<g id="elements">
<path id="Icon" d="M17.5862 0.335971C17.8866 -0.001944 18.3761 -0.0966287 18.7805 0.105502L24.7307 3.08109C26.3177 3.87463 27.3655 5.44937 27.4836 7.21976L28.6643 24.9336C28.6827 25.2097 28.5858 25.4816 28.3967 25.6836C28.2078 25.8854 27.9437 25.9999 27.6672 26H23.6672C23.2256 26 22.8361 25.7101 22.7092 25.2871L21.9319 22.6963C21.9208 22.7248 21.9085 22.7529 21.8948 22.7803L20.5618 25.4473C20.3924 25.786 20.0459 25.9999 19.6672 26H9.00025C8.6215 26 8.27512 25.786 8.10572 25.4473L6.77271 22.7803C6.75894 22.7528 6.74577 22.7249 6.73463 22.6963L5.95826 25.2871C5.83138 25.7101 5.4418 26 5.00025 26H1.00025C0.723578 26 0.458853 25.8856 0.269782 25.6836C0.0807423 25.4816 -0.0161474 25.2097 0.00220342 24.9336L1.18287 7.21976C1.30101 5.44948 2.34897 3.87469 3.9358 3.08109L9.88599 0.105502C10.2904 -0.0967106 10.7809 -0.0019788 11.0813 0.335971C11.7865 1.12904 13.0067 1.59471 14.3333 1.59476C15.6601 1.59476 16.881 1.12925 17.5862 0.335971ZM4.83033 4.86917C3.87804 5.34533 3.24978 6.29121 3.17896 7.35355L2.06861 24H4.25611L6.04224 18.0459C6.07722 17.9293 6.13227 17.8244 6.20142 17.7325L5.33814 9.09964C5.2832 8.55022 5.68429 8.06005 6.23365 8.00492C6.78317 7.94996 7.27338 8.35092 7.32838 8.90042L8.6438 22.0508L9.61841 24H13.3333V10.0059C13.3333 9.88854 13.2421 9.67995 12.9563 9.54105C10.737 8.46253 9.68131 6.41136 9.17701 4.76859C8.96278 4.07072 8.84041 3.41961 8.7688 2.89945L4.83033 4.86917ZM19.8967 2.89945C19.812 3.51468 19.6569 4.31633 19.3606 5.16312C18.7786 6.82594 17.6118 8.78295 15.3137 9.71683C15.3254 9.81087 15.3333 9.90726 15.3333 10.0059V24H19.0491L20.0237 22.0508L21.3381 8.90042C21.3931 8.35095 21.8834 7.95006 22.4329 8.00492C22.9824 8.05987 23.3833 8.5501 23.3284 9.09964L22.4651 17.7325C22.5343 17.8244 22.5893 17.9293 22.6243 18.0459L24.4104 24H26.5979L25.4885 7.35355C25.4177 6.2912 24.7885 5.34533 23.8362 4.86917L19.8967 2.89945ZM10.7503 2.63187C10.8104 3.06748 10.9122 3.60849 11.0881 4.18167C11.5155 5.57375 12.3233 7.0098 13.8303 7.74222C13.9675 7.80888 14.1021 7.88961 14.2317 7.98148C16.0144 7.40068 16.9615 5.96419 17.4729 4.50296C17.7139 3.81443 17.8437 3.15083 17.9153 2.63285C16.8494 3.28954 15.5647 3.59476 14.3333 3.59476C13.1013 3.59473 11.8164 3.28913 10.7503 2.63187Z" fill="var(--fill-0, #142052)"/>
</g>
</svg>
