<svg preserveAspectRatio="none" width="100%" height="100%" overflow="visible" style="display: block;" viewBox="0 0 17.9161 17.916" fill="none" xmlns="http://www.w3.org/2000/svg">
<g id="elements">
<path id="Icon" d="M11.9092 1.84918e-06C12.6876 -1.03697e-05 13.3223 -0.000502051 13.8389 0.0556659C14.3783 0.114319 14.8471 0.238882 15.2754 0.524416C15.7035 0.809921 15.9982 1.1947 16.2598 1.66992C16.5102 2.12504 16.7544 2.71039 17.0537 3.42871L17.8682 5.38477C17.9025 5.46727 17.9177 5.55275 17.916 5.63672V7.70801C17.916 8.05319 17.6362 8.33301 17.291 8.33301C16.946 8.33282 16.666 8.05307 16.666 7.70801V6.25H1.25V10.1484C1.25 11.8503 1.25072 13.0621 1.37891 13.9814C1.50425 14.8801 1.74072 15.4064 2.14356 15.7949C2.5497 16.1866 3.10552 16.4187 4.04883 16.541C5.00781 16.6653 6.26945 16.666 8.03223 16.666H9.375C9.71993 16.6662 9.99982 16.9461 10 17.291C10 17.6361 9.72004 17.9159 9.375 17.916H7.98633C6.27929 17.916 4.93643 17.9162 3.8877 17.7803C2.81392 17.6411 1.95401 17.3497 1.27539 16.6953C0.593624 16.0379 0.28745 15.1994 0.141602 14.1533C2.57187e-05 13.1377 -1.32446e-05 11.8393 5.13024e-07 10.1973V5.625C5.13024e-07 5.61823 0.00173973 5.61122 0.00195364 5.60449C0.0043215 5.53101 0.0179539 5.45667 0.0478521 5.38477L0.862305 3.42969C1.16166 2.71121 1.40575 2.12512 1.65625 1.66992C1.91785 1.19458 2.2133 0.80995 2.6416 0.524416C3.06976 0.239026 3.53798 0.114329 4.07715 0.0556659C4.59369 -0.000503019 5.22844 -1.03696e-05 6.00684 1.84918e-06H11.9092ZM13.958 8.33301C16.15 8.33301 17.916 10.1264 17.916 12.3252C17.9159 13.5907 17.4043 14.5805 16.4561 15.4209C15.9263 15.8903 15.2707 16.7185 14.8379 17.3809C14.6724 17.6342 14.3785 17.916 13.9521 17.916C13.519 17.9159 13.2269 17.6259 13.0674 17.3643C12.6698 16.7122 11.997 15.8968 11.46 15.4209C10.5117 14.5805 10.0001 13.5907 10 12.3252C10 10.1264 11.766 8.33303 13.958 8.33301ZM13.958 9.58301C12.4681 9.58303 11.25 10.805 11.25 12.3252C11.2501 13.1858 11.5711 13.849 12.2891 14.4854C12.8519 14.9841 13.5027 15.755 13.9619 16.4443C14.4223 15.7773 15.0561 14.9912 15.627 14.4854C16.3449 13.849 16.666 13.1858 16.666 12.3252C16.666 10.8049 15.4479 9.58301 13.958 9.58301ZM13.9658 11.458C14.4258 11.4582 14.7987 11.831 14.7988 12.291C14.7988 12.7512 14.4259 13.1248 13.9658 13.125H13.958C13.4978 13.125 13.125 12.7512 13.125 12.291C13.1252 11.8309 13.4979 11.458 13.958 11.458H13.9658ZM8.95801 8.33301C9.30319 8.33301 9.58301 8.61283 9.58301 8.95801C9.58301 9.30319 9.30319 9.58301 8.95801 9.58301H7.29102C6.946 9.58282 6.66602 9.30307 6.66602 8.95801C6.66602 8.61295 6.946 8.3332 7.29102 8.33301H8.95801ZM6.04199 1.25C5.22064 1.25 4.65399 1.25088 4.21289 1.29883C3.78708 1.34513 3.53644 1.43018 3.33496 1.56445C3.1335 1.69876 2.95846 1.89728 2.75195 2.27246C2.53801 2.6612 2.31888 3.18411 2.00293 3.94238L1.5625 5H8.33301V1.25H6.04199ZM9.58301 5H16.3545L15.9131 3.94238C15.5971 3.18411 15.379 2.6612 15.165 2.27246C14.9586 1.89727 14.7834 1.69879 14.582 1.56445C14.3806 1.43016 14.1298 1.34515 13.7041 1.29883C13.263 1.25087 12.6964 1.25 11.875 1.25H9.58301V5Z" fill="var(--fill-0, #F7F7F7)"/>
</g>
</svg>
