<svg preserveAspectRatio="none" width="100%" height="100%" overflow="visible" style="display: block;" viewBox="0 0 17.084 17.916" fill="none" xmlns="http://www.w3.org/2000/svg">
<g id="elements">
<path id="Icon" d="M13.542 0C13.8872 1.36975e-07 14.167 0.279822 14.167 0.625V1.15527C14.8374 1.34536 15.4033 1.65325 15.874 2.16211C16.5221 2.86285 16.8102 3.74799 16.9482 4.85742C17.0835 5.94472 17.084 7.33831 17.084 9.11621V9.63281C17.084 11.4107 17.0835 12.8043 16.9482 13.8916C16.8102 15.0013 16.5223 15.8871 15.874 16.5879C15.2195 17.2955 14.3815 17.6161 13.333 17.7686C12.3181 17.9161 11.021 17.916 9.38477 17.916H7.69922C6.06303 17.916 4.7659 17.9161 3.75098 17.7686C2.70247 17.6161 1.86452 17.2955 1.20996 16.5879C0.561702 15.8871 0.273743 15.0013 0.135742 13.8916C0.000534051 12.8043 -9.07567e-06 11.4107 1.62699e-07 9.63281V9.11621C-9.0755e-06 7.33831 0.000522914 5.94472 0.135742 4.85742C0.273736 3.74799 0.5619 2.86285 1.20996 2.16211C1.68066 1.65325 2.24655 1.34536 2.91699 1.15527V0.625C2.91699 0.279822 3.19681 0 3.54199 0C3.88717 8.05736e-09 4.16699 0.279822 4.16699 0.625V0.929688C5.11361 0.833094 6.27841 0.832994 7.69922 0.833008H9.38477C10.8056 0.832994 11.9704 0.833094 12.917 0.929688V0.625C12.917 0.279822 13.1968 0 13.542 0ZM1.2832 6.25C1.25124 7.04735 1.25 8.00091 1.25 9.16113V9.58887C1.25 11.4206 1.25149 12.7362 1.37598 13.7373C1.49883 14.7252 1.73276 15.312 2.12793 15.7393C2.51666 16.1593 3.04043 16.4027 3.93164 16.5322C4.84629 16.6651 6.05204 16.666 7.75 16.666H9.33398C11.0319 16.666 12.2377 16.6651 13.1523 16.5322C14.0436 16.4027 14.5673 16.1593 14.9561 15.7393C15.3512 15.312 15.5851 14.7252 15.708 13.7373C15.8325 12.7362 15.834 11.4206 15.834 9.58887V9.16113C15.834 8.00091 15.8327 7.04735 15.8008 6.25H1.2832ZM9.375 12.5C9.72018 12.5 10 12.7798 10 13.125C9.99982 13.47 9.72007 13.75 9.375 13.75H5.20898C4.86392 13.75 4.58416 13.47 4.58398 13.125C4.58398 12.7798 4.86381 12.5 5.20898 12.5H9.375ZM11.875 12.5C12.2202 12.5 12.5 12.7798 12.5 13.125C12.4998 13.47 12.2201 13.75 11.875 13.75H11.8682C11.5231 13.75 11.2433 13.47 11.2432 13.125C11.2432 12.7798 11.523 12.5 11.8682 12.5H11.875ZM5.21582 9.16602C5.56089 9.16602 5.84064 9.44599 5.84082 9.79102C5.84082 10.1362 5.561 10.416 5.21582 10.416H5.20898C4.86381 10.416 4.58398 10.1362 4.58398 9.79102C4.58416 9.44599 4.86392 9.16602 5.20898 9.16602H5.21582ZM11.875 9.16602C12.2201 9.16602 12.4998 9.44599 12.5 9.79102C12.5 10.1362 12.2202 10.416 11.875 10.416H7.70898C7.36381 10.416 7.08398 10.1362 7.08398 9.79102C7.08416 9.44599 7.36391 9.16602 7.70898 9.16602H11.875ZM7.75 2.08301C6.1937 2.08301 5.05113 2.08594 4.16699 2.18848V2.29102C4.16699 2.63619 3.88717 2.91602 3.54199 2.91602C3.25688 2.91602 3.01843 2.72483 2.94336 2.46387C2.60303 2.599 2.34443 2.77669 2.12793 3.01074C1.73435 3.43624 1.50118 4.0193 1.37793 5H15.7061C15.5828 4.0193 15.3496 3.43624 14.9561 3.01074C14.7394 2.7765 14.4804 2.59904 14.1396 2.46387C14.0645 2.7247 13.827 2.91602 13.542 2.91602C13.1968 2.91602 12.917 2.63619 12.917 2.29102V2.18848C12.0329 2.08594 10.8903 2.08301 9.33398 2.08301H7.75Z" fill="var(--fill-0, white)"/>
</g>
</svg>
