<svg preserveAspectRatio="none" width="100%" height="100%" overflow="visible" style="display: block;" viewBox="0 0 16.2502 17.916" fill="none" xmlns="http://www.w3.org/2000/svg">
<g id="elements">
<path id="Icon" d="M9.77051 0C11.1797 0 12.3977 0.796521 13.2393 1.96875C13.9789 2.999 14.4562 4.34986 14.5615 5.83301H14.8174C14.997 5.83293 15.1915 5.83253 15.3545 5.85547C15.546 5.88245 15.793 5.95281 15.9912 6.1709C16.1877 6.3872 16.2357 6.63849 16.2471 6.8291C16.2568 6.99385 16.2414 7.18871 16.2275 7.37207C16.2268 7.38208 16.2263 7.39241 16.2256 7.40234L15.7051 14.3018C15.6527 14.9968 15.609 15.5775 15.5147 16.0371C15.4151 16.5221 15.2441 16.9569 14.8789 17.3018C14.5121 17.648 14.0693 17.7907 13.582 17.8555C13.1229 17.9164 12.5488 17.916 11.8662 17.916H8.0293C7.34693 17.916 6.77358 17.9164 6.31446 17.8555C5.82702 17.7908 5.38447 17.6481 5.01758 17.3018C4.50525 16.8181 4.33438 16.1352 4.26172 15.5693C4.22408 15.276 4.20924 14.9806 4.19922 14.7158C4.19747 14.6696 4.19585 14.6247 4.19434 14.5811C4.13005 14.5811 4.06437 14.583 3.99805 14.583H3.91797C3.16655 14.583 2.54556 14.5826 2.05371 14.5225C1.54076 14.4598 1.07338 14.3229 0.692385 13.9766C0.303055 13.6225 0.140345 13.175 0.067385 12.6816C-0.000410142 12.2231 -3.22699e-05 11.6485 2.199e-06 10.9736V10.1211C-2.21886e-05 9.09145 0.000337921 8.24962 0.098635 7.58496C0.202103 6.88534 0.425163 6.29314 0.936526 5.82812C1.43949 5.37088 2.06592 5.17835 2.80567 5.08789C3.41554 5.01335 4.16731 5.0017 5.0791 5C5.29976 3.70603 5.81069 2.54663 6.53223 1.66797C7.35761 0.662926 8.48634 1.90372e-06 9.77051 0ZM7.91699 10.416V10.9736C7.91703 11.6486 7.91644 12.2231 7.84864 12.6816C7.77566 13.1751 7.61316 13.6225 7.22364 13.9766C6.84273 14.3228 6.37608 14.4597 5.86328 14.5225C5.73285 14.5384 5.59296 14.55 5.44434 14.5586C5.44563 14.5958 5.44687 14.6327 5.44824 14.6689C5.45798 14.9263 5.47178 15.175 5.50196 15.4102C5.56498 15.9009 5.68798 16.217 5.875 16.3936C5.97821 16.491 6.13032 16.57 6.47852 16.6162C6.84574 16.665 7.33581 16.666 8.07129 16.666H11.8242C12.5596 16.666 13.0498 16.6649 13.417 16.6162C13.7651 16.57 13.9173 16.4909 14.0205 16.3936C14.1252 16.2947 14.217 16.1419 14.29 15.7861C14.3664 15.4139 14.4056 14.9134 14.4619 14.167L14.7451 10.416H7.91699ZM1.25293 11.25C1.25435 11.807 1.26013 12.1977 1.30469 12.499C1.35372 12.8303 1.4347 12.9621 1.53321 13.0518C1.64032 13.1491 1.81056 13.234 2.20508 13.2822C2.6121 13.332 3.15642 13.333 3.95801 13.333C4.75954 13.333 5.3039 13.3319 5.71094 13.2822C6.10549 13.234 6.27566 13.1491 6.38281 13.0518C6.48143 12.9621 6.56324 12.8306 6.61231 12.499C6.65686 12.1977 6.66265 11.807 6.66406 11.25H1.25293ZM5.625 6.25C4.43063 6.25 3.59197 6.25068 2.95801 6.32812C2.33635 6.40411 2.00653 6.54458 1.77735 6.75293C1.55683 6.9535 1.41451 7.22987 1.33496 7.76758C1.25616 8.30044 1.25037 9.00072 1.25 10H6.66699V6.38184C6.66699 6.33209 6.66629 6.28915 6.66602 6.25098C6.60763 6.25013 6.54009 6.25 6.45801 6.25H5.625ZM7.91699 9.16602H14.792C14.8078 9.16602 14.8234 9.16876 14.8389 9.16992L14.9795 7.30859C14.9862 7.21961 14.9914 7.1468 14.9951 7.08398C14.9366 7.08312 14.869 7.08301 14.7871 7.08301H7.91699V9.16602ZM9.77051 1.25C8.94491 1.25 8.14537 1.67271 7.49805 2.46094C6.96652 3.10817 6.55643 3.98453 6.35156 5H6.48535C6.65761 4.99995 6.83907 4.99997 6.99121 5.01855C7.16381 5.03965 7.39189 5.09348 7.58985 5.27344C7.78067 5.44692 7.85399 5.65693 7.88574 5.83301H13.3066C13.204 4.59463 12.8015 3.50223 12.2236 2.69727C11.5496 1.75862 10.674 1.25 9.77051 1.25Z" fill="var(--fill-0, #F7F7F7)"/>
</g>
</svg>
