<svg preserveAspectRatio="none" width="100%" height="100%" overflow="visible" style="display: block;" viewBox="0 0 17.916 14.584" fill="none" xmlns="http://www.w3.org/2000/svg">
<g id="elements">
<path id="Icon" d="M8.99902 1.94657e-06C9.55308 -2.91472e-05 10.0308 0.000362522 10.4131 0.0517598C10.8227 0.106857 11.2157 0.231323 11.5342 0.549807C11.8525 0.868288 11.9762 1.26134 12.0313 1.6709C12.0485 1.79907 12.0608 1.93807 12.0684 2.08692C15.3153 2.18918 17.9158 4.85324 17.916 8.125V10.4609C17.9161 10.6112 17.9169 10.7407 17.9023 10.8574C17.7961 11.709 17.125 12.3801 16.2734 12.4863C16.1567 12.5009 16.0272 12.5001 15.877 12.5H15.7578C15.4756 13.6942 14.4054 14.5838 13.125 14.584C11.8445 14.584 10.7745 13.6942 10.4922 12.5H7.42383C7.14152 13.6942 6.07152 14.584 4.79102 14.584C3.50921 14.5838 2.43804 13.6923 2.15723 12.4961C2.00498 12.4931 1.86542 12.488 1.73926 12.4766C1.46501 12.4517 1.19345 12.3967 0.937501 12.249C0.652464 12.0845 0.415543 11.8475 0.250978 11.5625C0.103259 11.3066 0.0482947 11.035 0.0234389 10.7607C-5.25208e-05 10.5015 -1.2362e-05 10.1856 1.43222e-06 9.81934V7.91699C4.18243e-06 7.57182 0.279825 7.29199 0.625001 7.29199C0.970029 7.29217 1.25 7.57193 1.25 7.91699V9.79199C1.25 10.1929 1.2498 10.4522 1.26758 10.6484C1.28452 10.835 1.31337 10.9033 1.33301 10.9375C1.38786 11.0325 1.46749 11.1121 1.5625 11.167C1.59667 11.1866 1.66497 11.2155 1.85156 11.2324C1.93913 11.2404 2.0396 11.2435 2.15918 11.2461C2.44306 10.0542 3.51223 9.16714 4.79102 9.16699C6.0713 9.16699 7.14129 10.0561 7.42383 11.25H10.4922C10.5659 10.9385 10.6904 10.6472 10.8613 10.3877C10.8443 10.3309 10.833 10.2713 10.833 10.209V3.125C10.833 2.51827 10.8318 2.12593 10.793 1.83692C10.7566 1.56651 10.6979 1.48123 10.6504 1.4336C10.6028 1.38602 10.5172 1.32649 10.2461 1.29004C9.95706 1.25121 9.56473 1.25 8.95801 1.25H0.625001C0.279823 1.25 1.43222e-06 0.97018 1.43222e-06 0.625002C0.000179859 0.279976 0.279934 1.94657e-06 0.625001 1.94657e-06H8.99902ZM4.79102 10.417C3.98586 10.4172 3.33319 11.0698 3.33301 11.875C3.33301 12.6803 3.98575 13.3338 4.79102 13.334C5.59643 13.334 6.25 12.6804 6.25 11.875C6.24982 11.0697 5.59632 10.417 4.79102 10.417ZM13.125 10.417C12.3197 10.417 11.6662 11.0697 11.666 11.875C11.666 12.6804 12.3196 13.334 13.125 13.334C13.9303 13.3338 14.583 12.6803 14.583 11.875C14.5828 11.0698 13.9302 10.4172 13.125 10.417ZM12.083 9.375C12.4037 9.24124 12.7558 9.16699 13.125 9.16699C14.4052 9.16714 15.4754 10.0561 15.7578 11.25H15.8438C16.0459 11.25 16.0903 11.2487 16.1191 11.2451C16.4026 11.2095 16.6256 10.9866 16.6611 10.7031C16.6647 10.6743 16.666 10.6299 16.666 10.4277V8.125C16.6658 5.54859 14.6326 3.44696 12.083 3.33789V9.375ZM3.95801 5C4.30308 5 4.58283 5.27997 4.58301 5.625C4.58301 5.97018 4.30319 6.25 3.95801 6.25H0.625001C0.279823 6.25 1.43222e-06 5.97018 1.43222e-06 5.625C0.000178199 5.27997 0.279933 5 0.625001 5H3.95801ZM5.625 2.5C5.96992 2.50018 6.24982 2.78008 6.25 3.125C6.25 3.47007 5.97003 3.74983 5.625 3.75H0.625001C0.279823 3.75 1.43222e-06 3.47018 1.43222e-06 3.125C0.000178231 2.77997 0.279933 2.5 0.625001 2.5H5.625Z" fill="var(--fill-0, #F7F7F7)"/>
</g>
</svg>
