<svg preserveAspectRatio="none" width="100%" height="100%" overflow="visible" style="display: block;" viewBox="0 0 32 32" fill="none" xmlns="http://www.w3.org/2000/svg">
<g id="hanger">
<path id="Vector" d="M21.0005 5L13.1259 5C12.5038 5 12.0009 5.4917 12.0009 6.1C12.0009 6.7083 12.5038 7.2 13.1259 7.2H21.0005C24.3393 7.2 27.119 9.5826 27.6567 12.7L14.7649 12.7C8.92533 12.7 4.01945 16.7865 3.0925 22.4658C3.007 22.9608 2.74602 24.4711 3.78659 25.6734C4.54705 26.5545 5.77999 27 7.45278 27L24.3753 27C27.4768 27 30 24.5327 30 21.5L30 13.8C30 8.9479 25.9626 5 21.0005 5ZM27.7501 21.5C27.7501 23.3194 26.2359 24.8 24.3753 24.8L7.45278 24.8C6.48758 24.8 5.81374 24.6108 5.50438 24.2533C5.13989 23.8298 5.26476 23.1038 5.32326 22.7628C6.06685 18.2066 10.0379 14.9011 14.766 14.9011L27.7512 14.9011L27.7512 21.5011L27.7501 21.5ZM15.3757 19.85C15.3757 18.9392 16.1317 18.2 17.0632 18.2C17.9946 18.2 18.7506 18.9392 18.7506 19.85C18.7506 20.7608 17.9946 21.5 17.0632 21.5C16.1317 21.5 15.3757 20.7608 15.3757 19.85Z" fill="var(--fill-0, #F7F7F7)"/>
</g>
</svg>
