<svg preserveAspectRatio="none" width="100%" height="100%" overflow="visible" style="display: block;" viewBox="0 0 14.5834 14.5834" fill="none" xmlns="http://www.w3.org/2000/svg">
<g id="elements">
<path id="Icon" fill-rule="evenodd" clip-rule="evenodd" d="M7.29172 5.72191e-05C7.6369 5.72191e-05 7.91672 0.279879 7.91672 0.625057V6.66672H13.9584C14.3036 6.66672 14.5834 6.94655 14.5834 7.29172C14.5834 7.6369 14.3036 7.91672 13.9584 7.91672H7.91672V13.9584C7.91672 14.3036 7.6369 14.5834 7.29172 14.5834C6.94655 14.5834 6.66672 14.3036 6.66672 13.9584V7.91672H0.625057C0.279879 7.91672 5.72191e-05 7.6369 5.72191e-05 7.29172C5.72191e-05 6.94655 0.279879 6.66672 0.625057 6.66672H6.66672V0.625057C6.66672 0.279879 6.94655 5.72191e-05 7.29172 5.72191e-05Z" fill="var(--fill-0, #142052)"/>
</g>
</svg>
